<?xml version="1.0" encoding="utf-8"?>
<!-- Generator: Adobe Illustrator 19.0.0, SVG Export Plug-In . SVG Version: 6.00 Build 0)  -->
<svg version="1.1" xmlns="http://www.w3.org/2000/svg" xmlns:xlink="http://www.w3.org/1999/xlink" x="0px" y="0px"
	 viewBox="0 0 300 300" style="enable-background:new 0 0 300 300;" xml:space="preserve">
<style type="text/css">
	.st0{fill:#FFFFFF;}
	.st1{fill:#A6A8AB;stroke:#A6A8AB;stroke-width:0.5;stroke-miterlimit:10;}
	.st2{fill:#11518B;stroke:#11518B;stroke-width:0.5;stroke-miterlimit:10;}
	.st3{fill:#626366;stroke:#626366;stroke-width:0.5;stroke-miterlimit:10;}
</style>
<g id="Forma">
	<g id="XMLID_90_">
		<rect id="XMLID_105_" x="0.5" y="0.5" class="st0" width="299" height="299"/>
		<path id="XMLID_102_" class="st0" d="M299,1v298H1V1H299 M300,0H0v300h300V0L300,0z"/>
	</g>
</g>
<g id="Logo">
	<g id="XMLID_3_">
		<g id="XMLID_31_">
			<g id="XMLID_54_">
				<path id="XMLID_63_" class="st1" d="M63.5,79.1c-3.5,0-6.9-0.5-10.1-1.6c-3.2-1.1-6-2.7-8.4-4.9l6.1-7.3
					c3.9,3.2,8.2,4.7,12.8,4.7c1.5,0,2.6-0.2,3.4-0.7c0.8-0.5,1.2-1.1,1.2-2v-0.1c0-0.4-0.1-0.8-0.3-1.1c-0.2-0.3-0.5-0.6-1-0.9
					c-0.5-0.3-1.2-0.6-2-0.9c-0.8-0.3-1.9-0.6-3.3-0.9c-2.1-0.5-4.1-1-5.9-1.6c-1.8-0.6-3.4-1.3-4.7-2.2c-1.3-0.9-2.4-2.1-3.2-3.4
					c-0.8-1.4-1.2-3.1-1.2-5.1v-0.1c0-1.8,0.3-3.5,1-5.1c0.7-1.5,1.7-2.9,3-4c1.3-1.1,2.9-2,4.8-2.6c1.9-0.6,4-0.9,6.4-0.9
					c3.4,0,6.4,0.4,9,1.3c2.6,0.9,5,2.2,7.2,3.9l-5.5,7.7c-1.8-1.3-3.7-2.2-5.5-2.9c-1.9-0.7-3.7-1-5.5-1c-1.3,0-2.3,0.2-3,0.7
					c-0.7,0.5-1,1.1-1,1.8v0.1c0,0.5,0.1,0.8,0.3,1.2s0.6,0.6,1.1,0.9c0.5,0.3,1.2,0.6,2.1,0.8s2,0.6,3.4,0.9
					c2.3,0.5,4.3,1.1,6.1,1.7c1.8,0.7,3.4,1.5,4.6,2.4c1.3,0.9,2.3,2.1,2.9,3.4c0.7,1.3,1,2.9,1,4.8v0.1c0,2-0.4,3.8-1.2,5.4
					c-0.8,1.6-1.9,2.9-3.2,4c-1.4,1.1-3.1,1.9-5,2.5C68.1,78.8,65.9,79.1,63.5,79.1z"/>
				<path id="XMLID_61_" class="st1" d="M95.2,39h11v39.4h-11V39z"/>
				<path id="XMLID_59_" class="st1" d="M120.9,39h31.7v9.3h-20.9v6h18.9v8.6h-18.9v6.3h21.2v9.3h-31.9V39z"/>
				<path id="XMLID_57_" class="st1" d="M177.5,48.6h-11.8V39h34.6v9.6h-11.8v29.9h-10.9V48.6z"/>
				<path id="XMLID_55_" class="st1" d="M212.5,39h31.7v9.3h-20.9v6h18.9v8.6h-18.9v6.3h21.2v9.3h-31.9V39z"/>
			</g>
			<g id="XMLID_65_">
				<path id="XMLID_52_" class="st2" d="M65.4,138.1c-2.8,0-5.5-0.5-7.9-1.5c-2.5-1-4.6-2.4-6.5-4.3c-1.8-1.8-3.3-4-4.3-6.5
					c-1.1-2.5-1.6-5.2-1.6-8.1v-0.1c0-2.9,0.5-5.5,1.6-8c1.1-2.5,2.5-4.7,4.3-6.5c1.8-1.9,4-3.3,6.6-4.4c2.5-1.1,5.3-1.6,8.3-1.6
					c2,0,3.9,0.2,5.5,0.6c1.7,0.4,3.2,1,4.5,1.7c1.4,0.7,2.6,1.6,3.7,2.6c1.1,1,2.1,2.1,3,3.3l-8.2,6.4c-1.1-1.4-2.4-2.6-3.7-3.4
					c-1.4-0.8-3-1.2-4.9-1.2c-1.4,0-2.7,0.3-3.8,0.8c-1.1,0.5-2.1,1.3-3,2.2c-0.8,0.9-1.5,2-1.9,3.3c-0.5,1.3-0.7,2.6-0.7,4.1v0.1
					c0,1.5,0.2,2.8,0.7,4.1c0.5,1.3,1.1,2.4,1.9,3.4c0.8,0.9,1.8,1.7,3,2.2c1.1,0.5,2.4,0.8,3.8,0.8c1,0,1.9-0.1,2.8-0.3
					c0.8-0.2,1.6-0.6,2.3-1c0.7-0.4,1.4-0.9,2-1.5c0.6-0.6,1.2-1.2,1.8-1.9l8.2,5.9c-0.9,1.3-2,2.5-3.1,3.5c-1.1,1.1-2.4,2-3.8,2.8
					c-1.4,0.8-3,1.4-4.7,1.9C69.5,137.8,67.6,138.1,65.4,138.1z"/>
				<path id="XMLID_50_" class="st2" d="M95.2,97.8h11v39.4h-11V97.8z"/>
				<path id="XMLID_48_" class="st2" d="M120.9,97.8h10.2l16.3,20.8V97.8h10.8v39.4h-9.6l-16.9-21.6v21.6h-10.8V97.8z"/>
				<path id="XMLID_46_" class="st2" d="M186,138.1c-2.8,0-5.5-0.5-7.9-1.5c-2.5-1-4.6-2.4-6.5-4.3c-1.8-1.8-3.3-4-4.3-6.5
					c-1.1-2.5-1.6-5.2-1.6-8.1v-0.1c0-2.9,0.5-5.5,1.6-8c1.1-2.5,2.5-4.7,4.3-6.5c1.8-1.9,4-3.3,6.6-4.4c2.5-1.1,5.3-1.6,8.3-1.6
					c2,0,3.9,0.2,5.5,0.6c1.7,0.4,3.2,1,4.5,1.7c1.4,0.7,2.6,1.6,3.7,2.6c1.1,1,2.1,2.1,3,3.3l-8.2,6.4c-1.1-1.4-2.4-2.6-3.7-3.4
					c-1.4-0.8-3-1.2-4.9-1.2c-1.4,0-2.7,0.3-3.8,0.8c-1.1,0.5-2.1,1.3-3,2.2c-0.8,0.9-1.5,2-1.9,3.3c-0.5,1.3-0.7,2.6-0.7,4.1v0.1
					c0,1.5,0.2,2.8,0.7,4.1c0.5,1.3,1.1,2.4,1.9,3.4c0.8,0.9,1.8,1.7,3,2.2c1.1,0.5,2.4,0.8,3.8,0.8c1,0,1.9-0.1,2.8-0.3
					c0.8-0.2,1.6-0.6,2.3-1c0.7-0.4,1.4-0.9,2-1.5c0.6-0.6,1.2-1.2,1.8-1.9l8.2,5.9c-0.9,1.3-2,2.5-3.1,3.5c-1.1,1.1-2.4,2-3.8,2.8
					c-1.4,0.8-3,1.4-4.7,1.9C190.1,137.8,188.1,138.1,186,138.1z"/>
				<path id="XMLID_43_" class="st2" d="M233.7,138.1c-3,0-5.9-0.5-8.4-1.6c-2.6-1.1-4.8-2.5-6.7-4.4c-1.9-1.8-3.4-4-4.4-6.5
					c-1.1-2.5-1.6-5.1-1.6-7.9v-0.1c0-2.8,0.5-5.5,1.6-8c1.1-2.5,2.6-4.7,4.5-6.5c1.9-1.9,4.2-3.3,6.8-4.4c2.6-1.1,5.4-1.6,8.4-1.6
					s5.9,0.5,8.4,1.6c2.6,1.1,4.8,2.5,6.7,4.4c1.9,1.8,3.4,4,4.4,6.5s1.6,5.1,1.6,7.9v0.1c0,2.8-0.5,5.5-1.6,8
					c-1.1,2.5-2.6,4.7-4.5,6.5s-4.2,3.3-6.8,4.4C239.5,137.5,236.7,138.1,233.7,138.1z M233.8,128.2c1.5,0,2.9-0.3,4.1-0.8
					c1.2-0.6,2.3-1.3,3.2-2.3c0.9-1,1.5-2.1,2-3.4c0.5-1.3,0.7-2.6,0.7-4.1v-0.1c0-1.4-0.2-2.8-0.7-4.1c-0.5-1.3-1.2-2.4-2.1-3.4
					c-0.9-1-2-1.8-3.2-2.3c-1.2-0.6-2.6-0.9-4.1-0.9s-2.9,0.3-4.1,0.8c-1.2,0.6-2.3,1.3-3.2,2.3c-0.9,1-1.6,2.1-2,3.4
					c-0.5,1.3-0.7,2.6-0.7,4.1v0.1c0,1.4,0.2,2.8,0.7,4.1c0.5,1.3,1.2,2.4,2.1,3.4c0.9,1,1.9,1.8,3.2,2.3
					C230.9,127.9,232.2,128.2,233.8,128.2z"/>
			</g>
			<g id="XMLID_32_">
				<path id="XMLID_41_" class="st1" d="M63.5,196.7c-3.5,0-6.9-0.5-10.1-1.6c-3.2-1.1-6-2.7-8.4-4.9l6.1-7.3
					c3.9,3.2,8.2,4.7,12.8,4.7c1.5,0,2.6-0.2,3.4-0.7s1.2-1.1,1.2-2v-0.1c0-0.4-0.1-0.8-0.3-1.1c-0.2-0.3-0.5-0.6-1-0.9
					c-0.5-0.3-1.2-0.6-2-0.9c-0.8-0.3-1.9-0.6-3.3-0.9c-2.1-0.5-4.1-1-5.9-1.6c-1.8-0.6-3.4-1.3-4.7-2.2c-1.3-0.9-2.4-2.1-3.2-3.4
					c-0.8-1.4-1.2-3.1-1.2-5.1v-0.1c0-1.8,0.3-3.5,1-5.1c0.7-1.5,1.7-2.9,3-4c1.3-1.1,2.9-2,4.8-2.6c1.9-0.6,4-0.9,6.4-0.9
					c3.4,0,6.4,0.4,9,1.3s5,2.2,7.2,3.9l-5.5,7.7c-1.8-1.3-3.7-2.2-5.5-2.9c-1.9-0.7-3.7-1-5.5-1c-1.3,0-2.3,0.2-3,0.7
					c-0.7,0.5-1,1.1-1,1.8v0.1c0,0.5,0.1,0.8,0.3,1.2c0.2,0.3,0.6,0.6,1.1,0.9c0.5,0.3,1.2,0.6,2.1,0.8c0.9,0.3,2,0.6,3.4,0.9
					c2.3,0.5,4.3,1.1,6.1,1.7c1.8,0.7,3.4,1.5,4.6,2.4c1.3,0.9,2.3,2.1,2.9,3.4c0.7,1.3,1,2.9,1,4.8v0.1c0,2-0.4,3.8-1.2,5.4
					c-0.8,1.6-1.9,2.9-3.2,4c-1.4,1.1-3.1,1.9-5,2.5C68.1,196.5,65.9,196.7,63.5,196.7z"/>
				<path id="XMLID_39_" class="st1" d="M95.2,156.6h11v39.4h-11V156.6z"/>
				<path id="XMLID_37_" class="st1" d="M120.9,156.6h31.7v9.3h-20.9v6h18.9v8.6h-18.9v6.3h21.2v9.3h-31.9V156.6z"/>
				<path id="XMLID_35_" class="st1" d="M177.5,166.2h-11.8v-9.6h34.6v9.6h-11.8v29.9h-10.9V166.2z"/>
				<path id="XMLID_33_" class="st1" d="M212.5,156.6h31.7v9.3h-20.9v6h18.9v8.6h-18.9v6.3h21.2v9.3h-31.9V156.6z"/>
			</g>
		</g>
		<g id="XMLID_29_">
			<rect id="XMLID_30_" x="21.5" y="216.7" class="st2" width="257" height="3.7"/>
		</g>
		<g id="XMLID_4_">
			<path id="XMLID_26_" class="st3" d="M52.5,260.5c0.9,0,1.4-0.2,1.7-0.5c0.3-0.3,0.5-0.9,0.5-1.8V247c0-1-0.2-1.6-0.6-1.9
				c-0.2-0.2-0.8-0.3-1.7-0.4v-0.6h8.1c1.7,0,3,0.2,4.1,0.5c2,0.7,3,2,3,3.9c0,1.4-0.5,2.5-1.6,3.2c-0.8,0.6-1.7,1-2.6,1.1l5.4,7.2
				c0.1,0.2,0.3,0.3,0.4,0.4c0.2,0.1,0.3,0.1,0.6,0.1v0.6h-5.3l-5.9-7.9h0v4.9c0,0.9,0.1,1.5,0.4,1.8c0.3,0.3,0.9,0.5,1.8,0.5v0.6
				h-8.5V260.5z M62.3,251.7c0.7-0.4,1.1-1.5,1.1-3c0-1-0.1-1.7-0.4-2.3c-0.5-1-1.3-1.4-2.6-1.4c-0.7,0-1.1,0.1-1.3,0.3
				c-0.2,0.2-0.3,0.4-0.3,0.8v6.4C60.4,252.4,61.6,252.2,62.3,251.7z"/>
			<path id="XMLID_24_" class="st3" d="M73.2,261.1v-0.6c0.7,0,1.2-0.1,1.5-0.3c0.5-0.3,0.7-0.8,0.7-1.5v-12.2
				c0-0.7-0.2-1.2-0.7-1.5c-0.3-0.2-0.8-0.3-1.5-0.3v-0.6h14.5v5.1h-0.6c-0.3-1.6-0.9-2.7-1.6-3.3c-0.8-0.6-2.2-0.9-4.2-0.9
				c-0.8,0-1.3,0.1-1.5,0.2c-0.2,0.2-0.3,0.5-0.3,1v5.8c1.4,0,2.4-0.2,2.9-0.8c0.5-0.5,0.9-1.5,1.2-2.9h0.6v8.5h-0.6
				c-0.2-1.4-0.5-2.4-1.1-3c-0.6-0.6-1.5-0.9-3-0.9v6.1c0,0.5,0.1,0.9,0.4,1.1c0.3,0.2,0.8,0.3,1.7,0.3c1.6,0,2.9-0.3,3.9-0.9
				c1-0.6,1.9-1.8,2.7-3.5H89l-1,5.2H73.2z"/>
			<path id="XMLID_22_" class="st3" d="M101,244.1v0.6c-0.9,0-1.5,0.1-1.8,0.2s-0.4,0.4-0.4,0.8c0,0.1,0,0.3,0,0.4s0.1,0.2,0.1,0.4
				l4,9.3h0l3.3-8.5c0.1-0.2,0.1-0.4,0.2-0.6c0.1-0.3,0.1-0.6,0.1-0.8c0-0.5-0.1-0.8-0.4-0.9c-0.3-0.1-0.9-0.2-1.7-0.3v-0.6h5.4v0.6
				c-0.6,0.1-1.1,0.2-1.4,0.5c-0.3,0.3-0.6,0.8-0.9,1.5l-5.8,14.8h-0.7l-6.5-15.1c-0.3-0.6-0.5-1-0.8-1.3c-0.3-0.3-0.7-0.4-1.3-0.5
				v-0.6H101z"/>
			<path id="XMLID_19_" class="st3" d="M128.5,246.2c1.7,1.7,2.6,3.9,2.6,6.5c0,2.7-0.9,4.8-2.6,6.5c-1.7,1.6-3.8,2.5-6.3,2.5
				c-2.7,0-4.9-0.9-6.6-2.7c-1.6-1.7-2.4-3.7-2.4-6.1c0-2.6,0.8-4.8,2.5-6.5c1.7-1.7,3.8-2.6,6.5-2.6
				C124.7,243.7,126.8,244.5,128.5,246.2z M126.1,257.4c0.4-1.2,0.6-2.8,0.6-4.8c0-2.7-0.4-4.7-1.2-6.1c-0.8-1.4-1.9-2-3.3-2
				c-1.9,0-3.2,1.1-3.9,3.4c-0.4,1.2-0.6,2.8-0.6,4.7c0,2,0.2,3.5,0.6,4.8c0.7,2.2,2,3.4,3.9,3.4
				C124.1,260.8,125.4,259.7,126.1,257.4z"/>
			<path id="XMLID_17_" class="st3" d="M135,260.5c0.7,0,1.2-0.1,1.5-0.3c0.5-0.3,0.8-0.8,0.8-1.5v-12.2c0-0.7-0.2-1.2-0.7-1.5
				c-0.3-0.2-0.8-0.3-1.5-0.3v-0.6h8.8v0.6c-1,0-1.7,0.2-2.1,0.4c-0.3,0.3-0.5,0.9-0.5,1.9V259c0,0.6,0.1,0.9,0.4,1.1
				c0.3,0.2,0.9,0.3,1.7,0.3c1.5,0,2.8-0.3,3.8-1c1-0.7,1.9-2,2.7-3.9h0.7l-1,5.7H135V260.5z"/>
			<path id="XMLID_15_" class="st3" d="M162.8,244.1v0.6c-1,0-1.6,0.2-2,0.5c-0.3,0.3-0.5,0.9-0.5,1.8v8.5c0,1.3,0.2,2.3,0.5,3
				c0.5,1.3,1.6,1.9,3.2,1.9c1.9,0,3.2-0.7,3.9-2.2c0.4-0.8,0.6-1.9,0.6-3.3v-7.7c0-0.9-0.2-1.5-0.5-1.9c-0.3-0.3-1-0.5-2-0.6v-0.6
				h5.5v0.6c-0.8,0.2-1.3,0.3-1.6,0.6c-0.3,0.2-0.4,0.7-0.4,1.6v8.1c0,2.1-0.5,3.8-1.6,5c-1,1.2-2.7,1.7-4.9,1.7
				c-2.9,0-4.9-0.9-5.9-2.6c-0.6-0.9-0.8-2.1-0.8-3.6V247c0-0.9-0.1-1.5-0.4-1.8c-0.3-0.2-0.8-0.4-1.7-0.5v-0.6H162.8z"/>
			<path id="XMLID_13_" class="st3" d="M187.6,244.4c1.1,0.4,1.7,0.6,1.8,0.6c0.3,0,0.6-0.1,0.8-0.4s0.3-0.5,0.4-0.8h0.7v5.9h-0.6
				c-0.6-1.3-1.2-2.3-1.9-3c-1.2-1.4-2.5-2-4-2c-1.7,0-2.9,0.7-3.6,2.2c-0.7,1.5-1.1,3.4-1.1,5.9c0,1.8,0.2,3.3,0.6,4.5
				c0.8,2.2,2.2,3.3,4.3,3.3c1.3,0,2.5-0.4,3.6-1.1c0.6-0.4,1.4-1.1,2.3-2l0.8,0.6c-1,1.1-1.9,1.9-2.6,2.4c-1.3,0.9-2.8,1.3-4.4,1.3
				c-2.5,0-4.6-0.7-6.3-2.2c-1.9-1.6-2.8-3.8-2.8-6.6c0-2.7,0.9-5,2.7-6.7c1.7-1.6,3.7-2.4,6.2-2.4
				C185.4,243.8,186.5,244,187.6,244.4z"/>
			<path id="XMLID_11_" class="st3" d="M195.8,260.5c0.7,0,1.2-0.1,1.5-0.3c0.5-0.3,0.8-0.8,0.8-1.5v-12.2c0-0.7-0.2-1.2-0.7-1.5
				c-0.3-0.2-0.8-0.2-1.6-0.3v-0.6h8.8v0.6c-0.8,0-1.3,0.1-1.6,0.3c-0.5,0.3-0.7,0.8-0.7,1.5v12.2c0,0.7,0.2,1.2,0.6,1.4
				c0.4,0.2,1,0.4,1.8,0.4v0.6h-8.8V260.5z"/>
			<path id="XMLID_7_" class="st3" d="M223.8,246.2c1.7,1.7,2.6,3.9,2.6,6.5c0,2.7-0.9,4.8-2.6,6.5c-1.7,1.6-3.8,2.5-6.3,2.5
				c-2.7,0-4.9-0.9-6.6-2.7c-1.6-1.7-2.4-3.7-2.4-6.1c0-2.6,0.8-4.8,2.5-6.5c1.7-1.7,3.8-2.6,6.5-2.6
				C220,243.7,222.1,244.5,223.8,246.2z M221.4,257.4c0.4-1.2,0.6-2.8,0.6-4.8c0-2.7-0.4-4.7-1.2-6.1c-0.8-1.4-1.9-2-3.3-2
				c-1.9,0-3.2,1.1-3.9,3.4c-0.4,1.2-0.6,2.8-0.6,4.7c0,2,0.2,3.5,0.6,4.8c0.7,2.2,2,3.4,3.9,3.4
				C219.4,260.8,220.7,259.7,221.4,257.4z M220.9,239.5c-0.2,0.2-0.4,0.4-0.7,0.6l-3.4,2.2h-1.3l3.3-4c0.1-0.2,0.3-0.3,0.4-0.4
				c0.3-0.2,0.6-0.3,0.9-0.3c0.3,0,0.6,0.1,0.8,0.3c0.2,0.2,0.3,0.5,0.3,0.8C221.1,239.1,221,239.3,220.9,239.5z"/>
			<path id="XMLID_5_" class="st3" d="M230.3,260.5c0.9,0,1.5-0.2,1.8-0.5c0.3-0.3,0.4-0.8,0.4-1.5v-11.9c-0.8-0.9-1.2-1.4-1.4-1.5
				c-0.2-0.2-0.4-0.2-0.7-0.3v-0.6h5.3l8.7,10.5h0.1v-7.4c0-0.9-0.2-1.5-0.5-1.8c-0.3-0.4-0.9-0.6-1.9-0.7v-0.6h5.4v0.6
				c-0.8,0.1-1.3,0.3-1.6,0.5c-0.3,0.2-0.4,0.7-0.4,1.5v14.9h-0.7l-11.1-13.5h-0.2v9.9c0,0.8,0.1,1.3,0.3,1.6c0.3,0.5,1,0.8,2.1,0.8
				v0.6h-5.7V260.5z"/>
		</g>
	</g>
</g>
</svg>
