<svg xmlns="http://www.w3.org/2000/svg" viewBox="0 0 46 46"><defs><style>.cls-1{fill:#0a4986;}.cls-2{fill:#fff;}</style></defs><title>facebook</title><g id="Layer_2" data-name="Layer 2"><g id="Layer_1-2" data-name="Layer 1"><path class="cls-1" d="M11.5,0h23A11.5,11.5,0,0,1,46,11.5V46a0,0,0,0,1,0,0H0a0,0,0,0,1,0,0V11.5A11.5,11.5,0,0,1,11.5,0Z" transform="translate(0 46) rotate(-90)"/><path id="_Path_" data-name="&lt;Path&gt;" class="cls-2" d="M24.8,18.22v-1.9a1,1,0,0,1,1-1.1h2.6v-4H24.8a4.64,4.64,0,0,0-5,4.9v2.1H17.5v4.7h2.4v11.8h4.7V22.92h3.5l.2-1.8.3-2.9Z"/></g></g></svg>