<svg xmlns="http://www.w3.org/2000/svg" viewBox="0 0 235.02 103.2"><defs><style>.cls-1{fill:#9c9b9b;}</style></defs><title>ficade-logo</title><g id="Layer_2" data-name="Layer 2"><g id="Layer_1-2" data-name="Layer 1"><g id="_Group_" data-name="&lt;Group&gt;"><polygon id="_Path_" data-name="&lt;Path&gt;" class="cls-1" points="116.25 0 116.25 6.76 93.76 15.42 93.76 11.25 116.25 0"/><polygon id="_Path_2" data-name="&lt;Path&gt;" class="cls-1" points="116.25 11.8 116.25 19.04 93.76 25.17 93.76 19.9 116.25 11.8"/><polygon id="_Path_3" data-name="&lt;Path&gt;" class="cls-1" points="116.25 23.75 116.25 30.52 93.76 33.27 93.76 28.55 116.25 23.75"/><polygon id="_Path_4" data-name="&lt;Path&gt;" class="cls-1" points="116.25 35.79 116.25 42.47 93.76 43.34 93.76 37.44 116.25 35.79"/><polygon id="_Path_5" data-name="&lt;Path&gt;" class="cls-1" points="88.64 14.24 88.64 18.88 73.15 24.86 73.15 21.95 88.64 14.24"/><polygon id="_Path_6" data-name="&lt;Path&gt;" class="cls-1" points="88.64 22.34 88.64 27.37 73.15 31.54 73.15 27.92 88.64 22.34"/><polygon id="_Path_7" data-name="&lt;Path&gt;" class="cls-1" points="88.64 30.6 88.64 35.24 73.15 37.13 73.15 33.9 88.64 30.6"/><polygon id="_Path_8" data-name="&lt;Path&gt;" class="cls-1" points="88.64 38.93 88.64 43.5 73.15 44.13 73.15 40.04 88.64 38.93"/><polygon id="_Path_9" data-name="&lt;Path&gt;" class="cls-1" points="88.64 14.24 88.64 18.88 73.15 24.86 73.15 21.95 88.64 14.24"/><polygon id="_Path_10" data-name="&lt;Path&gt;" class="cls-1" points="88.64 22.34 88.64 27.37 73.15 31.54 73.15 27.92 88.64 22.34"/><polygon id="_Path_11" data-name="&lt;Path&gt;" class="cls-1" points="88.64 30.6 88.64 35.24 73.15 37.13 73.15 33.9 88.64 30.6"/><polygon id="_Path_12" data-name="&lt;Path&gt;" class="cls-1" points="88.64 38.93 88.64 43.5 73.15 44.13 73.15 40.04 88.64 38.93"/><polygon id="_Path_13" data-name="&lt;Path&gt;" class="cls-1" points="68.43 24.46 68.43 27.53 57.97 31.62 57.97 29.65 68.43 24.46"/><polygon id="_Path_14" data-name="&lt;Path&gt;" class="cls-1" points="68.43 29.89 68.43 33.27 57.97 36.1 57.97 33.66 68.43 29.89"/><polygon id="_Path_15" data-name="&lt;Path&gt;" class="cls-1" points="68.43 35.47 68.43 38.62 57.97 39.88 57.97 37.68 68.43 35.47"/><polygon id="_Path_16" data-name="&lt;Path&gt;" class="cls-1" points="68.43 41.06 68.43 44.2 57.97 44.6 57.97 41.84 68.43 41.06"/><polygon id="_Path_17" data-name="&lt;Path&gt;" class="cls-1" points="117.51 0 117.51 6.76 139.93 15.42 139.93 11.25 117.51 0"/><polygon id="_Path_18" data-name="&lt;Path&gt;" class="cls-1" points="117.51 11.8 117.51 19.04 139.93 25.17 139.93 19.9 117.51 11.8"/><polygon id="_Path_19" data-name="&lt;Path&gt;" class="cls-1" points="117.51 23.75 117.51 30.52 139.93 33.27 139.93 28.55 117.51 23.75"/><polygon id="_Path_20" data-name="&lt;Path&gt;" class="cls-1" points="117.51 35.79 117.51 42.47 139.93 43.34 139.93 37.44 117.51 35.79"/><polygon id="_Path_21" data-name="&lt;Path&gt;" class="cls-1" points="145.12 14.24 145.12 18.88 160.61 24.86 160.61 21.95 145.12 14.24"/><polygon id="_Path_22" data-name="&lt;Path&gt;" class="cls-1" points="145.12 22.34 145.12 27.37 160.61 31.54 160.61 27.92 145.12 22.34"/><polygon id="_Path_23" data-name="&lt;Path&gt;" class="cls-1" points="145.12 30.6 145.12 35.24 160.61 37.13 160.61 33.9 145.12 30.6"/><polygon id="_Path_24" data-name="&lt;Path&gt;" class="cls-1" points="145.12 38.93 145.12 43.5 160.61 44.13 160.61 40.04 145.12 38.93"/><polygon id="_Path_25" data-name="&lt;Path&gt;" class="cls-1" points="145.12 14.24 145.12 18.88 160.61 24.86 160.61 21.95 145.12 14.24"/><polygon id="_Path_26" data-name="&lt;Path&gt;" class="cls-1" points="145.12 22.34 145.12 27.37 160.61 31.54 160.61 27.92 145.12 22.34"/><polygon id="_Path_27" data-name="&lt;Path&gt;" class="cls-1" points="145.12 30.6 145.12 35.24 160.61 37.13 160.61 33.9 145.12 30.6"/><polygon id="_Path_28" data-name="&lt;Path&gt;" class="cls-1" points="145.12 38.93 145.12 43.5 160.61 44.13 160.61 40.04 145.12 38.93"/><polygon id="_Path_29" data-name="&lt;Path&gt;" class="cls-1" points="165.33 24.46 165.33 27.53 175.79 31.62 175.79 29.65 165.33 24.46"/><polygon id="_Path_30" data-name="&lt;Path&gt;" class="cls-1" points="165.33 29.89 165.33 33.27 175.79 36.1 175.79 33.66 165.33 29.89"/><polygon id="_Path_31" data-name="&lt;Path&gt;" class="cls-1" points="165.33 35.47 165.33 38.62 175.79 39.88 175.79 37.68 165.33 35.47"/><polygon id="_Path_32" data-name="&lt;Path&gt;" class="cls-1" points="165.33 41.06 165.33 44.2 175.79 44.6 175.79 41.84 165.33 41.06"/><path id="_Path_33" data-name="&lt;Path&gt;" class="cls-1" d="M6.76,88.64v-38H.24V49.08H35.08l.55,12.43H34.22a32.92,32.92,0,0,0-1.11-4.25A9.2,9.2,0,0,0,30,52.15c-1.42-1-3.7-1.5-7-1.5H14V68.43h1.73A19.85,19.85,0,0,0,20,68,4.87,4.87,0,0,0,22.73,66a10.57,10.57,0,0,0,1.42-5.27h1.57V78.1H24.15a13.11,13.11,0,0,0-1.26-5.66,3.86,3.86,0,0,0-2.52-2.12,21.56,21.56,0,0,0-4.64-.4H14V88.64h7.24v1.58H.16V88.64Z"/><polygon id="_Path_34" data-name="&lt;Path&gt;" class="cls-1" points="47.27 88.64 47.27 50.65 40.51 50.65 40.51 49.08 61.43 49.08 61.43 50.65 54.59 50.65 54.59 88.64 61.43 88.64 61.43 90.22 40.51 90.22 40.51 88.64 47.27 88.64"/><path id="_Path_35" data-name="&lt;Path&gt;" class="cls-1" d="M97.85,48.69V60.88H96.51c-1.42-7.39-5.19-11.09-11.17-11.09a7.65,7.65,0,0,0-7.08,3.77c-1.49,2.52-2.2,7.79-2.2,15.89,0,6.61.31,11.17.94,13.53a8.34,8.34,0,0,0,3.31,5.11,9.3,9.3,0,0,0,5.19,1.58,10.6,10.6,0,0,0,6.92-2.76c2.2-1.88,3.85-4.79,5-8.88h1.42l-.47,12.5H97.14a7.43,7.43,0,0,0-2.2-3.3,15.67,15.67,0,0,1-10,4c-4.33,0-8.34-2-12-6.14A22,22,0,0,1,67.56,70a23.11,23.11,0,0,1,5.27-15.41c3.54-4.25,7.63-6.3,12.27-6.3a13.32,13.32,0,0,1,9.44,3.86,23.3,23.3,0,0,0,1.81-3.31h1.5Z"/><path id="_Compound_Path_" data-name="&lt;Compound Path&gt;" class="cls-1" d="M115.86,75.82h12L122,59.38h-.15Zm12.51,1.58H115.23L111,88.64h7.63v1.58H103.67V88.64h5.66l15.1-40.5h.95l14.47,40.5h5.5v1.58H125.69V88.64h6.69Z"/><path id="_Compound_Path_2" data-name="&lt;Compound Path&gt;" class="cls-1" d="M163.21,50.65v38h5.35a24.33,24.33,0,0,0,6.92-.78,7.84,7.84,0,0,0,4.4-3.31A15.21,15.21,0,0,0,182.24,78a70.25,70.25,0,0,0,.63-10.31c0-5.11-.63-8.89-2-11.4s-2.91-4.09-4.8-4.64a23.77,23.77,0,0,0-7.39-1h-5.51Zm-7.32,38v-38h-6.45V49.08H169A30.88,30.88,0,0,1,180,50.89a15.59,15.59,0,0,1,7.71,7.16,22.65,22.65,0,0,1,3.07,11.56,21,21,0,0,1-3.38,11.8c-2.29,3.46-4.88,5.82-7.79,7a28.84,28.84,0,0,1-10.78,1.81H149.44V88.64Z"/><path id="_Path_36" data-name="&lt;Path&gt;" class="cls-1" d="M211.82,50.65V68.27h3.7a12.53,12.53,0,0,0,3.3-.39,4.28,4.28,0,0,0,2.44-2,10.74,10.74,0,0,0,1.26-5.27h1.57V78h-1.57c-.16-3.31-.79-5.51-1.89-6.53a7.36,7.36,0,0,0-5.11-1.57h-3.7V88.64h8.41c4.8,0,8.11-1,9.92-3s2.91-5,3.3-9.21H235l-.39,13.77H198V88.64h6.52v-38H198V49.08h35.15l.71,11h-1.57c-.55-3.3-1.65-5.74-3.3-7.23s-4.41-2.21-8.34-2.21Z"/><rect id="_Path_37" data-name="&lt;Path&gt;" class="cls-1" y="93.52" width="234.39" height="0.79"/><path id="_Path_38" data-name="&lt;Path&gt;" class="cls-1" d="M1.73,97.77V100h1a.63.63,0,0,0,.47-.16,1.68,1.68,0,0,0,.24-.63h.16v1.89H3.46c0-.23,0-.39-.08-.47l-.23-.24a.67.67,0,0,0-.4-.07h-1V102c0,.31,0,.47.08.55a.16.16,0,0,0,.16.15.67.67,0,0,0,.39.08H2.6V103H.24v-.16H.39a.5.5,0,0,0,.48-.23,1.33,1.33,0,0,0,.07-.63V98.4c0-.32,0-.47-.07-.55a.17.17,0,0,0-.16-.16.6.6,0,0,0-.4-.08H.16v-.16H4.33l.07,1.18H4.25A2,2,0,0,0,4,98.08a.42.42,0,0,0-.31-.23,1.35,1.35,0,0,0-.63-.08Z"/><path id="_Compound_Path_3" data-name="&lt;Compound Path&gt;" class="cls-1" d="M7.71,97.69a1.42,1.42,0,0,0-1.18.55A3,3,0,0,0,6,100.29a3.42,3.42,0,0,0,.55,2.12,1.42,1.42,0,0,0,1.18.55A1.55,1.55,0,0,0,9,102.33a3,3,0,0,0,.47-1.89,3.27,3.27,0,0,0-.55-2.12,1.17,1.17,0,0,0-1.18-.63m.08-.31a2.55,2.55,0,0,1,1.88.78,2.76,2.76,0,0,1,.79,2,2.81,2.81,0,0,1-.79,2.12,2.68,2.68,0,0,1-2,.87,2.62,2.62,0,0,1-2-.79A2.84,2.84,0,0,1,5,100.29a2.69,2.69,0,0,1,.94-2.13,2.55,2.55,0,0,1,1.89-.78"/><path id="_Path_39" data-name="&lt;Path&gt;" class="cls-1" d="M14.24,103,12.11,98.4v3.69c0,.32,0,.56.08.63a.67.67,0,0,0,.47.16h.16V103h-2v-.16H11a.47.47,0,0,0,.47-.23c.08-.08.08-.32.08-.63V98.4a1.12,1.12,0,0,0-.08-.55c0-.08-.07-.16-.23-.24s-.24-.08-.47-.08v-.15h1.57l2,4.32,2-4.32h1.57v.15h-.15a.48.48,0,0,0-.48.24,1.31,1.31,0,0,0-.07.63V102a1.33,1.33,0,0,0,.07.63.73.73,0,0,0,.48.15h.15V103H15.57v-.16h.16a.48.48,0,0,0,.47-.23c.08-.08.08-.32.08-.63v-3.7l-2.12,4.64h.08Z"/><path id="_Path_40" data-name="&lt;Path&gt;" class="cls-1" d="M20.06,97.77V100h1.26a1,1,0,0,0,.62-.16.75.75,0,0,0,.24-.63h.16v2h-.16a4.27,4.27,0,0,0-.08-.55l-.23-.24a1.14,1.14,0,0,0-.55-.07H20.06v2.28c0,.08.08.08.08.15s.15.08.31.08h.94a1.72,1.72,0,0,0,.71-.08,1.46,1.46,0,0,0,.4-.23,5.19,5.19,0,0,0,.55-.79h.15l-.47,1.42H18.41V103h.15a.72.72,0,0,0,.4-.08c.07-.08.15-.08.15-.16a2.55,2.55,0,0,0,.08-.55V98.55c0-.31,0-.55-.08-.62a.65.65,0,0,0-.47-.16h-.16v-.16h4.33l.08,1.18h-.16a3.35,3.35,0,0,1-.16-.63.8.8,0,0,0-.31-.23c-.08-.08-.32-.08-.55-.08H20.06Z"/><path id="_Path_41" data-name="&lt;Path&gt;" class="cls-1" d="M23.28,97.45h1.5l3.38,4.17V98.4c0-.32,0-.55-.08-.63a.67.67,0,0,0-.47-.16h-.16v-.16h2v.16h-.16a.47.47,0,0,0-.47.24c-.08.08-.08.31-.08.63v4.64h-.16l-3.69-4.49V102a1.33,1.33,0,0,0,.07.63.73.73,0,0,0,.48.15h.23V103h-2v-.16h.15a.47.47,0,0,0,.47-.23c.08-.08.08-.32.08-.63V98.08L24,97.69c-.08-.08-.24-.08-.39-.16h-.4v-.08Z"/><path id="_Path_42" data-name="&lt;Path&gt;" class="cls-1" d="M34.37,97.45l.08,1.34h-.16a.67.67,0,0,0-.15-.47c-.08-.16-.24-.24-.32-.32a1.29,1.29,0,0,0-.55-.07h-.79v4.24c0,.32,0,.55.08.63A.68.68,0,0,0,33,103h.15v.16H30.83V103h.24a.48.48,0,0,0,.47-.24c.08-.07.08-.31.08-.63V97.85h-.71c-.23,0-.47,0-.55.08a1.09,1.09,0,0,0-.39.31,1.23,1.23,0,0,0-.16.63h-.16l.08-1.34h4.64Z"/><path id="_Compound_Path_4" data-name="&lt;Compound Path&gt;" class="cls-1" d="M37.44,97.69a1.42,1.42,0,0,0-1.18.55,3,3,0,0,0-.55,2.05,3.42,3.42,0,0,0,.55,2.12,1.42,1.42,0,0,0,1.18.55,1.55,1.55,0,0,0,1.26-.63,3,3,0,0,0,.55-1.89,3.27,3.27,0,0,0-.55-2.12,1.36,1.36,0,0,0-1.26-.63m.08-.31a2.55,2.55,0,0,1,1.89.78,2.79,2.79,0,0,1,.78,2,2.84,2.84,0,0,1-.78,2.12,2.69,2.69,0,0,1-2,.87,2.62,2.62,0,0,1-2-.79,2.84,2.84,0,0,1-.78-2.12,2.69,2.69,0,0,1,.94-2.13,2.55,2.55,0,0,1,1.89-.78"/><path id="_Path_43" data-name="&lt;Path&gt;" class="cls-1" d="M47.19,102.88V103H44.83v-.16h.24a.48.48,0,0,0,.47-.23c.08-.08.08-.32.08-.63V98.48c0-.32,0-.48-.08-.55a.17.17,0,0,0-.16-.16.67.67,0,0,0-.39-.08h-.24v-.16h2.36v.16h-.23a.47.47,0,0,0-.47.24c-.08.07-.08.31-.08.62v3.54c0,.32,0,.48.08.56a.17.17,0,0,0,.15.15.6.6,0,0,0,.4.08Z"/><path id="_Path_44" data-name="&lt;Path&gt;" class="cls-1" d="M47.27,97.45h1.5l3.38,4.17V98.4c0-.32,0-.55-.08-.63a.67.67,0,0,0-.47-.16h-.16v-.16h2v.16h-.16a.47.47,0,0,0-.47.24c-.08.08-.08.31-.08.63v4.64h-.16l-3.7-4.49V102c0,.31,0,.55.08.63a.73.73,0,0,0,.48.15h.23V103h-2v-.16h.15a.47.47,0,0,0,.47-.23c.08-.08.08-.32.08-.63V98.08L48,97.69c-.08-.08-.24-.08-.39-.16h-.4v-.08Z"/><path id="_Path_45" data-name="&lt;Path&gt;" class="cls-1" d="M56.87,103,54.74,98.4v3.69c0,.32,0,.56.08.63a.67.67,0,0,0,.47.16h.16V103h-2v-.16h.15a.47.47,0,0,0,.47-.23c.08-.08.08-.32.08-.63V98.4a1.12,1.12,0,0,0-.08-.55c0-.08-.07-.16-.23-.24s-.24-.08-.47-.08v-.15H55L57,101.7l2-4.32h1.57v.15h-.15a.46.46,0,0,0-.47.24c-.08.08-.08.31-.08.63V102c0,.31,0,.55.08.63a.68.68,0,0,0,.47.15h.15V103H58.2v-.16h.16a.47.47,0,0,0,.47-.23c.08-.08.08-.32.08-.63v-3.7l-2.12,4.64h.08Z"/><path id="_Compound_Path_5" data-name="&lt;Compound Path&gt;" class="cls-1" d="M64,97.69a1.41,1.41,0,0,0-1.18.55,3,3,0,0,0-.55,2.05,3.36,3.36,0,0,0,.55,2.12A1.41,1.41,0,0,0,64,103a1.55,1.55,0,0,0,1.26-.63,3,3,0,0,0,.47-1.89,3.27,3.27,0,0,0-.55-2.12A1.17,1.17,0,0,0,64,97.69m.08-.31a2.55,2.55,0,0,1,1.88.78,2.8,2.8,0,0,1,.79,2,2.85,2.85,0,0,1-.79,2.12,2.68,2.68,0,0,1-2,.87,2.62,2.62,0,0,1-2-.79,2.85,2.85,0,0,1-.79-2.12,2.7,2.7,0,0,1,1-2.13A2.55,2.55,0,0,1,64,97.38"/><path id="_Compound_Path_6" data-name="&lt;Compound Path&gt;" class="cls-1" d="M68.74,102.65a4.35,4.35,0,0,0,1,.07,1.52,1.52,0,0,0,1.1-.31,1.08,1.08,0,0,0,.39-.79A2.14,2.14,0,0,0,71,101a.86.86,0,0,0-.55-.47,3.48,3.48,0,0,0-1-.16h-.78v2.29Zm0-2.68a.48.48,0,0,1,.32.08h.39a2.09,2.09,0,0,0,.87-.16.82.82,0,0,0,.47-.39A1.44,1.44,0,0,0,71,99a1.26,1.26,0,0,0-.4-.87,1.65,1.65,0,0,0-1.18-.31,1.87,1.87,0,0,0-.7.08V100Zm2.13.24a1.72,1.72,0,0,1,.86.39,1.3,1.3,0,0,1,.4.94,1.51,1.51,0,0,1-.24.79,1.24,1.24,0,0,1-.71.55,5.68,5.68,0,0,1-1.41.16h-2.6v-.16h.24a.49.49,0,0,0,.47-.23c.08-.08.08-.32.08-.63V98.48c0-.32,0-.55-.08-.63a.67.67,0,0,0-.47-.16h-.24v-.16h2.44a4.41,4.41,0,0,1,1.1.08,1.47,1.47,0,0,1,.94.55A1.18,1.18,0,0,1,72,99a1.06,1.06,0,0,1-.24.7,1.52,1.52,0,0,1-.86.48"/><path id="_Path_46" data-name="&lt;Path&gt;" class="cls-1" d="M75.19,102.88V103H72.83v-.16h.24a.48.48,0,0,0,.47-.23c.08-.08.08-.32.08-.63V98.48c0-.32,0-.48-.08-.55a.17.17,0,0,0-.15-.16.72.72,0,0,0-.4-.08h-.23v-.16h2.36v.16H75a.46.46,0,0,0-.47.24c-.08.07-.08.31-.08.62v3.54c0,.32,0,.48.08.56a.16.16,0,0,0,.15.15.72.72,0,0,0,.4.08Z"/><path id="_Path_47" data-name="&lt;Path&gt;" class="cls-1" d="M80.23,101.47h.16L79.91,103H75.59v-.16h.23a.5.5,0,0,0,.48-.23,1.33,1.33,0,0,0,.07-.63V98.4a1.31,1.31,0,0,0-.07-.63.68.68,0,0,0-.48-.16h-.23v-.16H78.1v.16a1.28,1.28,0,0,0-.62.08c-.08.08-.24.16-.24.24s-.08.31-.08.62V102c0,.23,0,.39.08.47s.08.08.16.16h1a2.36,2.36,0,0,0,.86-.08,1.67,1.67,0,0,0,.48-.32c.23-.16.31-.39.47-.78"/><path id="_Path_48" data-name="&lt;Path&gt;" class="cls-1" d="M83.14,102.88V103H80.78v-.16H81a.5.5,0,0,0,.48-.23c.08-.08.08-.32.08-.63V98.48c0-.32,0-.48-.08-.55a.17.17,0,0,0-.16-.16.7.7,0,0,0-.39-.08H80.7v-.16h2.36v.16h-.24a.48.48,0,0,0-.47.24c-.08.07-.08.31-.08.62v3.54c0,.32,0,.48.08.56a.17.17,0,0,0,.16.15.58.58,0,0,0,.39.08Z"/><path id="_Compound_Path_7" data-name="&lt;Compound Path&gt;" class="cls-1" d="M87.07,100.91l-.94-2.2-.95,2.2Zm.16.24H85.1l-.39.87a2.81,2.81,0,0,0-.16.47c0,.08,0,.16.16.23s.24.08.55.16V103H83.53v-.16a.63.63,0,0,0,.47-.16,2.19,2.19,0,0,0,.48-.78l2-4.56h.16l2,4.64a2.09,2.09,0,0,0,.39.7,1.12,1.12,0,0,0,.55.16V103h-2.2v-.16a2.85,2.85,0,0,0,.47-.08.27.27,0,0,0,.08-.23,1.89,1.89,0,0,0-.16-.55Z"/><path id="_Compound_Path_8" data-name="&lt;Compound Path&gt;" class="cls-1" d="M91.16,100.21h.24a1.62,1.62,0,0,0,1.18-.32A1.27,1.27,0,0,0,93,99a1.21,1.21,0,0,0-.31-.87,1.11,1.11,0,0,0-.87-.31,1.93,1.93,0,0,0-.63.08ZM95.09,103H93.6l-1.89-2.6h-.55V102c0,.31,0,.55.08.63a.72.72,0,0,0,.47.15H92V103H89.59v-.16h.23a.5.5,0,0,0,.48-.23,1.33,1.33,0,0,0,.07-.63V98.4a1.31,1.31,0,0,0-.07-.63c-.08-.16-.24-.16-.48-.16h-.23v-.16h2a5,5,0,0,1,1.34.16,1.17,1.17,0,0,1,.71.47,1,1,0,0,1,.31.79,1.19,1.19,0,0,1-.31.86,2.5,2.5,0,0,1-1,.56l1.18,1.57a1.52,1.52,0,0,0,.7.71c.16.15.48.15.71.23V103Z"/><path id="_Path_49" data-name="&lt;Path&gt;" class="cls-1" d="M97.69,102.88V103H95.33v-.16h.24a.49.49,0,0,0,.47-.23c.08-.08.08-.32.08-.63V98.48c0-.32,0-.48-.08-.55a.17.17,0,0,0-.16-.16.7.7,0,0,0-.39-.08h-.24v-.16h2.36v.16h-.23a.48.48,0,0,0-.48.24c-.08.07-.08.31-.08.62v3.54c0,.32,0,.48.08.56a.17.17,0,0,0,.16.15.58.58,0,0,0,.39.08Z"/><path id="_Compound_Path_9" data-name="&lt;Compound Path&gt;" class="cls-1" d="M100.84,97.69a1.41,1.41,0,0,0-1.18.55,3,3,0,0,0-.55,2.05,3.36,3.36,0,0,0,.55,2.12,1.41,1.41,0,0,0,1.18.55,1.52,1.52,0,0,0,1.25-.63,3,3,0,0,0,.56-1.89,3.21,3.21,0,0,0-.56-2.12,1.34,1.34,0,0,0-1.25-.63m.07-.31a2.55,2.55,0,0,1,1.89.78,2.8,2.8,0,0,1,.79,2,2.85,2.85,0,0,1-.79,2.12,2.68,2.68,0,0,1-2,.87,2.62,2.62,0,0,1-2-.79,2.85,2.85,0,0,1-.79-2.12,2.7,2.7,0,0,1,1-2.13,2.55,2.55,0,0,1,1.88-.78"/><path id="_Compound_Path_10" data-name="&lt;Compound Path&gt;" class="cls-1" d="M109.72,102.65a4,4,0,0,0,.87.07,2.16,2.16,0,0,0,1.57-.63,2.9,2.9,0,0,0,0-3.61,2,2,0,0,0-1.65-.63,3.4,3.4,0,0,0-.86.08v4.72Zm-1.57.39v-.16h.24a.49.49,0,0,0,.47-.23c.08-.08.08-.32.08-.63V98.48c0-.32,0-.55-.08-.63s-.24-.16-.47-.16h-.24v-.16h2.28a3.82,3.82,0,0,1,1.89.32,1.69,1.69,0,0,1,1,.94,3.2,3.2,0,0,1,.4,1.5,2.88,2.88,0,0,1-.71,2,3.29,3.29,0,0,1-2.44.87h-2.44Z"/><path id="_Path_50" data-name="&lt;Path&gt;" class="cls-1" d="M115.78,97.77V100H117a1,1,0,0,0,.63-.16.75.75,0,0,0,.23-.63h.16v2h-.16a4.84,4.84,0,0,0-.07-.55l-.24-.24a1.14,1.14,0,0,0-.55-.07h-1.26v2.28c0,.08.08.08.08.15s.16.08.31.08h1a1.75,1.75,0,0,0,.71-.08,1.54,1.54,0,0,0,.39-.23,4.55,4.55,0,0,0,.55-.79h.16l-.48,1.42h-4.32V103h.16a.7.7,0,0,0,.39-.08c.08-.08.16-.08.16-.16a2.55,2.55,0,0,0,.08-.55V98.55c0-.31,0-.55-.08-.62a.68.68,0,0,0-.48-.16h-.15v-.16h4.32l.08,1.18h-.16a4.05,4.05,0,0,1-.15-.63.94.94,0,0,0-.32-.23c-.08-.08-.31-.08-.55-.08h-1.65Z"/><path id="_Path_51" data-name="&lt;Path&gt;" class="cls-1" d="M128.29,97.38l.15,1.88h-.15a2.22,2.22,0,0,0-.71-1.18,1.94,1.94,0,0,0-1.1-.39,1.58,1.58,0,0,0-1,.31,1.57,1.57,0,0,0-.71.87,4.16,4.16,0,0,0-.24,1.49,3.59,3.59,0,0,0,.24,1.34,1.9,1.9,0,0,0,.71.87,1.82,1.82,0,0,0,1.1.31,1.74,1.74,0,0,0,.94-.23,5.19,5.19,0,0,0,.94-1l.16.08a4.47,4.47,0,0,1-.94,1.1,2.4,2.4,0,0,1-1.34.32,2.35,2.35,0,0,1-2.12-1,2.72,2.72,0,0,1-.55-1.81,3.18,3.18,0,0,1,.39-1.49,3.47,3.47,0,0,1,1-1.1,3.16,3.16,0,0,1,1.42-.39,2.2,2.2,0,0,1,1.18.31.27.27,0,0,0,.23.08c.08,0,.16,0,.16-.08a.41.41,0,0,0,.16-.31Z"/><path id="_Compound_Path_11" data-name="&lt;Compound Path&gt;" class="cls-1" d="M132.61,100.91l-.94-2.2-.95,2.2Zm.08.24h-2.12l-.4.87a3.61,3.61,0,0,0-.15.47c0,.08.08.16.15.23s.24.08.55.16V103h-1.8v-.16a.67.67,0,0,0,.47-.16,2.19,2.19,0,0,0,.47-.78l2-4.56H132l2,4.64a2.29,2.29,0,0,0,.39.7,1.15,1.15,0,0,0,.55.16V103h-2.2v-.16a2.65,2.65,0,0,0,.47-.08.27.27,0,0,0,.08-.23,1.89,1.89,0,0,0-.16-.55Z"/><path id="_Path_52" data-name="&lt;Path&gt;" class="cls-1" d="M138.75,97.38v1.88h-.16a6.08,6.08,0,0,0-.24-.86,1.61,1.61,0,0,0-.55-.55,1.13,1.13,0,0,0-.7-.16,1,1,0,0,0-1,.79,1.14,1.14,0,0,0,.16.47,3.32,3.32,0,0,0,1.18.78c.55.32.87.48,1.1.63a3.29,3.29,0,0,1,.47.55,1.89,1.89,0,0,1,.16.63,1.59,1.59,0,0,1-.47,1.11,1.82,1.82,0,0,1-1.26.47h-.47c-.08,0-.24-.08-.55-.16l-.47-.16c-.08,0-.16,0-.16.08s-.08.16-.08.24h-.16v-1.89h.16a1.87,1.87,0,0,0,.31.86c.16.16.32.4.56.48a1.56,1.56,0,0,0,.78.23,1.22,1.22,0,0,0,.79-.23.74.74,0,0,0,.31-.63.6.6,0,0,0-.08-.4,1.29,1.29,0,0,0-.31-.39c-.08-.08-.39-.24-.87-.55a8.88,8.88,0,0,1-1-.63,1.68,1.68,0,0,1-.47-.55,1.46,1.46,0,0,1-.16-.63,1.39,1.39,0,0,1,.47-1,1.53,1.53,0,0,1,1.18-.39,2.08,2.08,0,0,1,1,.23.58.58,0,0,0,.31.08c.08,0,.16,0,.16-.08s.08-.16.08-.23Z"/><path id="_Compound_Path_12" data-name="&lt;Compound Path&gt;" class="cls-1" d="M143.31,100.91l-.94-2.2-1,2.2Zm.16.24h-2.13L141,102a2.81,2.81,0,0,0-.16.47c0,.08.08.16.16.23s.24.08.55.16V103h-1.73v-.16a.65.65,0,0,0,.47-.16,2.06,2.06,0,0,0,.47-.78l2-4.56h0l2,4.64a2.09,2.09,0,0,0,.39.7,1.12,1.12,0,0,0,.55.16V103h-2.2v-.16a2.85,2.85,0,0,0,.47-.08.27.27,0,0,0,.08-.23,1.89,1.89,0,0,0-.16-.55Z"/><path id="_Path_53" data-name="&lt;Path&gt;" class="cls-1" d="M149.52,97.38v1.88h-.15a6.08,6.08,0,0,0-.24-.86,1.7,1.7,0,0,0-.55-.55,1.16,1.16,0,0,0-.71-.16,1,1,0,0,0-.71.24,1,1,0,0,0-.31.55A1.14,1.14,0,0,0,147,99a3.22,3.22,0,0,0,1.18.78c.55.32.86.48,1.1.63a4.6,4.6,0,0,1,.47.55,1.89,1.89,0,0,1,.16.63,1.56,1.56,0,0,1-.48,1.11,1.65,1.65,0,0,1-1.25.47h-.48c-.07,0-.23-.08-.55-.16l-.47-.16c-.08,0-.16,0-.16.08a.32.32,0,0,0-.07.24h-.16v-1.89h.16a1.67,1.67,0,0,0,.31.86c.16.16.32.4.55.48a1.59,1.59,0,0,0,.79.23,1.19,1.19,0,0,0,.78-.23.72.72,0,0,0,.32-.63.6.6,0,0,0-.08-.4,1.7,1.7,0,0,0-.31-.39c-.08-.08-.4-.24-.87-.55a8.07,8.07,0,0,1-1-.63,1.51,1.51,0,0,1-.63-1.18,1.39,1.39,0,0,1,.47-1,1.53,1.53,0,0,1,1.18-.39,2,2,0,0,1,.94.23.6.6,0,0,0,.32.08c.08,0,.16,0,.16-.08s.07-.16.07-.23Z"/><path id="_Path_54" data-name="&lt;Path&gt;" class="cls-1" d="M157.78,97.45h2v.16h-.08a.56.56,0,0,0-.31.08c-.16.08-.24.16-.4.24a4.39,4.39,0,0,0-.39.55l-1.34,2.12V102c0,.31,0,.55.08.63a.72.72,0,0,0,.47.15h.16V103h-2.36v-.16h.24a.49.49,0,0,0,.47-.23c.08-.08.08-.32.08-.63V100.6l-1.5-2.36a5.34,5.34,0,0,0-.39-.55,1.89,1.89,0,0,0-.39-.24h-.24V97.3h2.36v.15h-.16c-.16,0-.23,0-.31.08s-.16.16-.16.24a2.08,2.08,0,0,0,.24.55l1.18,1.81,1.1-1.73a1.46,1.46,0,0,0,.23-.55.29.29,0,0,0-.08-.24l-.15-.16c-.08,0-.16-.07-.32-.07v.07Z"/><path id="_Compound_Path_13" data-name="&lt;Compound Path&gt;" class="cls-1" d="M165.33,102.65a4,4,0,0,0,.87.07,2.16,2.16,0,0,0,1.57-.63,2.9,2.9,0,0,0,0-3.61,2,2,0,0,0-1.65-.63,3.51,3.51,0,0,0-.87.08v4.72Zm-1.57.39v-.16H164a.49.49,0,0,0,.47-.23c.08-.08.08-.32.08-.63V98.48c0-.32,0-.55-.08-.63s-.24-.16-.47-.16h-.24v-.16H166a3.82,3.82,0,0,1,1.89.32,1.69,1.69,0,0,1,1,.94,3.19,3.19,0,0,1,.39,1.5,2.87,2.87,0,0,1-.7,2,3.29,3.29,0,0,1-2.44.87h-2.44Z"/><path id="_Path_55" data-name="&lt;Path&gt;" class="cls-1" d="M171.47,97.77V100h1.26a1,1,0,0,0,.63-.16.78.78,0,0,0,.23-.63h.16v2h-.16a4.27,4.27,0,0,0-.08-.55l-.23-.24a1.14,1.14,0,0,0-.55-.07h-1.26v2.28c0,.08.08.08.08.15s.15.08.31.08h.95a1.67,1.67,0,0,0,.7-.08,1.46,1.46,0,0,0,.4-.23,5.19,5.19,0,0,0,.55-.79h.15l-.47,1.42h-4.32V103h.23a.72.72,0,0,0,.4-.08c.07-.08.15-.08.15-.16a2.55,2.55,0,0,0,.08-.55V98.55c0-.31,0-.55-.08-.62a.65.65,0,0,0-.47-.16h-.23v-.16h4.24l.08,1.18h-.16a4.05,4.05,0,0,1-.15-.63.94.94,0,0,0-.32-.23c-.08-.08-.31-.08-.55-.08h-1.57Z"/><path id="_Compound_Path_14" data-name="&lt;Compound Path&gt;" class="cls-1" d="M176.58,100.21c.16,0,.24.08.39.08h.32A.77.77,0,0,0,178,100a1.09,1.09,0,0,0,.31-.86,1.42,1.42,0,0,0-.16-.63.77.77,0,0,0-.39-.48,1.62,1.62,0,0,0-.63-.15,1.51,1.51,0,0,0-.55.08Zm0,.23V102c0,.31,0,.55.08.63a.72.72,0,0,0,.47.15h.24V103H175v-.16h.23a.5.5,0,0,0,.48-.23,1.33,1.33,0,0,0,.07-.63V98.4a1.31,1.31,0,0,0-.07-.63c-.08-.16-.24-.16-.48-.16h-.31v-.16h2a4.6,4.6,0,0,1,1.18.16,1.28,1.28,0,0,1,.71.55,1.64,1.64,0,0,1,.32.87,1.43,1.43,0,0,1-.48,1.1,1.62,1.62,0,0,1-1.25.39H177a2.84,2.84,0,0,0-.39-.08"/><path id="_Compound_Path_15" data-name="&lt;Compound Path&gt;" class="cls-1" d="M182.48,100.91l-.94-2.2-.95,2.2Zm.08.24h-2.12l-.4.87a2.81,2.81,0,0,0-.16.47c0,.08,0,.16.16.23s.24.08.55.16V103h-1.73v-.16a.63.63,0,0,0,.47-.16,2.19,2.19,0,0,0,.48-.78l2-4.56h.16l2,4.64a2.09,2.09,0,0,0,.39.7,1.12,1.12,0,0,0,.55.16V103h-2.2v-.16a2.85,2.85,0,0,0,.47-.08.27.27,0,0,0,.08-.23A1.89,1.89,0,0,0,183,102Z"/><path id="_Compound_Path_16" data-name="&lt;Compound Path&gt;" class="cls-1" d="M186.57,100.21h.24a1.62,1.62,0,0,0,1.18-.32,1.27,1.27,0,0,0,.39-.86,1.18,1.18,0,0,0-.32-.87,1.08,1.08,0,0,0-.86-.31,1.93,1.93,0,0,0-.63.08ZM190.5,103H189l-1.89-2.6h-.55V102c0,.31,0,.55.08.63a.7.7,0,0,0,.47.15h.24V103H185v-.16h.15a.5.5,0,0,0,.48-.23c.08-.08.08-.32.08-.63V98.4c0-.32,0-.55-.08-.63s-.24-.16-.48-.16h-.23v-.16h2a5,5,0,0,1,1.34.16,1.17,1.17,0,0,1,.71.47,1.41,1.41,0,0,1,.31.79,1.19,1.19,0,0,1-.31.86,2.5,2.5,0,0,1-1,.56l1.18,1.57a1.52,1.52,0,0,0,.7.71c.16.15.48.15.71.23V103Z"/><path id="_Path_56" data-name="&lt;Path&gt;" class="cls-1" d="M194.75,97.45l.08,1.34h-.16a.67.67,0,0,0-.16-.47c-.07-.16-.23-.24-.31-.32a1.29,1.29,0,0,0-.55-.07h-.79v4.24c0,.32,0,.55.08.63a.67.67,0,0,0,.47.16h.16v.16h-2.36V103h.24a.48.48,0,0,0,.47-.24c.08-.07.08-.31.08-.63V97.85h-.55c-.24,0-.48,0-.55.08a1.21,1.21,0,0,0-.4.31,1.24,1.24,0,0,0-.15.63h-.16l.08-1.34h4.48Z"/><path id="_Compound_Path_17" data-name="&lt;Compound Path&gt;" class="cls-1" d="M198.13,100.91l-.94-2.2-.95,2.2Zm.08.24h-2.12l-.4.87a3.61,3.61,0,0,0-.15.47.21.21,0,0,0,.15.23c.08.08.24.08.55.16V103h-1.73v-.16a.68.68,0,0,0,.48-.16,2.35,2.35,0,0,0,.47-.78l2-4.56h.16l2,4.64a2.29,2.29,0,0,0,.39.7,1.15,1.15,0,0,0,.55.16V103h-2.2v-.16a2.65,2.65,0,0,0,.47-.08.27.27,0,0,0,.08-.23,1.89,1.89,0,0,0-.16-.55Z"/><path id="_Path_57" data-name="&lt;Path&gt;" class="cls-1" d="M203.87,103l-2.12-4.64v3.69c0,.32,0,.56.08.63a.67.67,0,0,0,.47.16h.16V103h-2v-.16h.24a.49.49,0,0,0,.47-.23c.08-.08.08-.32.08-.63V98.4a1.12,1.12,0,0,0-.08-.55q0-.12-.24-.24c-.07-.08-.23-.08-.47-.08v-.15h1.58l2,4.32,2-4.32h1.57v.15h-.16a.48.48,0,0,0-.47.24c-.08.08-.08.31-.08.63V102c0,.31,0,.55.08.63a.72.72,0,0,0,.47.15h.16V103h-2.36v-.16h.16a.49.49,0,0,0,.47-.23c.08-.08.08-.32.08-.63v-3.7l-2.13,4.64h0Z"/><path id="_Path_58" data-name="&lt;Path&gt;" class="cls-1" d="M209.69,97.77V100H211a1,1,0,0,0,.63-.16.75.75,0,0,0,.24-.63H212v2h-.16a4.27,4.27,0,0,0-.08-.55l-.24-.24c-.07-.07-.31-.07-.55-.07h-1.26v2.28c0,.08.08.08.08.15s.16.08.32.08H211a1.72,1.72,0,0,0,.71-.08,1.38,1.38,0,0,0,.39-.23,4.06,4.06,0,0,0,.55-.79h.16l-.47,1.42H208V103h.16a.67.67,0,0,0,.39-.08c.08-.08.16-.08.16-.16a2.55,2.55,0,0,0,.08-.55V98.55c0-.31,0-.55-.08-.62a.65.65,0,0,0-.47-.16h-.16v-.16h4.33l.08,1.18h-.16a3.35,3.35,0,0,1-.16-.63,1,1,0,0,0-.31-.23c-.08-.08-.32-.08-.55-.08h-1.66Z"/><path id="_Path_59" data-name="&lt;Path&gt;" class="cls-1" d="M213,97.45h1.49l3.38,4.17V98.4a1.31,1.31,0,0,0-.07-.63.68.68,0,0,0-.48-.16h-.15v-.16h2v.16H219a.48.48,0,0,0-.48.24,1.31,1.31,0,0,0-.07.63v4.64h-.16l-3.7-4.49V102c0,.31,0,.55.08.63a.72.72,0,0,0,.47.15h.16V103h-2v-.16h.16a.48.48,0,0,0,.47-.23c.08-.08.08-.32.08-.63V98.08l-.39-.39c-.08-.08-.24-.08-.4-.16h-.39v-.08Z"/><path id="_Path_60" data-name="&lt;Path&gt;" class="cls-1" d="M224,97.45l.08,1.34h-.16a.67.67,0,0,0-.16-.47c-.07-.16-.23-.24-.31-.32a1.32,1.32,0,0,0-.55-.07h-.79v4.24c0,.32,0,.55.08.63a.67.67,0,0,0,.47.16h.16v.16h-2.36V103h.24a.48.48,0,0,0,.47-.24c.08-.07.08-.31.08-.63V97.85h-.71c-.24,0-.47,0-.55.08a1.09,1.09,0,0,0-.39.31,1.23,1.23,0,0,0-.16.63h-.16l.08-1.34H224Z"/><path id="_Compound_Path_18" data-name="&lt;Compound Path&gt;" class="cls-1" d="M227.16,97.69a1.41,1.41,0,0,0-1.18.55,3,3,0,0,0-.55,2.05,3.36,3.36,0,0,0,.55,2.12,1.41,1.41,0,0,0,1.18.55,1.52,1.52,0,0,0,1.25-.63,3,3,0,0,0,.56-1.89,3.21,3.21,0,0,0-.56-2.12,1.42,1.42,0,0,0-1.25-.63m.07-.31a2.55,2.55,0,0,1,1.89.78,2.8,2.8,0,0,1,.79,2,2.85,2.85,0,0,1-.79,2.12,2.68,2.68,0,0,1-2,.87,2.62,2.62,0,0,1-2-.79,2.85,2.85,0,0,1-.79-2.12,2.92,2.92,0,0,1,.87-2.13,2.6,2.6,0,0,1,2-.78"/><path id="_Path_61" data-name="&lt;Path&gt;" class="cls-1" d="M234.08,97.38v1.88h-.16a6.08,6.08,0,0,0-.24-.86,1.61,1.61,0,0,0-.55-.55,1.13,1.13,0,0,0-.7-.16,1,1,0,0,0-1,.79,1.14,1.14,0,0,0,.16.47,3.32,3.32,0,0,0,1.18.78c.55.32.87.48,1.1.63a3.29,3.29,0,0,1,.47.55,1.89,1.89,0,0,1,.16.63,1.59,1.59,0,0,1-.47,1.11,1.82,1.82,0,0,1-1.26.47h-.47c-.08,0-.24-.08-.55-.16a3.16,3.16,0,0,0-.47-.16c-.08,0-.16,0-.16.08s-.08.16-.08.24h-.24v-1.89h.16a1.75,1.75,0,0,0,.32.86,1.51,1.51,0,0,0,.55.48,1.56,1.56,0,0,0,.78.23,1.22,1.22,0,0,0,.79-.23.71.71,0,0,0,.31-.63.67.67,0,0,0-.07-.4,1.53,1.53,0,0,0-.32-.39c-.08-.08-.39-.24-.86-.55a8.34,8.34,0,0,1-1-.63,1.68,1.68,0,0,1-.47-.55,1.46,1.46,0,0,1-.16-.63,1.37,1.37,0,0,1,.48-1,1.51,1.51,0,0,1,1.18-.39,2,2,0,0,1,.94.23.59.59,0,0,0,.31.08c.08,0,.16,0,.16-.08s.08-.16.08-.23Z"/></g></g></g></svg>