<svg xmlns="http://www.w3.org/2000/svg" viewBox="0 0 37.46 63.47"><defs><style>.cls-1{fill:#76b72a;}</style></defs><title>icon-edge</title><g id="Layer_2" data-name="Layer 2"><g id="Layer_1-2" data-name="Layer 1"><path class="cls-1" d="M37.46,25.29A25.92,25.92,0,0,0,19.18.15L18.73,0l-.46.15C4.8,4.64,0,16.08,0,25.29A25.89,25.89,0,0,0,17.29,50.08V62a1.44,1.44,0,0,0,2.88,0v-12A25.89,25.89,0,0,0,37.46,25.29ZM20.17,47V41l8.22-8.22a1.44,1.44,0,1,0-2-2l-6.19,6.18V28.05l8.22-8.22a1.44,1.44,0,0,0-2-2L20.17,24V10.16a1.44,1.44,0,0,0-2.88,0V24L11.1,17.88a1.44,1.44,0,0,0-2,2.05l8.22,8.12V37L11.1,30.85a1.44,1.44,0,0,0-2,2L17.29,41v6C4,41.5,2.88,29.1,2.88,25.29S4,8.2,18.73,3C33.43,8.2,34.58,21.35,34.58,25.29S33.5,41.5,20.17,47Z"/></g></g></svg>