<svg xmlns="http://www.w3.org/2000/svg" viewBox="0 0 1013.87 178.46"><defs><style>.cls-1,.cls-2{fill:#9c9b9b;}.cls-2{stroke:#9c9b9b;stroke-miterlimit:10;}</style></defs><title>iconos-green</title><g id="Layer_2" data-name="Layer 2"><g id="Layer_1-2" data-name="Layer 1"><path class="cls-1" d="M355.21,133.27a9.48,9.48,0,0,1-1.07,4.51,10.79,10.79,0,0,1-2.86,3.41,13.58,13.58,0,0,1-4.17,2.19,16,16,0,0,1-5,.78,15,15,0,0,1-5.13-.86,12.92,12.92,0,0,1-4.09-2.35,11,11,0,0,1-2.71-3.51,9.87,9.87,0,0,1-1-4.38,7.9,7.9,0,0,1,.63-3.17,10.07,10.07,0,0,1,1.59-2.61,11.08,11.08,0,0,1,2.21-2,11.47,11.47,0,0,1,2.5-1.33,10.82,10.82,0,0,1-2.19-1.23,9.3,9.3,0,0,1-1.82-1.72,7.54,7.54,0,0,1-1.22-2.11,6.61,6.61,0,0,1-.45-2.44,8,8,0,0,1,1.07-4.15,10.27,10.27,0,0,1,2.76-3,12.17,12.17,0,0,1,3.78-1.88,14.68,14.68,0,0,1,4.17-.62,14.92,14.92,0,0,1,4.19.62,12.67,12.67,0,0,1,3.8,1.85,10,10,0,0,1,2.76,3,8,8,0,0,1,1.07,4.14,6.77,6.77,0,0,1-1.72,4.59,11,11,0,0,1-4.06,3,13.69,13.69,0,0,1,2.68,1.46,10.59,10.59,0,0,1,2.22,2,10.48,10.48,0,0,1,1.51,2.63A8.68,8.68,0,0,1,355.21,133.27Zm-4.64-.31a6,6,0,0,0-.75-3,7.53,7.53,0,0,0-2-2.24,9,9,0,0,0-2.7-1.38,10.29,10.29,0,0,0-3-.47,9.54,9.54,0,0,0-3,.5,8.63,8.63,0,0,0-2.66,1.43,7.07,7.07,0,0,0-1.87,2.27,6.14,6.14,0,0,0-.71,2.94,5.76,5.76,0,0,0,.76,3,7.06,7.06,0,0,0,1.95,2.19,9.58,9.58,0,0,0,2.68,1.38,9.43,9.43,0,0,0,3,.49,9.09,9.09,0,0,0,3.05-.52,8.87,8.87,0,0,0,2.65-1.46,7.44,7.44,0,0,0,1.9-2.24A5.69,5.69,0,0,0,350.57,133ZM335.05,116.6a4.7,4.7,0,0,0,.65,2.48,6,6,0,0,0,1.69,1.79,7.63,7.63,0,0,0,2.3,1.1,8.94,8.94,0,0,0,2.5.36,8.4,8.4,0,0,0,2.5-.39,8.26,8.26,0,0,0,2.29-1.12,5.77,5.77,0,0,0,1.69-1.82,4.73,4.73,0,0,0,.65-2.5,4.64,4.64,0,0,0-.6-2.35,5.93,5.93,0,0,0-1.58-1.77,7.58,7.58,0,0,0-2.3-1.12,9.4,9.4,0,0,0-2.71-.39,9.14,9.14,0,0,0-2.68.39,6.88,6.88,0,0,0-2.24,1.15,6.07,6.07,0,0,0-1.56,1.82A4.74,4.74,0,0,0,335.05,116.6Z"/><path class="cls-1" d="M315.52,169.35V178h-.71V168h.54l7,8.75V168H323V178h-.66Z"/><path class="cls-1" d="M325.62,178V168h.72V178Z"/><path class="cls-1" d="M328.6,168l3.78,9,3.78-9h.76l-4.2,9.94h-.66L327.85,168Z"/><path class="cls-1" d="M345.06,177.3V178h-6.62V168h6.5v.64h-5.78v3.91h5v.61h-5v4.13Z"/><path class="cls-1" d="M347,178V168h.71v9.29h5.93V178Z"/><path class="cls-1" d="M361.76,177.3V178h-6.62V168h6.49v.64h-5.78v3.91h5v.61h-5v4.13Z"/><path class="cls-1" d="M369.48,169.66a3.46,3.46,0,0,0-2.73-1.08,3.3,3.3,0,0,0-2.12.56,1.82,1.82,0,0,0-.66,1.49,1.59,1.59,0,0,0,.17.79,1.41,1.41,0,0,0,.52.54,3.44,3.44,0,0,0,.9.37c.37.11.81.21,1.32.33a14.53,14.53,0,0,1,1.45.37,3.86,3.86,0,0,1,1.1.51,2,2,0,0,1,.7.75,2.22,2.22,0,0,1,.25,1.11,2.47,2.47,0,0,1-.26,1.15,2.26,2.26,0,0,1-.73.81,3.38,3.38,0,0,1-1.12.5,5.89,5.89,0,0,1-1.45.17,5.57,5.57,0,0,1-3.93-1.48l.38-.58a4.41,4.41,0,0,0,1.54,1,5.08,5.08,0,0,0,2,.39,3.71,3.71,0,0,0,2-.48,1.58,1.58,0,0,0,.73-1.44,1.67,1.67,0,0,0-.19-.83,1.87,1.87,0,0,0-.59-.6,4,4,0,0,0-1-.43c-.39-.12-.85-.24-1.37-.35a14.35,14.35,0,0,1-1.41-.36,3.71,3.71,0,0,1-1-.47,1.94,1.94,0,0,1-.62-.69,2.25,2.25,0,0,1-.21-1,2.63,2.63,0,0,1,.26-1.18,2.45,2.45,0,0,1,.72-.88,3.19,3.19,0,0,1,1.11-.54,5.2,5.2,0,0,1,1.42-.18,4.81,4.81,0,0,1,1.72.29,4.12,4.12,0,0,1,1.38.87Z"/><polygon class="cls-1" points="348.04 84.76 347.88 84.77 347.77 84.76 347.77 84.77 308.35 86.08 308.35 89.52 347.79 89.52 348.06 89.52 376.02 89.52 376.02 86.08 348.04 84.78 348.04 84.76"/><polygon class="cls-1" points="348.04 73.39 308.35 77.84 308.35 81.3 348.04 78.18 348.04 73.39"/><polygon class="cls-1" points="348.04 61.73 308.35 69.38 308.35 72.84 348.04 66.52 348.04 61.73"/><polygon class="cls-1" points="348.04 50.36 308.35 61.13 308.35 64.6 348.04 55.15 348.04 50.36"/><polygon class="cls-1" points="348.04 38.39 308.35 52.45 308.35 55.92 348.04 43.18 348.04 38.39"/><polygon class="cls-1" points="348.04 27.03 308.35 44.22 308.35 47.68 348.04 31.82 348.04 27.03"/><polygon class="cls-1" points="348.04 15.37 308.35 35.75 308.35 39.22 348.04 20.15 348.04 15.37"/><polygon class="cls-1" points="348.04 4.21 348.04 4 347.88 4.09 347.77 4 347.77 4.15 308.35 27.51 308.35 30.98 347.9 8.87 376.02 30.98 376.02 27.51 348.04 4.21"/><path class="cls-1" d="M39.25,139.57v4.17H20.55v-4.17h7.39V119.26a6.5,6.5,0,0,1-1.46,1.33,16.08,16.08,0,0,1-2.21,1.3,19.11,19.11,0,0,1-2.53,1,7.82,7.82,0,0,1-2.29.41V119a6.07,6.07,0,0,0,2.55-.66,19.64,19.64,0,0,0,2.69-1.5,20.85,20.85,0,0,0,2.18-1.67A5.25,5.25,0,0,0,27.94,114h4.69v25.57Z"/><path class="cls-1" d="M69.77,131.5a12.18,12.18,0,0,1-1,5,12.52,12.52,0,0,1-2.81,4.07,13.2,13.2,0,0,1-4.19,2.73,13.54,13.54,0,0,1-5.21,1,13.25,13.25,0,0,1-5.44-1.09A11.9,11.9,0,0,1,46.85,140a14.42,14.42,0,0,1-2.73-5,21.33,21.33,0,0,1-1-6.7,41,41,0,0,1,1-9.56A21.38,21.38,0,0,1,47,111.94a12.14,12.14,0,0,1,4.38-4.09A11.94,11.94,0,0,1,57,106.5a12.73,12.73,0,0,1,6.54,1.72,12.09,12.09,0,0,1,4.61,4.84l-2.82,2.76A9.11,9.11,0,0,0,57,110.51a7.78,7.78,0,0,0-3.86,1,8.79,8.79,0,0,0-3,2.84,14.64,14.64,0,0,0-1.92,4.56,26.06,26.06,0,0,0-.73,6.12,9.22,9.22,0,0,1,3.69-4.32A10.69,10.69,0,0,1,57,119.05a13.06,13.06,0,0,1,5,1,12.43,12.43,0,0,1,6.77,6.62A12,12,0,0,1,69.77,131.5Zm-13.18,8.8a8.4,8.4,0,0,0,3.39-.7,9,9,0,0,0,4.71-4.69,8.29,8.29,0,0,0,.7-3.41,8.4,8.4,0,0,0-.7-3.39,8.75,8.75,0,0,0-1.9-2.78A9.42,9.42,0,0,0,60,123.45a8.61,8.61,0,0,0-6.8,0,9.45,9.45,0,0,0-2.79,1.88,8.75,8.75,0,0,0-1.9,2.78,8.4,8.4,0,0,0-.7,3.39,8.29,8.29,0,0,0,.7,3.41,9.05,9.05,0,0,0,4.69,4.69A8.33,8.33,0,0,0,56.59,140.3Z"/><path class="cls-1" d="M100.66,133.27a9.48,9.48,0,0,1-1.07,4.51,10.79,10.79,0,0,1-2.86,3.41,13.58,13.58,0,0,1-4.17,2.19,16,16,0,0,1-5,.78,15,15,0,0,1-5.13-.86A12.92,12.92,0,0,1,78.31,141a11,11,0,0,1-2.71-3.51,9.87,9.87,0,0,1-1-4.38,7.9,7.9,0,0,1,.63-3.17,10.07,10.07,0,0,1,1.59-2.61,11.08,11.08,0,0,1,2.21-2,11.47,11.47,0,0,1,2.5-1.33,10.82,10.82,0,0,1-2.19-1.23A9.3,9.3,0,0,1,77.53,121a7.54,7.54,0,0,1-1.22-2.11,6.61,6.61,0,0,1-.45-2.44,8,8,0,0,1,1.07-4.15,10.27,10.27,0,0,1,2.76-3,12.17,12.17,0,0,1,3.78-1.88,14.68,14.68,0,0,1,4.17-.62,15,15,0,0,1,4.19.62,12.67,12.67,0,0,1,3.8,1.85,10,10,0,0,1,2.76,3,8,8,0,0,1,1.07,4.14A6.77,6.77,0,0,1,97.74,121a11,11,0,0,1-4.06,3,13.69,13.69,0,0,1,2.68,1.46,10.59,10.59,0,0,1,2.22,2,10.48,10.48,0,0,1,1.51,2.63A8.68,8.68,0,0,1,100.66,133.27ZM96,133a6,6,0,0,0-.75-3,7.53,7.53,0,0,0-2-2.24,9,9,0,0,0-2.7-1.38,10.29,10.29,0,0,0-3-.47,9.54,9.54,0,0,0-3,.5,8.63,8.63,0,0,0-2.66,1.43A7.07,7.07,0,0,0,80,130.07,6.14,6.14,0,0,0,79.3,133a5.76,5.76,0,0,0,.76,3,7.06,7.06,0,0,0,2,2.19,9.58,9.58,0,0,0,2.68,1.38,9.43,9.43,0,0,0,3,.49,9.09,9.09,0,0,0,3-.52,8.87,8.87,0,0,0,2.65-1.46,7.44,7.44,0,0,0,1.9-2.24A5.69,5.69,0,0,0,96,133ZM80.5,116.6a4.7,4.7,0,0,0,.65,2.48,5.89,5.89,0,0,0,1.69,1.79,7.63,7.63,0,0,0,2.3,1.1,8.94,8.94,0,0,0,2.5.36,8.4,8.4,0,0,0,2.5-.39,8.26,8.26,0,0,0,2.29-1.12A5.77,5.77,0,0,0,94.12,119a4.73,4.73,0,0,0,.65-2.5,4.64,4.64,0,0,0-.6-2.35,5.83,5.83,0,0,0-1.59-1.77,7.52,7.52,0,0,0-2.29-1.12,9.4,9.4,0,0,0-2.71-.39,9.14,9.14,0,0,0-2.68.39,6.88,6.88,0,0,0-2.24,1.15,6.07,6.07,0,0,0-1.56,1.82A4.74,4.74,0,0,0,80.5,116.6Z"/><path class="cls-1" d="M0,178V168H3.3a5.13,5.13,0,0,1,2.07.39,4.21,4.21,0,0,1,1.47,1.06A4.47,4.47,0,0,1,7.73,171,6.33,6.33,0,0,1,8,173a6,6,0,0,1-.33,2,4.41,4.41,0,0,1-.94,1.57,4.36,4.36,0,0,1-1.5,1A5.06,5.06,0,0,1,3.3,178Zm7.31-5A5.26,5.26,0,0,0,7,171.24a3.92,3.92,0,0,0-.78-1.37A3.68,3.68,0,0,0,5,169a4.31,4.31,0,0,0-1.71-.32H.71v8.65H3.3A4.24,4.24,0,0,0,5,177a3.4,3.4,0,0,0,1.25-.91,4.14,4.14,0,0,0,.77-1.38A5.59,5.59,0,0,0,7.31,173Z"/><path class="cls-1" d="M16.6,177.3V178H10V168h6.49v.64H10.69v3.91h5.05v.61H10.69v4.13Z"/><path class="cls-1" d="M18.54,178V168h4.09a2.51,2.51,0,0,1,1.16.27,2.88,2.88,0,0,1,.92.7,3.75,3.75,0,0,1,.6,1,3,3,0,0,1,.22,1.11,3.26,3.26,0,0,1-.21,1.16,3,3,0,0,1-.57,1,2.91,2.91,0,0,1-.89.7,2.56,2.56,0,0,1-1.15.26H19.26V178Zm.72-4.41h3.43a1.84,1.84,0,0,0,.88-.21,1.92,1.92,0,0,0,.66-.54,2.6,2.6,0,0,0,.42-.79,2.76,2.76,0,0,0,.15-.91,2.41,2.41,0,0,0-.18-.93,2.36,2.36,0,0,0-.47-.78,2.4,2.4,0,0,0-.7-.53,1.93,1.93,0,0,0-.85-.2H19.26Z"/><path class="cls-1" d="M30.35,168H31l4.2,9.94h-.76L33,174.67H28.28L26.9,178h-.77Zm2.48,6.07-2.17-5.2-2.21,5.2Z"/><path class="cls-1" d="M36.68,178V168h4.13a2.54,2.54,0,0,1,1.16.27,3,3,0,0,1,.92.7,3.75,3.75,0,0,1,.6,1,3,3,0,0,1,.21,1.11,3.39,3.39,0,0,1-.16,1,3.09,3.09,0,0,1-.48.92,2.62,2.62,0,0,1-.74.67,2.48,2.48,0,0,1-1,.35L43.84,178H43l-2.41-3.75H37.39V178Zm.71-4.41h3.49a1.79,1.79,0,0,0,.86-.21,2.17,2.17,0,0,0,.68-.56,2.35,2.35,0,0,0,.42-.78,2.74,2.74,0,0,0,.15-.9,2.63,2.63,0,0,0-.17-.92,2.83,2.83,0,0,0-.48-.78,2.28,2.28,0,0,0-.7-.53,1.82,1.82,0,0,0-.86-.21H37.39Z"/><path class="cls-1" d="M52.7,168.65H49.06V178h-.71v-9.3H44.71V168h8Z"/><path class="cls-1" d="M57.36,168H58l4.2,9.94h-.76L60,174.67H55.29L53.91,178h-.77Zm2.48,6.07-2.17-5.2-2.21,5.2Z"/><path class="cls-1" d="M72.69,178v-8.6l-3.92,6.71h-.45l-3.92-6.71V178h-.71V168h.71l4.14,7.11L72.69,168h.71V178Z"/><path class="cls-1" d="M82.62,177.3V178H76V168h6.5v.64H76.72v3.91h5v.61h-5v4.13Z"/><path class="cls-1" d="M85.28,169.35V178h-.71V168h.54l7,8.75V168h.72V178h-.66Z"/><path class="cls-1" d="M102.33,168.65H98.69V178H98v-9.3H94.33V168h8Z"/><path class="cls-1" d="M107.82,178a4,4,0,0,1-1.88-.44,5,5,0,0,1-1.47-1.13,5.22,5.22,0,0,1-1-1.61,5.45,5.45,0,0,1-.33-1.86,5.34,5.34,0,0,1,1.34-3.52,4.76,4.76,0,0,1,1.47-1.11,4.28,4.28,0,0,1,1.85-.41,4.11,4.11,0,0,1,1.89.44,4.53,4.53,0,0,1,1.47,1.16,5.11,5.11,0,0,1,1,1.61,5.28,5.28,0,0,1,.33,1.83,5.1,5.1,0,0,1-.35,1.91,5.35,5.35,0,0,1-1,1.61,4.73,4.73,0,0,1-1.48,1.1A4.12,4.12,0,0,1,107.82,178Zm-3.93-5a4.8,4.8,0,0,0,.29,1.64A4.32,4.32,0,0,0,105,176a3.94,3.94,0,0,0,1.25,1,3.64,3.64,0,0,0,3.22,0,4,4,0,0,0,1.23-1,4.75,4.75,0,0,0,.79-1.41,4.84,4.84,0,0,0,.28-1.59,4.64,4.64,0,0,0-.3-1.65,4.57,4.57,0,0,0-.82-1.4,4.13,4.13,0,0,0-1.23-1,3.67,3.67,0,0,0-3.19,0,4,4,0,0,0-1.25,1,4.52,4.52,0,0,0-.8,1.4A4.9,4.9,0,0,0,103.89,173Z"/><path class="cls-1" d="M120.18,169.66a3.46,3.46,0,0,0-2.73-1.08,3.3,3.3,0,0,0-2.12.56,1.82,1.82,0,0,0-.66,1.49,1.59,1.59,0,0,0,.17.79,1.41,1.41,0,0,0,.52.54,3.44,3.44,0,0,0,.9.37c.37.11.81.21,1.32.33A14.53,14.53,0,0,1,119,173a3.86,3.86,0,0,1,1.1.51,2,2,0,0,1,.7.75,2.22,2.22,0,0,1,.25,1.11,2.47,2.47,0,0,1-.26,1.15,2.26,2.26,0,0,1-.73.81,3.38,3.38,0,0,1-1.12.5,5.89,5.89,0,0,1-1.45.17,5.57,5.57,0,0,1-3.93-1.48L114,176a4.41,4.41,0,0,0,1.54,1,5.08,5.08,0,0,0,2,.39,3.71,3.71,0,0,0,2-.48,1.58,1.58,0,0,0,.73-1.44,1.67,1.67,0,0,0-.19-.83,1.77,1.77,0,0,0-.59-.6,4,4,0,0,0-1-.43c-.39-.12-.85-.24-1.37-.35a14.35,14.35,0,0,1-1.41-.36,3.71,3.71,0,0,1-1-.47,1.94,1.94,0,0,1-.62-.69,2.25,2.25,0,0,1-.21-1,2.63,2.63,0,0,1,.26-1.18,2.45,2.45,0,0,1,.72-.88,3.19,3.19,0,0,1,1.11-.54,5.2,5.2,0,0,1,1.42-.18,4.81,4.81,0,0,1,1.72.29,4.12,4.12,0,0,1,1.38.87Z"/><path class="cls-2" d="M45.48.5V39.15H35.1V82.33H52.58V93H85.16V.5ZM42.2,60H36.75v-2H42.2Zm0,.62v1.23H36.75V60.64Zm0-15.73H36.75V43H42.2Zm0,.51v2H36.75v-2Zm0,2.57v2H36.75V48Zm0,2.47v1.95H36.75V50.46Zm0,2.57V55H36.75V53Zm0,2.57v1.95H36.75V55.6Zm0-14.8v1.54H36.75V40.8ZM54.12,91.37V63.21H52.47V80.68H36.75V63.51h7.09V57.86H54.12V53.34H52.47v2.88H43.84V40.8h3.29V24.86H66.87V23.22H47.13V2.14H66V18.08c-2.77.92-3.18,4.21-3.18,4.21l.61.11a5.69,5.69,0,0,1,.72-2.06,3.7,3.7,0,0,1,3.09-1.95h.51V2.14h5V12.22h.92a3.62,3.62,0,0,1,2.88,1.85A4.72,4.72,0,0,1,77.35,16H78s-.52-3.9-4.11-4.32V2.14h9.76v14.7H73.34v1.65H83.62V45.94H59.26V65.67a2.37,2.37,0,0,1-.31.52,4.37,4.37,0,0,1-4,2.26v.62a5.16,5.16,0,0,0,4.53-2.57,3.55,3.55,0,0,0,.41-.83h9.86V64H60.9V47.58H83.42V64.13H75.5v1.65h7.92V91.37Z"/><path class="cls-1" d="M595,143.74v-37h15.42a10.11,10.11,0,0,1,4.5,1,11.53,11.53,0,0,1,3.55,2.71,13.08,13.08,0,0,1,2.31,3.8,11.55,11.55,0,0,1,.84,4.3,12.8,12.8,0,0,1-.78,4.43,12.33,12.33,0,0,1-2.22,3.8,10.71,10.71,0,0,1-3.44,2.66,9.89,9.89,0,0,1-4.45,1h-11v13.28Zm4.69-17.45h10.78a5.69,5.69,0,0,0,2.63-.6,5.91,5.91,0,0,0,2-1.66,8.38,8.38,0,0,0,1.31-2.48,9.42,9.42,0,0,0,.47-3,8.39,8.39,0,0,0-.55-3,8.3,8.3,0,0,0-1.46-2.45,6.46,6.46,0,0,0-2.14-1.61,6,6,0,0,0-2.57-.58H599.66Z"/><path class="cls-1" d="M655.81,134.21a8.89,8.89,0,0,1-.86,3.91,9.14,9.14,0,0,1-2.35,3,10.75,10.75,0,0,1-3.43,1.92,12.54,12.54,0,0,1-4.2.68H627.42v-37h18.39a7.37,7.37,0,0,1,3.49.83,8.86,8.86,0,0,1,2.65,2.16,10.07,10.07,0,0,1,1.7,3,10.19,10.19,0,0,1,.6,3.42,9.87,9.87,0,0,1-1.39,5.1,8.46,8.46,0,0,1-3.93,3.49,9.33,9.33,0,0,1,5,3.46A9.88,9.88,0,0,1,655.81,134.21Zm-23.7-23.39v12.35h11.77a5.26,5.26,0,0,0,2.29-.5,5.55,5.55,0,0,0,1.8-1.33,6.4,6.4,0,0,0,1.2-2,6.52,6.52,0,0,0,.44-2.37,7,7,0,0,0-.42-2.45,6.58,6.58,0,0,0-1.12-2,4.93,4.93,0,0,0-1.72-1.3,5.08,5.08,0,0,0-2.16-.47Zm19,22.56a6.92,6.92,0,0,0-.44-2.43,7.05,7.05,0,0,0-1.2-2,5.87,5.87,0,0,0-1.8-1.41,5,5,0,0,0-2.29-.52H632.11v12.71H645a5.62,5.62,0,0,0,2.4-.52,6.81,6.81,0,0,0,1.93-1.38,6.39,6.39,0,0,0,1.77-4.4Z"/><path class="cls-1" d="M562.72,177.36l7.07-8.71h-7V168h7.81v.59l-7,8.7h7V178h-7.88Z"/><path class="cls-1" d="M576.34,178a4.11,4.11,0,0,1-1.89-.44,4.9,4.9,0,0,1-2.42-2.74,5.46,5.46,0,0,1-.34-1.86,5.18,5.18,0,0,1,.36-1.91,5.6,5.6,0,0,1,1-1.61,4.92,4.92,0,0,1,1.48-1.11,4.24,4.24,0,0,1,1.84-.41,4.15,4.15,0,0,1,1.9.44,4.75,4.75,0,0,1,1.47,1.16,5.26,5.26,0,0,1,.92,5.35,5,5,0,0,1-1,1.61,4.58,4.58,0,0,1-1.47,1.1A4.15,4.15,0,0,1,576.34,178Zm-3.93-5a4.79,4.79,0,0,0,.28,1.64,4.53,4.53,0,0,0,.82,1.4,3.83,3.83,0,0,0,1.25,1,3.42,3.42,0,0,0,1.59.37A3.46,3.46,0,0,0,578,177a4,4,0,0,0,1.23-1,4.54,4.54,0,0,0,.79-1.41,4.75,4.75,0,0,0,0-3.24,4.78,4.78,0,0,0-.82-1.4,4,4,0,0,0-1.24-1,3.42,3.42,0,0,0-1.57-.36,3.51,3.51,0,0,0-1.62.37,4.05,4.05,0,0,0-1.24,1,4.32,4.32,0,0,0-.8,1.4A4.65,4.65,0,0,0,572.41,173Z"/><path class="cls-1" d="M583.63,169.35V178h-.71V168h.54l7,8.75V168h.72V178h-.66Z"/><path class="cls-1" d="M596.85,168h.62l4.2,9.94h-.76l-1.38-3.28h-4.75L593.4,178h-.77Zm2.48,6.07-2.17-5.2-2.21,5.2Z"/><path class="cls-1" d="M606.09,172.91a5.37,5.37,0,0,1,.32-1.79,4.8,4.8,0,0,1,2.39-2.73,4.41,4.41,0,0,1,2-.44,4.11,4.11,0,0,1,2.27.61,3.87,3.87,0,0,1,1.4,1.56l-.59.34a3.23,3.23,0,0,0-.62-.87,3.49,3.49,0,0,0-.77-.57,3.41,3.41,0,0,0-.86-.31,3.83,3.83,0,0,0-.88-.1,3.47,3.47,0,0,0-1.68.39,3.76,3.76,0,0,0-1.23,1,4.39,4.39,0,0,0-.77,1.39,5,5,0,0,0-.25,1.56,4.72,4.72,0,0,0,.3,1.68A5,5,0,0,0,608,176a4.25,4.25,0,0,0,1.26,1,3.51,3.51,0,0,0,1.57.36,4.2,4.2,0,0,0,.92-.11,3.72,3.72,0,0,0,.91-.35,3.88,3.88,0,0,0,.82-.61,3.2,3.2,0,0,0,.62-.87l.62.29a3.39,3.39,0,0,1-.69,1,4.2,4.2,0,0,1-1,.73,4.57,4.57,0,0,1-1.13.44,4.69,4.69,0,0,1-1.17.15,3.88,3.88,0,0,1-1.86-.45,4.94,4.94,0,0,1-1.47-1.17,5.21,5.21,0,0,1-.95-1.63A5.29,5.29,0,0,1,606.09,172.91Z"/><path class="cls-1" d="M620.39,178a4,4,0,0,1-1.88-.44,5,5,0,0,1-1.47-1.13,5,5,0,0,1-1-1.61,5.45,5.45,0,0,1-.33-1.86,5.39,5.39,0,0,1,.35-1.91,5.6,5.6,0,0,1,1-1.61,4.92,4.92,0,0,1,1.48-1.11,4.28,4.28,0,0,1,1.85-.41,4.11,4.11,0,0,1,1.89.44,4.53,4.53,0,0,1,1.47,1.16,5.28,5.28,0,0,1,1.28,3.44,5.1,5.1,0,0,1-.35,1.91,5.35,5.35,0,0,1-1,1.61,4.73,4.73,0,0,1-1.48,1.1A4.12,4.12,0,0,1,620.39,178Zm-3.93-5a4.8,4.8,0,0,0,.29,1.64,4.32,4.32,0,0,0,.81,1.4,3.94,3.94,0,0,0,1.25,1,3.46,3.46,0,0,0,1.6.37A3.42,3.42,0,0,0,622,177a3.91,3.91,0,0,0,1.24-1,4.75,4.75,0,0,0,.79-1.41,4.84,4.84,0,0,0,.28-1.59,4.64,4.64,0,0,0-.3-1.65,4.57,4.57,0,0,0-.82-1.4,4.13,4.13,0,0,0-1.23-1,3.45,3.45,0,0,0-1.57-.36,3.52,3.52,0,0,0-1.63.37,4.05,4.05,0,0,0-1.24,1,4.52,4.52,0,0,0-.8,1.4A4.9,4.9,0,0,0,616.46,173Z"/><path class="cls-1" d="M636,178v-8.6l-3.92,6.71h-.45l-3.91-6.71V178H627V168h.72l4.14,7.11L636,168h.71V178Z"/><path class="cls-1" d="M645.9,177.3V178h-6.61V168h6.49v.64H640v3.91h5v.61h-5v4.13Z"/><path class="cls-1" d="M647.85,178V168H652a2.54,2.54,0,0,1,1.16.27,3,3,0,0,1,.92.7,3.75,3.75,0,0,1,.6,1,3,3,0,0,1,.21,1.11,3.39,3.39,0,0,1-.16,1,2.88,2.88,0,0,1-.48.92,2.64,2.64,0,0,1-1.69,1L655,178h-.83l-2.41-3.75h-3.22V178Zm.71-4.41h3.49a1.86,1.86,0,0,0,.87-.21,2.25,2.25,0,0,0,.67-.56A2.35,2.35,0,0,0,654,172a2.74,2.74,0,0,0,.15-.9,2.63,2.63,0,0,0-.17-.92,2.83,2.83,0,0,0-.48-.78,2.28,2.28,0,0,0-.7-.53,1.82,1.82,0,0,0-.86-.21h-3.39Z"/><path class="cls-1" d="M656.25,172.91a5.35,5.35,0,0,1,.31-1.79,4.9,4.9,0,0,1,.92-1.58,4.79,4.79,0,0,1,1.47-1.15,4.46,4.46,0,0,1,2-.44,4.16,4.16,0,0,1,2.27.61,3.85,3.85,0,0,1,1.39,1.56l-.58.34a3.26,3.26,0,0,0-2.26-1.75,3.77,3.77,0,0,0-.88-.1,3.53,3.53,0,0,0-1.68.39,4,4,0,0,0-1.23,1,4.37,4.37,0,0,0-.76,1.39A5,5,0,0,0,657,173a4.75,4.75,0,0,0,1.15,3.09,4,4,0,0,0,1.26,1,3.44,3.44,0,0,0,1.56.36,4.36,4.36,0,0,0,.93-.11,3.72,3.72,0,0,0,.91-.35,3.59,3.59,0,0,0,.81-.61,3.46,3.46,0,0,0,.63-.87l.61.29a3.18,3.18,0,0,1-.68,1,4,4,0,0,1-1,.73,4.5,4.5,0,0,1-1.12.44,4.82,4.82,0,0,1-1.17.15,3.92,3.92,0,0,1-1.87-.45,5,5,0,0,1-1.46-1.17,5.44,5.44,0,0,1-1-1.63A5.28,5.28,0,0,1,656.25,172.91Z"/><path class="cls-1" d="M666.59,178V168h.71V178Z"/><path class="cls-1" d="M673,168h.62l4.2,9.94h-.76l-1.38-3.28H671L669.57,178h-.77Zm2.48,6.07-2.17-5.2-2.21,5.2Z"/><path class="cls-1" d="M679.35,178V168h.71v9.29H686V178Z"/><path class="cls-1" d="M663.71,60.36H652.14a13.56,13.56,0,0,0-25.86,0H614.72a1.46,1.46,0,0,0-1.37,1.22L610.63,88.8a1.55,1.55,0,0,0,.41,1.09,1.48,1.48,0,0,0,1,.41h54.44a1.06,1.06,0,0,0,1-.41,1.55,1.55,0,0,0,.41-1.09l-2.72-27.22A1.45,1.45,0,0,0,663.71,60.36Zm-24.5-6.81a10.82,10.82,0,0,1,10.07,6.81H629.14A10.82,10.82,0,0,1,639.21,53.55Zm-25.72,34,.41-4.08h43V80.77H614.17l1.77-17.69h9.66v1.63a4.08,4.08,0,1,0,2.59,0v-.27a4.83,4.83,0,0,1,.13-1.36H650c0,.41.14,1,.14,1.36v.27a4.09,4.09,0,1,0,2.58,0c0-.13,0-.13.14-.27V63.08h9.66l2.45,24.49ZM627,67.16a1.36,1.36,0,1,1-1.36,1.36A1.29,1.29,0,0,1,627,67.16Zm24.5,0a1.36,1.36,0,1,1-1.36,1.36A1.29,1.29,0,0,1,651.46,67.16Z"/><path class="cls-1" d="M606.55,87.57h-23l.27-4.08h18.65V80.77H583.82l2.32-39.46h4.22v1.63a4.09,4.09,0,1,0,2.58,0v-.27a4.47,4.47,0,0,1,.14-1.36h21.64c0,.4.13.95.13,1.36v.27a4.09,4.09,0,1,0,2.59,0c0-.14.13-.14.13-.27V41.31h4.22l.82,15.1A1.35,1.35,0,0,0,624,57.64a1.29,1.29,0,0,0,1.36-1.36v-.14l-1-16.33A1.35,1.35,0,0,0,623,38.58h-6.13a13.56,13.56,0,0,0-25.85,0h-6.26a1.35,1.35,0,0,0-1.36,1.23l-2.73,49a1.83,1.83,0,0,0,.41,1.09,1.25,1.25,0,0,0,1,.41h24.49a1.37,1.37,0,0,0,0-2.73Zm-15-39.46a1.36,1.36,0,1,1,1.36-1.36A1.28,1.28,0,0,1,591.58,48.11Zm24.5,0a1.36,1.36,0,1,1,1.36-1.36A1.28,1.28,0,0,1,616.08,48.11ZM603.83,31.78a10.81,10.81,0,0,1,10.07,6.8H593.76A10.81,10.81,0,0,1,603.83,31.78Z"/><path class="cls-1" d="M617.71,34.5a1.34,1.34,0,0,0,1.36-1.22l1.09-17.83h4.22v1.63a4.09,4.09,0,1,0,2.58,0v-.27a4.5,4.5,0,0,1,.14-1.36h21.64c0,.41.13.95.13,1.36v.27a4.08,4.08,0,1,0,2.59,0c0-.13,0-.13.13-.27V15.45h4.22l2.32,41a1.35,1.35,0,0,0,1.36,1.23h.13a1.23,1.23,0,0,0,1.23-1.5h0L658.26,14a1.34,1.34,0,0,0-1.36-1.22h-6.12a13.56,13.56,0,0,0-25.86,0H618.8A1.34,1.34,0,0,0,617.44,14L616.35,33a1.4,1.4,0,0,0,1.36,1.5Zm7.89-12.25A1.36,1.36,0,1,1,627,20.89,1.29,1.29,0,0,1,625.6,22.25Zm24.5,0a1.36,1.36,0,1,1,1.36-1.36A1.28,1.28,0,0,1,650.1,22.25ZM637.85,5.92a10.82,10.82,0,0,1,10.07,6.81H627.78A10.82,10.82,0,0,1,637.85,5.92Z"/><path class="cls-1" d="M854.61,117.08v2.24H841.06V99.37h13.29v2.25H843.59v6.46H853v2.11h-9.36v6.89Z"/><path class="cls-1" d="M869.78,103.56a3.91,3.91,0,0,0-.9-.76,8.25,8.25,0,0,0-1.26-.66,9.46,9.46,0,0,0-1.53-.48,8.19,8.19,0,0,0-1.73-.18,5.44,5.44,0,0,0-3.42.87,2.91,2.91,0,0,0-1.08,2.39,2.64,2.64,0,0,0,.31,1.35,2.52,2.52,0,0,0,1,.91,7.26,7.26,0,0,0,1.64.66c.66.19,1.44.39,2.34.59a25,25,0,0,1,2.79.78,8.08,8.08,0,0,1,2.14,1.08,4.31,4.31,0,0,1,1.35,1.57,5.06,5.06,0,0,1,.46,2.28,5.25,5.25,0,0,1-.56,2.48,5.07,5.07,0,0,1-1.53,1.75,6.73,6.73,0,0,1-2.29,1,12.37,12.37,0,0,1-2.87.32,13.18,13.18,0,0,1-4.37-.72,11.92,11.92,0,0,1-3.75-2.09l1.21-2.13a7.48,7.48,0,0,0,1.16,1,10,10,0,0,0,1.63.86,12.61,12.61,0,0,0,2,.62,9.91,9.91,0,0,0,2.21.24,6.14,6.14,0,0,0,3.31-.76,2.53,2.53,0,0,0,1.18-2.28,2.47,2.47,0,0,0-.38-1.42,3.2,3.2,0,0,0-1.11-1,8.17,8.17,0,0,0-1.81-.74q-1.08-.33-2.46-.66a24.21,24.21,0,0,1-2.67-.79,7.2,7.2,0,0,1-1.92-1,3.74,3.74,0,0,1-1.17-1.43,4.84,4.84,0,0,1-.39-2,5.81,5.81,0,0,1,.53-2.53,5.35,5.35,0,0,1,1.49-1.85,6.43,6.43,0,0,1,2.28-1.14,11,11,0,0,1,6.52.24,10.28,10.28,0,0,1,2.89,1.66Z"/><path class="cls-1" d="M875.18,119.32V99.37h8.31a5.49,5.49,0,0,1,2.43.55,6.27,6.27,0,0,1,1.92,1.46,7.05,7.05,0,0,1,1.25,2.05,6.26,6.26,0,0,1,.45,2.32,6.7,6.7,0,0,1-.43,2.39,6.45,6.45,0,0,1-1.19,2,5.69,5.69,0,0,1-1.86,1.43,5.29,5.29,0,0,1-2.4.54h-5.95v7.16Zm2.53-9.41h5.81a3.12,3.12,0,0,0,1.42-.32,3.34,3.34,0,0,0,1.08-.9,4.51,4.51,0,0,0,.71-1.34,5.25,5.25,0,0,0,.25-1.6,4.41,4.41,0,0,0-.3-1.63,4.56,4.56,0,0,0-.78-1.32,3.65,3.65,0,0,0-1.16-.87,3.17,3.17,0,0,0-1.39-.31h-5.64Z"/><path class="cls-1" d="M898.75,99.37h2.14L909,119.32h-2.7L904,113.48H895.6l-2.33,5.84h-2.7Zm4.67,12.14-3.6-9.22-3.71,9.22Z"/><path class="cls-1" d="M910.41,109.21a10.55,10.55,0,0,1,.64-3.59,10,10,0,0,1,1.85-3.2,9.35,9.35,0,0,1,3-2.29,9,9,0,0,1,4-.87,8.34,8.34,0,0,1,4.58,1.21,7.42,7.42,0,0,1,2.84,3.15l-2,1.29a5.76,5.76,0,0,0-1.08-1.6,5.61,5.61,0,0,0-2.91-1.6,6.85,6.85,0,0,0-1.54-.17,6.19,6.19,0,0,0-2.94.68,6.83,6.83,0,0,0-2.15,1.8,7.84,7.84,0,0,0-1.3,2.5,9,9,0,0,0-.44,2.8,8.51,8.51,0,0,0,.52,3,8.26,8.26,0,0,0,1.45,2.52,7.08,7.08,0,0,0,2.19,1.74,6,6,0,0,0,2.75.65,7,7,0,0,0,1.62-.2,6,6,0,0,0,1.59-.63,7.23,7.23,0,0,0,1.42-1.1,5.51,5.51,0,0,0,1.08-1.59l2.1,1.16a6.06,6.06,0,0,1-1.33,2,8.36,8.36,0,0,1-1.94,1.44,9.95,9.95,0,0,1-4.65,1.21,8,8,0,0,1-3.77-.9,10.09,10.09,0,0,1-3-2.34A10.87,10.87,0,0,1,911.1,113,10.63,10.63,0,0,1,910.41,109.21Z"/><path class="cls-1" d="M930.87,119.32V99.37h2.53v19.95Z"/><path class="cls-1" d="M946.27,119.46a8.52,8.52,0,0,1-3.84-.85,9.36,9.36,0,0,1-3-2.28,10.24,10.24,0,0,1-1.91-3.24,10.75,10.75,0,0,1-.68-3.74,10.33,10.33,0,0,1,.72-3.82,10.69,10.69,0,0,1,2-3.24,9.56,9.56,0,0,1,3-2.23,8.65,8.65,0,0,1,3.75-.83,8.25,8.25,0,0,1,3.83.89,9.82,9.82,0,0,1,3,2.32,10.59,10.59,0,0,1-.1,14,9.8,9.8,0,0,1-3,2.22A8.57,8.57,0,0,1,946.27,119.46Zm-6.83-10.11a8.89,8.89,0,0,0,.49,2.94,8.18,8.18,0,0,0,1.39,2.51,6.68,6.68,0,0,0,2.17,1.74,6.09,6.09,0,0,0,2.81.65,5.87,5.87,0,0,0,2.86-.69,6.94,6.94,0,0,0,2.15-1.8,8.11,8.11,0,0,0,1.35-2.51,9,9,0,0,0,.46-2.84,8.89,8.89,0,0,0-.49-2.94,7.66,7.66,0,0,0-1.4-2.5,7,7,0,0,0-2.17-1.73,5.91,5.91,0,0,0-2.76-.64,6,6,0,0,0-2.87.67,7,7,0,0,0-2.15,1.77,8.17,8.17,0,0,0-1.36,2.5A8.86,8.86,0,0,0,939.44,109.35Z"/><path class="cls-1" d="M970.91,103.56a3.91,3.91,0,0,0-.9-.76,8.25,8.25,0,0,0-1.26-.66,9.46,9.46,0,0,0-1.53-.48,8.19,8.19,0,0,0-1.73-.18,5.46,5.46,0,0,0-3.42.87,2.91,2.91,0,0,0-1.08,2.39,2.75,2.75,0,0,0,.31,1.35,2.52,2.52,0,0,0,1,.91,7.26,7.26,0,0,0,1.64.66c.66.19,1.44.39,2.34.59A25,25,0,0,1,969,109a8.08,8.08,0,0,1,2.14,1.08,4.31,4.31,0,0,1,1.35,1.57A5.06,5.06,0,0,1,973,114a5.25,5.25,0,0,1-.56,2.48,5.07,5.07,0,0,1-1.53,1.75,6.73,6.73,0,0,1-2.29,1,12.37,12.37,0,0,1-2.87.32,13.18,13.18,0,0,1-4.37-.72,11.92,11.92,0,0,1-3.75-2.09l1.21-2.13a7.48,7.48,0,0,0,1.16,1,10.39,10.39,0,0,0,1.63.86,12.61,12.61,0,0,0,2,.62,9.91,9.91,0,0,0,2.21.24,6.14,6.14,0,0,0,3.31-.76,2.53,2.53,0,0,0,1.18-2.28,2.47,2.47,0,0,0-.38-1.42,3.2,3.2,0,0,0-1.11-1,8.17,8.17,0,0,0-1.81-.74q-1.08-.33-2.46-.66a24.21,24.21,0,0,1-2.67-.79,7.35,7.35,0,0,1-1.92-1,3.74,3.74,0,0,1-1.17-1.43,4.84,4.84,0,0,1-.39-2,5.81,5.81,0,0,1,.53-2.53,5.47,5.47,0,0,1,1.49-1.85,6.43,6.43,0,0,1,2.28-1.14,11,11,0,0,1,6.52.24,10.28,10.28,0,0,1,2.89,1.66Z"/><path class="cls-1" d="M811.91,137.28a4.72,4.72,0,0,0-.9-.76,8.87,8.87,0,0,0-1.27-.66,9.83,9.83,0,0,0-1.53-.48,8.12,8.12,0,0,0-1.73-.18,5.42,5.42,0,0,0-3.41.87,2.91,2.91,0,0,0-1.08,2.39,2.64,2.64,0,0,0,.31,1.35,2.45,2.45,0,0,0,1,.91,6.66,6.66,0,0,0,1.64.66c.66.19,1.43.39,2.33.59a25.23,25.23,0,0,1,2.8.78,8.17,8.17,0,0,1,2.13,1.08,4.22,4.22,0,0,1,1.35,1.57,5.06,5.06,0,0,1,.47,2.28,5.32,5.32,0,0,1-.56,2.49,5,5,0,0,1-1.54,1.74,6.65,6.65,0,0,1-2.29,1,12.28,12.28,0,0,1-2.86.32,13.39,13.39,0,0,1-4.37-.71,12.15,12.15,0,0,1-3.75-2.1l1.2-2.13a7.15,7.15,0,0,0,1.17.95,9.25,9.25,0,0,0,1.63.86,12.61,12.61,0,0,0,2,.62,9.82,9.82,0,0,0,2.2.24,6.18,6.18,0,0,0,3.32-.76,2.53,2.53,0,0,0,1.18-2.28,2.57,2.57,0,0,0-.38-1.42,3.2,3.2,0,0,0-1.11-1,8.92,8.92,0,0,0-1.81-.74q-1.08-.33-2.46-.66a24.21,24.21,0,0,1-2.67-.79,7.43,7.43,0,0,1-1.93-1,3.81,3.81,0,0,1-1.16-1.43,4.8,4.8,0,0,1-.4-2,5.63,5.63,0,0,1,.54-2.52,5.18,5.18,0,0,1,1.49-1.86,6.3,6.3,0,0,1,2.27-1.14,10.48,10.48,0,0,1,2.87-.38,10.23,10.23,0,0,1,3.65.62,10.34,10.34,0,0,1,2.9,1.66Z"/><path class="cls-1" d="M825.51,150.91a5.75,5.75,0,0,0,2.89-.67,5.35,5.35,0,0,0,1.84-1.76,7.29,7.29,0,0,0,1-2.47,14.07,14.07,0,0,0,.28-2.83V133.09H834v10.09a15.42,15.42,0,0,1-.46,3.84,9.09,9.09,0,0,1-1.48,3.19,7.14,7.14,0,0,1-2.62,2.17,9.91,9.91,0,0,1-7.94,0,7.26,7.26,0,0,1-2.63-2.23,9.22,9.22,0,0,1-1.43-3.2,15.93,15.93,0,0,1-.44-3.73V133.09h2.53v10.09a13.66,13.66,0,0,0,.3,2.88,7.09,7.09,0,0,0,1,2.46,5.33,5.33,0,0,0,1.83,1.73A5.59,5.59,0,0,0,825.51,150.91Z"/><path class="cls-1" d="M850.24,137.28a4.72,4.72,0,0,0-.9-.76,8.87,8.87,0,0,0-1.27-.66,10.56,10.56,0,0,0-1.53-.48,8.12,8.12,0,0,0-1.73-.18,5.42,5.42,0,0,0-3.41.87,2.91,2.91,0,0,0-1.08,2.39,2.64,2.64,0,0,0,.31,1.35,2.45,2.45,0,0,0,1,.91,6.66,6.66,0,0,0,1.64.66c.66.19,1.43.39,2.33.59a25.86,25.86,0,0,1,2.8.78,8.17,8.17,0,0,1,2.13,1.08,4.31,4.31,0,0,1,1.35,1.57,5.06,5.06,0,0,1,.47,2.28,5.2,5.2,0,0,1-.57,2.49,4.92,4.92,0,0,1-1.53,1.74,6.65,6.65,0,0,1-2.29,1,12.28,12.28,0,0,1-2.86.32,13.39,13.39,0,0,1-4.37-.71,12.31,12.31,0,0,1-3.76-2.1l1.21-2.13a7.15,7.15,0,0,0,1.17.95,9.25,9.25,0,0,0,1.63.86,12.28,12.28,0,0,0,2,.62,9.82,9.82,0,0,0,2.2.24,6.18,6.18,0,0,0,3.32-.76,2.53,2.53,0,0,0,1.18-2.28,2.57,2.57,0,0,0-.38-1.42,3.2,3.2,0,0,0-1.11-1,8.92,8.92,0,0,0-1.81-.74q-1.08-.33-2.46-.66a24.21,24.21,0,0,1-2.67-.79,7.43,7.43,0,0,1-1.93-1,3.81,3.81,0,0,1-1.16-1.43,4.65,4.65,0,0,1-.4-2,5.63,5.63,0,0,1,.54-2.52,5.18,5.18,0,0,1,1.49-1.86,6.3,6.3,0,0,1,2.27-1.14,10.48,10.48,0,0,1,2.87-.38,10.23,10.23,0,0,1,3.65.62,10.34,10.34,0,0,1,2.9,1.66Z"/><path class="cls-1" d="M870,135.34h-6.88V153h-2.53v-17.7h-6.89v-2.25H870Z"/><path class="cls-1" d="M886.43,150.8V153H872.89V133.09h13.29v2.25H875.42v6.46h9.35v2.11h-9.35v6.89Z"/><path class="cls-1" d="M892.42,137.81V153h-2.53V133.09h2l12.37,15.54V133.12h2.53V153h-2.14Z"/><path class="cls-1" d="M925.91,135.34H919V153H916.5v-17.7h-6.89v-2.25h16.3Z"/><path class="cls-1" d="M934.85,133.09H937L945.13,153h-2.7l-2.36-5.84H931.7L929.37,153h-2.7Zm4.66,12.14L935.92,136l-3.71,9.21Z"/><path class="cls-1" d="M963.12,147.9a4.77,4.77,0,0,1-.47,2.11,4.93,4.93,0,0,1-1.26,1.63,5.73,5.73,0,0,1-1.86,1,6.91,6.91,0,0,1-2.26.36H947.8V133.09h9.92a3.93,3.93,0,0,1,1.88.45,4.69,4.69,0,0,1,1.44,1.17,5.52,5.52,0,0,1,.91,1.63,5.61,5.61,0,0,1,.32,1.84,5.37,5.37,0,0,1-.74,2.75,4.64,4.64,0,0,1-2.12,1.89,5,5,0,0,1,2.71,1.86A5.36,5.36,0,0,1,963.12,147.9Zm-12.79-12.61V142h6.35a2.85,2.85,0,0,0,1.24-.27,3.27,3.27,0,0,0,1-.72,3.52,3.52,0,0,0,.88-2.33,3.81,3.81,0,0,0-.22-1.32,3.4,3.4,0,0,0-.61-1.07,2.65,2.65,0,0,0-.92-.7,2.77,2.77,0,0,0-1.17-.25Zm10.23,12.16a3.61,3.61,0,0,0-.24-1.3,3.69,3.69,0,0,0-.65-1.11,2.88,2.88,0,0,0-1-.76,2.65,2.65,0,0,0-1.23-.28h-7.14v6.85h6.94a2.9,2.9,0,0,0,1.29-.28,3.52,3.52,0,0,0,1-.74,3.43,3.43,0,0,0,.71-1.08A3.62,3.62,0,0,0,960.56,147.45Z"/><path class="cls-1" d="M966.66,153V133.09h2.53V150.8h11.12V153Z"/><path class="cls-1" d="M996.61,150.8V153H983.07V133.09h13.29v2.25H985.6v6.46H995v2.11H985.6v6.89Z"/><path class="cls-1" d="M1011.79,137.28a4.72,4.72,0,0,0-.9-.76,8.87,8.87,0,0,0-1.27-.66,10.56,10.56,0,0,0-1.53-.48,8.12,8.12,0,0,0-1.73-.18,5.42,5.42,0,0,0-3.41.87,2.91,2.91,0,0,0-1.08,2.39,2.64,2.64,0,0,0,.31,1.35,2.45,2.45,0,0,0,1,.91,6.66,6.66,0,0,0,1.64.66c.65.19,1.43.39,2.33.59a25.86,25.86,0,0,1,2.8.78,8.17,8.17,0,0,1,2.13,1.08,4.31,4.31,0,0,1,1.35,1.57,5.06,5.06,0,0,1,.47,2.28,5.2,5.2,0,0,1-.57,2.49,4.92,4.92,0,0,1-1.53,1.74,6.65,6.65,0,0,1-2.29,1,12.28,12.28,0,0,1-2.86.32,13.39,13.39,0,0,1-4.37-.71,12.31,12.31,0,0,1-3.76-2.1l1.21-2.13a7.15,7.15,0,0,0,1.17.95,9.25,9.25,0,0,0,1.63.86,12.28,12.28,0,0,0,2,.62,9.82,9.82,0,0,0,2.2.24,6.18,6.18,0,0,0,3.32-.76,2.81,2.81,0,0,0,.8-3.7,3.2,3.2,0,0,0-1.11-1,8.92,8.92,0,0,0-1.81-.74q-1.08-.33-2.46-.66a24.21,24.21,0,0,1-2.67-.79,7.43,7.43,0,0,1-1.93-1,3.81,3.81,0,0,1-1.16-1.43,4.65,4.65,0,0,1-.4-2,5.63,5.63,0,0,1,.54-2.52,5.18,5.18,0,0,1,1.49-1.86,6.3,6.3,0,0,1,2.27-1.14,10.48,10.48,0,0,1,2.87-.38,10.23,10.23,0,0,1,3.65.62,10.34,10.34,0,0,1,2.9,1.66Z"/><path class="cls-1" d="M843,177.74v.64h-6.62v-9.94h6.49v.65h-5.78V173h5.05v.62h-5.05v4.13Z"/><path class="cls-1" d="M845.62,169.79v8.59h-.72v-9.94h.55l7,8.75v-8.75h.71v9.94h-.66Z"/><path class="cls-1" d="M862.44,168.44h.61l4.2,9.94h-.75l-1.39-3.28h-4.74L859,178.38h-.77Zm2.48,6.08-2.17-5.21-2.22,5.21ZM862.73,167l-.49-.22.86-1.19h.81Z"/><path class="cls-1" d="M868.76,178.38v-9.94h4.13a2.51,2.51,0,0,1,1.16.27,2.91,2.91,0,0,1,.92.71,3.13,3.13,0,0,1,.6,1,2.93,2.93,0,0,1,.22,1.11,3.41,3.41,0,0,1-.17,1.06,3.33,3.33,0,0,1-.47.92,2.82,2.82,0,0,1-.75.67,2.78,2.78,0,0,1-.95.35l2.48,3.86h-.83l-2.4-3.75h-3.22v3.75Zm.72-4.41H873a1.81,1.81,0,0,0,.87-.21,2.22,2.22,0,0,0,.67-.55,2.42,2.42,0,0,0,.43-.79,2.74,2.74,0,0,0,.15-.9,2.6,2.6,0,0,0-.66-1.69,2.23,2.23,0,0,0-.69-.54,1.85,1.85,0,0,0-.87-.2h-3.38Z"/><path class="cls-1" d="M884.47,177.74v.64h-6.62v-9.94h6.49v.65h-5.78V173h5.05v.62h-5.05v4.13Z"/><path class="cls-1" d="M889.53,168.44h.62l4.2,9.94h-.76l-1.39-3.28h-4.74l-1.39,3.28h-.76Zm2.48,6.08-2.17-5.21-2.21,5.21Z"/><path class="cls-1" d="M901.64,170.09a3.52,3.52,0,0,0-2.73-1.07,3.28,3.28,0,0,0-2.12.55,1.82,1.82,0,0,0-.67,1.49,1.68,1.68,0,0,0,.17.79,1.48,1.48,0,0,0,.52.54,3.37,3.37,0,0,0,.91.38c.36.1.8.21,1.31.32s1,.24,1.45.37a4.58,4.58,0,0,1,1.11.51,2.06,2.06,0,0,1,.94,1.86,2.35,2.35,0,0,1-.26,1.15,2.27,2.27,0,0,1-.72.82,3.46,3.46,0,0,1-1.12.49,5.5,5.5,0,0,1-1.45.17,5.57,5.57,0,0,1-3.93-1.48l.37-.57a4.81,4.81,0,0,0,1.54,1,5.17,5.17,0,0,0,2,.38,3.79,3.79,0,0,0,2-.47,1.61,1.61,0,0,0,.74-1.44,1.68,1.68,0,0,0-.2-.84,1.72,1.72,0,0,0-.58-.59,4.19,4.19,0,0,0-1-.44c-.39-.12-.85-.23-1.37-.34s-1-.24-1.41-.36a3.72,3.72,0,0,1-1-.48,1.88,1.88,0,0,1-.63-.69,2.21,2.21,0,0,1-.2-1,2.64,2.64,0,0,1,.25-1.19,2.68,2.68,0,0,1,.72-.88,3.59,3.59,0,0,1,1.11-.54,5.33,5.33,0,0,1,1.43-.18,4.88,4.88,0,0,1,1.72.29,4.08,4.08,0,0,1,1.37.87Z"/><path class="cls-1" d="M907.23,173.34a5.27,5.27,0,0,1,.32-1.78,4.67,4.67,0,0,1,.92-1.59,4.61,4.61,0,0,1,1.47-1.14,4.3,4.3,0,0,1,2-.44,4,4,0,0,1,2.26.61,3.68,3.68,0,0,1,1.4,1.56l-.58.33a3.6,3.6,0,0,0-.63-.87,3.15,3.15,0,0,0-.77-.56,3.3,3.3,0,0,0-.86-.32,4.48,4.48,0,0,0-.88-.1,3.53,3.53,0,0,0-1.68.39,4.13,4.13,0,0,0-1.23,1,4.18,4.18,0,0,0-.76,1.39,4.73,4.73,0,0,0-.26,1.56,4.75,4.75,0,0,0,1.15,3.09,3.94,3.94,0,0,0,1.25,1,3.51,3.51,0,0,0,1.57.36,3.8,3.8,0,0,0,.93-.11,3.49,3.49,0,0,0,.91-.35,3.83,3.83,0,0,0,.81-.61,3.14,3.14,0,0,0,.63-.87l.61.29a3.11,3.11,0,0,1-.68,1,4.33,4.33,0,0,1-1,.73,4.82,4.82,0,0,1-1.13.44,5.18,5.18,0,0,1-1.16.14A3.92,3.92,0,0,1,910,178a4.71,4.71,0,0,1-1.46-1.16,5.49,5.49,0,0,1-1-1.64A5.25,5.25,0,0,1,907.23,173.34Z"/><path class="cls-1" d="M921.54,178.45a4.11,4.11,0,0,1-1.89-.44,4.66,4.66,0,0,1-1.47-1.13,4.9,4.9,0,0,1-.95-1.61,5.15,5.15,0,0,1-.34-1.86,5.09,5.09,0,0,1,.36-1.9,5.27,5.27,0,0,1,1-1.61,4.47,4.47,0,0,1,1.47-1.11,4.3,4.3,0,0,1,3.75,0,4.91,4.91,0,0,1,1.47,1.16,5.43,5.43,0,0,1,1.28,3.44,5.29,5.29,0,0,1-1.34,3.52,4.92,4.92,0,0,1-1.48,1.11A4.24,4.24,0,0,1,921.54,178.45Zm-3.94-5a4.86,4.86,0,0,0,.29,1.65,4.54,4.54,0,0,0,.81,1.4,4.16,4.16,0,0,0,1.26,1,3.51,3.51,0,0,0,1.59.36,3.34,3.34,0,0,0,1.62-.38,3.84,3.84,0,0,0,1.23-1,4.77,4.77,0,0,0,1.07-3,4.76,4.76,0,0,0-.29-1.64,4.53,4.53,0,0,0-.82-1.4,4.2,4.2,0,0,0-1.24-1,3.62,3.62,0,0,0-3.19,0,3.92,3.92,0,0,0-1.25,1,4.65,4.65,0,0,0-.8,1.41A4.84,4.84,0,0,0,917.6,173.41Z"/><path class="cls-1" d="M937.11,178.38v-8.59l-3.92,6.7h-.44l-3.92-6.7v8.59h-.72v-9.94h.72l4.14,7.11,4.14-7.11h.72v9.94Z"/><path class="cls-1" d="M944.42,177.79a3.25,3.25,0,0,0,1.67-.38,2.94,2.94,0,0,0,1-1,4,4,0,0,0,.54-1.4,7.64,7.64,0,0,0,.17-1.58v-5h.71v5a7.85,7.85,0,0,1-.22,1.9,4.56,4.56,0,0,1-.7,1.6,3.5,3.5,0,0,1-1.28,1.1,4.78,4.78,0,0,1-3.92,0,3.51,3.51,0,0,1-1.28-1.13,4.58,4.58,0,0,1-.68-1.6,8.14,8.14,0,0,1-.21-1.85v-5H941v5a7.78,7.78,0,0,0,.16,1.61,3.91,3.91,0,0,0,.56,1.39,2.94,2.94,0,0,0,1.06,1A3.25,3.25,0,0,0,944.42,177.79Z"/><path class="cls-1" d="M951.72,169.79v8.59H951v-9.94h.54l7,8.75v-8.75h.72v9.94h-.66Z"/><path class="cls-1" d="M968.44,177.74v.64h-6.61v-9.94h6.49v.65h-5.78V173h5.05v.62h-5.05v4.13Z"/><path class="cls-1" d="M976.17,170.09a3.49,3.49,0,0,0-2.73-1.07,3.28,3.28,0,0,0-2.12.55,1.84,1.84,0,0,0-.66,1.49,1.68,1.68,0,0,0,.16.79,1.52,1.52,0,0,0,.53.54,3.43,3.43,0,0,0,.9.38c.36.1.8.21,1.32.32s1,.24,1.45.37a4.5,4.5,0,0,1,1.1.51,2.2,2.2,0,0,1,.7.76,2.29,2.29,0,0,1,.24,1.1,2.47,2.47,0,0,1-.25,1.15,2.39,2.39,0,0,1-.73.82,3.37,3.37,0,0,1-1.12.49,5.5,5.5,0,0,1-1.45.17,5.57,5.57,0,0,1-3.93-1.48l.38-.57a4.7,4.7,0,0,0,1.54,1,5.08,5.08,0,0,0,2,.38,3.76,3.76,0,0,0,2-.47,1.61,1.61,0,0,0,.74-1.44,1.68,1.68,0,0,0-.2-.84,1.72,1.72,0,0,0-.58-.59,4,4,0,0,0-1-.44c-.39-.12-.85-.23-1.37-.34s-1-.24-1.41-.36a4,4,0,0,1-1-.48,1.94,1.94,0,0,1-.62-.69,2.2,2.2,0,0,1-.21-1,2.51,2.51,0,0,1,.26-1.19,2.45,2.45,0,0,1,.72-.88,3.53,3.53,0,0,1,1.1-.54,5.33,5.33,0,0,1,1.43-.18,4.84,4.84,0,0,1,1.72.29,4,4,0,0,1,1.37.87Z"/><path class="cls-1" d="M914.17,52.59h-1.58V51A29.91,29.91,0,0,1,942.5,21.11h1.57v1.58A29.93,29.93,0,0,1,914.17,52.59Zm26.71-28.28A26.8,26.8,0,0,0,915.79,49.4,26.8,26.8,0,0,0,940.88,24.31Z"/><path class="cls-1" d="M900,63.61h-1.57A29.93,29.93,0,0,1,868.52,33.7V32.13h1.57A30,30,0,0,1,900,62ZM871.71,35.33A26.77,26.77,0,0,0,896.8,60.42,26.8,26.8,0,0,0,871.71,35.33Z"/><rect class="cls-1" x="904.72" y="28.98" width="3.15" height="55.09"/><path class="cls-1" d="M907.85,65.45l-3.11-.52c1.65-9.87,18.66-25.44,19.39-26.09l2.11,2.33C926.08,41.32,909.31,56.65,907.85,65.45Z"/><path class="cls-1" d="M904.94,73.87c-7.2-12-18.43-21.55-18.55-21.64l2-2.42c.48.41,11.76,10,19.23,22.44Z"/><path class="cls-1" d="M906.3,45.2l-1.12-1.11a23.76,23.76,0,0,1,0-33.54l1.12-1.11,1.11,1.11a23.74,23.74,0,0,1,0,33.54Zm0-31.22a20.59,20.59,0,0,0,0,26.68A20.62,20.62,0,0,0,906.3,14Z"/></g></g></svg>