<svg xmlns="http://www.w3.org/2000/svg" viewBox="0 0 272.72 1071.15"><defs><style>.cls-1{font-size:65.47px;}.cls-1,.cls-2,.cls-3,.cls-4,.cls-5{fill:#9c9b9b;}.cls-1,.cls-5{font-family:Raleway-Medium, Raleway;}.cls-2{font-size:25px;font-family:Raleway-Light, Raleway;}.cls-4{stroke:#9c9b9b;stroke-miterlimit:10;}.cls-5{font-size:35.32px;}</style></defs><title>Asset 14</title><g id="Layer_2" data-name="Layer 2"><g id="Layer_1-2" data-name="Layer 1"><text class="cls-1" transform="translate(116.78 456.8)">8</text><text class="cls-2" transform="translate(85.12 499.79)">NIVELES</text><polygon class="cls-3" points="143.71 382.67 143.52 382.68 143.37 382.67 143.37 382.68 93.83 384.33 93.83 388.65 143.41 388.65 143.74 388.65 178.89 388.65 178.89 384.33 143.71 382.69 143.71 382.67"/><polygon class="cls-3" points="143.71 368.38 93.83 373.97 93.83 378.32 143.71 374.4 143.71 368.38"/><polygon class="cls-3" points="143.71 353.72 93.83 363.34 93.83 367.69 143.71 359.74 143.71 353.72"/><polygon class="cls-3" points="143.71 339.44 93.83 352.98 93.83 357.33 143.71 345.46 143.71 339.44"/><polygon class="cls-3" points="143.71 324.4 93.83 342.06 93.83 346.43 143.71 330.41 143.71 324.4"/><polygon class="cls-3" points="143.71 310.11 93.83 331.71 93.83 336.07 143.71 316.13 143.71 310.11"/><polygon class="cls-3" points="143.71 295.45 93.83 321.07 93.83 325.44 143.71 301.47 143.71 295.45"/><polygon class="cls-3" points="143.71 281.44 143.71 281.17 143.52 281.28 143.37 281.17 143.37 281.36 93.83 310.72 93.83 315.08 143.54 287.29 178.89 315.08 178.89 310.72 143.71 281.44"/><text class="cls-1" transform="translate(82.22 180.53)">168</text><text class="cls-2" transform="translate(26.61 223.52)">DEPARTAMENTOS</text><path class="cls-4" d="M118,.5V49.08h-13v54.26h22v13.44h41V.5Zm-4.13,74.81H107V72.85h6.85Zm0,.77v1.55H107V76.08Zm0-19.77H107V53.86h6.85Zm0,.65v2.46H107V57Zm0,3.23v2.46H107V60.19Zm0,3.1v2.46H107V63.29Zm0,3.23V69H107V66.52Zm0,3.23v2.46H107V69.75Zm0-18.6v1.93H107V51.15Zm15,63.56V79.31h-2.06v22H107V79.7h8.91V72.59H128.8V66.91h-2.06v3.62H115.88V51.15H120v-20h24.8V29.05H120V2.57h23.77v20c-3.49,1.17-4,5.3-4,5.3l.78.13a7,7,0,0,1,.9-2.58A4.67,4.67,0,0,1,145.34,23H146V2.57h6.33V15.23h1.16a4.57,4.57,0,0,1,3.62,2.32A6.12,6.12,0,0,1,158,20h.78s-.65-4.91-5.17-5.43v-12h12.27V21H153v2.07h12.92v34.5H135.26v24.8a3.28,3.28,0,0,1-.38.65,5.5,5.5,0,0,1-5,2.84v.78a6.46,6.46,0,0,0,5.68-3.23,3.89,3.89,0,0,0,.52-1h12.4V80.35H137.33V59.67h28.29v20.8h-9.94v2.07h9.94v32.17Z"/><text class="cls-1" transform="translate(94 735.76)">PB</text><text class="cls-2" transform="translate(25.71 778.75)">ZONA COMERCIAL</text><path class="cls-3" d="M186,631H171.42a17,17,0,0,0-32.49,0H124.39a1.81,1.81,0,0,0-1.71,1.54l-3.42,34.2a1.94,1.94,0,0,0,.51,1.37,1.85,1.85,0,0,0,1.2.52h68.41a1.35,1.35,0,0,0,1.2-.52,1.94,1.94,0,0,0,.51-1.37l-3.42-34.2A1.81,1.81,0,0,0,186,631Zm-30.79-8.55A13.59,13.59,0,0,1,167.83,631H142.52A13.59,13.59,0,0,1,155.17,622.41Zm-32.32,42.75.51-5.13h54.05v-3.42H123.7l2.23-22.23h12.14v2a5.14,5.14,0,1,0,3.25,0v-.34a5.85,5.85,0,0,1,.17-1.71h27.2c0,.51.17,1.2.17,1.71v.34a5.14,5.14,0,1,0,3.25,0c0-.17,0-.17.17-.34v-1.71h12.14l3.08,30.78Zm16.93-25.65a1.71,1.71,0,1,1-1.71,1.71A1.61,1.61,0,0,1,139.78,639.51Zm30.79,0a1.71,1.71,0,1,1-1.71,1.71A1.62,1.62,0,0,1,170.57,639.51Z"/><path class="cls-3" d="M114.12,665.16H85.22l.34-5.13H109v-3.42H85.56L88.47,607h5.3v2a5.14,5.14,0,1,0,3.25,0v-.34a5.88,5.88,0,0,1,.17-1.71h27.2c0,.52.17,1.2.17,1.71v.34a5.14,5.14,0,1,0,6.5,3.25,5.15,5.15,0,0,0-3.25-3.25c0-.17.17-.17.17-.34V607h5.3l1,19a1.69,1.69,0,0,0,1.71,1.54,1.62,1.62,0,0,0,1.71-1.71v-.17l-1.2-20.53a1.69,1.69,0,0,0-1.71-1.54h-7.7a17,17,0,0,0-32.49,0H86.76a1.69,1.69,0,0,0-1.71,1.54L81.63,666.7a2.27,2.27,0,0,0,.51,1.37,1.56,1.56,0,0,0,1.2.52h30.78a1.72,1.72,0,1,0,0-3.43Zm-18.81-49.6A1.71,1.71,0,1,1,97,613.85,1.61,1.61,0,0,1,95.31,615.56Zm30.79,0a1.71,1.71,0,1,1,1.71-1.71A1.61,1.61,0,0,1,126.1,615.56ZM110.7,595a13.59,13.59,0,0,1,12.66,8.55H98.05A13.59,13.59,0,0,1,110.7,595Z"/><path class="cls-3" d="M128.15,598.46a1.69,1.69,0,0,0,1.71-1.54l1.37-22.4h5.3v2.05a5.14,5.14,0,1,0,3.25,0v-.34a5.82,5.82,0,0,1,.17-1.71h27.2c0,.51.17,1.19.17,1.71v.34a5.14,5.14,0,1,0,3.25,0c0-.17,0-.17.17-.34v-1.71H176L179,626a1.69,1.69,0,0,0,1.71,1.54h.17a1.55,1.55,0,0,0,1.54-1.88h0l-3.25-53a1.7,1.7,0,0,0-1.71-1.54h-7.7a17,17,0,0,0-32.5,0h-7.69a1.69,1.69,0,0,0-1.71,1.54l-1.37,24a1.75,1.75,0,0,0,1.71,1.88Zm9.92-15.39a1.71,1.71,0,1,1,1.71-1.71A1.62,1.62,0,0,1,138.07,583.07Zm30.79,0a1.71,1.71,0,1,1,1.71-1.71A1.62,1.62,0,0,1,168.86,583.07Zm-15.4-20.53a13.59,13.59,0,0,1,12.66,8.55H140.81A13.59,13.59,0,0,1,153.46,562.54Z"/><text class="cls-5" transform="translate(51.37 979.36)">ESPACIOS<tspan x="-51.37" y="42.38">SUSTENTABLES</tspan></text><text class="cls-2" transform="translate(9.06 1065.58)">EN ÁREAS COMUNES</text><path class="cls-3" d="M146.25,895.49h-2v-2a37.57,37.57,0,0,1,37.58-37.59h2v2A37.64,37.64,0,0,1,146.25,895.49Zm33.57-35.55a33.67,33.67,0,0,0-31.53,31.53A33.67,33.67,0,0,0,179.82,859.94Z"/><path class="cls-3" d="M128.45,909.34h-2a37.64,37.64,0,0,1-37.59-37.59v-2h2a37.63,37.63,0,0,1,37.59,37.59ZM92.9,873.78a33.64,33.64,0,0,0,31.53,31.54A33.69,33.69,0,0,0,92.9,873.78Z"/><rect class="cls-3" x="134.38" y="865.81" width="3.96" height="69.25"/><path class="cls-3" d="M138.31,911.64l-3.9-.65c2.07-12.41,23.45-32,24.36-32.79l2.66,2.92C161.22,881.32,140.15,900.58,138.31,911.64Z"/><path class="cls-3" d="M134.66,922.22c-9-15.12-23.17-27.08-23.31-27.2l2.54-3c.6.51,14.78,12.52,24.17,28.2Z"/><path class="cls-3" d="M136.36,886.2l-1.4-1.4a29.84,29.84,0,0,1,0-42.15l1.4-1.4,1.4,1.4a29.84,29.84,0,0,1,0,42.15Zm0-39.24a25.9,25.9,0,0,0,0,33.53A25.89,25.89,0,0,0,136.36,847Z"/></g></g></svg>