<svg xmlns="http://www.w3.org/2000/svg" viewBox="0 0 46 46"><defs><style>.cls-1{fill:#0a4986;}.cls-2{fill:#fff;}</style></defs><title>instagram</title><g id="Layer_2" data-name="Layer 2"><g id="Layer_1-2" data-name="Layer 1"><path class="cls-1" d="M11.5,0h23A11.5,11.5,0,0,1,46,11.5V46a0,0,0,0,1,0,0H0a0,0,0,0,1,0,0V11.5A11.5,11.5,0,0,1,11.5,0Z" transform="translate(0 46) rotate(-90)"/><g id="_Group_" data-name="&lt;Group&gt;"><path id="_Path_" data-name="&lt;Path&gt;" class="cls-2" d="M17.4,13.46H28.6a4.8,4.8,0,0,1,4.8,4.8v11.2a4.8,4.8,0,0,1-4.8,4.8H17.4a4.8,4.8,0,0,1-4.8-4.8V18.36A4.76,4.76,0,0,1,17.4,13.46Z"/><circle id="_Path_2" data-name="&lt;Path&gt;" class="cls-1" cx="23" cy="23.96" r="4.8"/><circle id="_Path_3" data-name="&lt;Path&gt;" class="cls-1" cx="29.2" cy="17.46" r="1.2"/></g></g></g></svg>