<svg xmlns="http://www.w3.org/2000/svg" viewBox="0 0 461.74 130.71"><defs><style>.cls-1{fill:#fff;}</style></defs><title>oasis</title><g id="Layer_2" data-name="Layer 2"><g id="Layer_1-2" data-name="Layer 1"><path class="cls-1" d="M13.19,77.92A8.16,8.16,0,0,0,17.25,77a7,7,0,0,0,2.55-2.42,10.24,10.24,0,0,0,1.33-3.4,19,19,0,0,0,.39-3.84V55.21h1.73V67.34A20,20,0,0,1,22.73,72,11.37,11.37,0,0,1,21,75.86a8.64,8.64,0,0,1-3.1,2.67,10.08,10.08,0,0,1-4.69,1,10.18,10.18,0,0,1-4.83-1,8.57,8.57,0,0,1-3.11-2.76,11,11,0,0,1-1.66-3.89,20.19,20.19,0,0,1-.5-4.49V55.21H4.86V67.34a19.42,19.42,0,0,0,.39,3.91,9.62,9.62,0,0,0,1.36,3.39A7.27,7.27,0,0,0,9.18,77,8.07,8.07,0,0,0,13.19,77.92Z"/><path class="cls-1" d="M30.94,58.47V79.34H29.2V55.21h1.33L47.46,76.46V55.21h1.73V79.34H47.6Z"/><path class="cls-1" d="M73.84,79.51a10.06,10.06,0,0,1-4.59-1.05,11.93,11.93,0,0,1-3.57-2.75,12.68,12.68,0,0,1-2.31-3.91,13.08,13.08,0,0,1-.81-4.53,12.5,12.5,0,0,1,.86-4.62,12.94,12.94,0,0,1,2.38-3.91A11.51,11.51,0,0,1,69.39,56a10.15,10.15,0,0,1,4.49-1,9.86,9.86,0,0,1,4.6,1.07,11.3,11.3,0,0,1,3.57,2.8,12.9,12.9,0,0,1,2.3,3.93,12.71,12.71,0,0,1,.82,4.43,12.57,12.57,0,0,1-.87,4.66,12.77,12.77,0,0,1-2.38,3.9,11.61,11.61,0,0,1-3.59,2.68A10.15,10.15,0,0,1,73.84,79.51ZM64.29,67.27a11.5,11.5,0,0,0,.7,4,10.75,10.75,0,0,0,2,3.4A9.62,9.62,0,0,0,70,77a8.55,8.55,0,0,0,3.88.89A8.3,8.3,0,0,0,77.8,77a9.56,9.56,0,0,0,3-2.43,11.7,11.7,0,0,0,1.92-3.42,11.53,11.53,0,0,0,.68-3.88,11.27,11.27,0,0,0-.72-4,11,11,0,0,0-2-3.4,9.81,9.81,0,0,0-3-2.36,8.29,8.29,0,0,0-3.81-.89,8.49,8.49,0,0,0-3.95.92,9.64,9.64,0,0,0-3,2.43A11.11,11.11,0,0,0,65,63.4,11.52,11.52,0,0,0,64.29,67.27Z"/><path class="cls-1" d="M97.4,55.21h1.5l10.2,24.13h-1.83l-3.37-8H92.37l-3.36,8H87.14Zm6,14.75L98.15,57.31,92.78,70Z"/><path class="cls-1" d="M126.81,59.22a8.41,8.41,0,0,0-6.62-2.62q-3.54,0-5.16,1.34a4.48,4.48,0,0,0-1.61,3.62,4,4,0,0,0,.41,1.92,3.45,3.45,0,0,0,1.27,1.31,8.29,8.29,0,0,0,2.19.92c.89.25,1.95.51,3.2.78s2.47.58,3.52.9a10.65,10.65,0,0,1,2.69,1.24,5.41,5.41,0,0,1,1.7,1.84,5.63,5.63,0,0,1,.59,2.69,5.85,5.85,0,0,1-.63,2.78,5.54,5.54,0,0,1-1.77,2,8.07,8.07,0,0,1-2.72,1.21,14.12,14.12,0,0,1-3.52.41,13.55,13.55,0,0,1-9.55-3.61l.92-1.39a10.89,10.89,0,0,0,3.74,2.53,12.5,12.5,0,0,0,5,.94,9.06,9.06,0,0,0,5-1.16,3.89,3.89,0,0,0,1.78-3.5,4,4,0,0,0-.47-2,4.32,4.32,0,0,0-1.41-1.45,9.2,9.2,0,0,0-2.37-1c-1-.3-2.06-.58-3.33-.85s-2.43-.56-3.41-.87A9,9,0,0,1,113.67,66a4.66,4.66,0,0,1-1.51-1.69,5.34,5.34,0,0,1-.51-2.48,6.37,6.37,0,0,1,.63-2.89A6,6,0,0,1,114,56.79a7.67,7.67,0,0,1,2.69-1.31,12.48,12.48,0,0,1,3.47-.44,11.86,11.86,0,0,1,4.18.69,9.9,9.9,0,0,1,3.33,2.13Z"/><path class="cls-1" d="M133.34,79.34V55.21h1.74V79.34Z"/><path class="cls-1" d="M155.44,59.22a8.42,8.42,0,0,0-6.63-2.62c-2.36,0-4.07.45-5.15,1.34a4.45,4.45,0,0,0-1.61,3.62,4.08,4.08,0,0,0,.4,1.92,3.55,3.55,0,0,0,1.28,1.31,8.29,8.29,0,0,0,2.19.92c.89.25,2,.51,3.2.78s2.46.58,3.52.9a10.42,10.42,0,0,1,2.68,1.24,5.22,5.22,0,0,1,1.7,1.84,5.52,5.52,0,0,1,.6,2.69,5.85,5.85,0,0,1-.63,2.78,5.54,5.54,0,0,1-1.77,2,8.07,8.07,0,0,1-2.72,1.21,14.17,14.17,0,0,1-3.52.41,13.54,13.54,0,0,1-9.55-3.61l.92-1.39a10.89,10.89,0,0,0,3.74,2.53,12.46,12.46,0,0,0,5,.94A9.06,9.06,0,0,0,154,76.86a3.89,3.89,0,0,0,1.78-3.5,4.08,4.08,0,0,0-.47-2,4.32,4.32,0,0,0-1.41-1.45,9.36,9.36,0,0,0-2.37-1c-.95-.3-2.06-.58-3.33-.85s-2.43-.56-3.42-.87A9.06,9.06,0,0,1,142.3,66a4.66,4.66,0,0,1-1.51-1.69,5.34,5.34,0,0,1-.51-2.48,6.37,6.37,0,0,1,.63-2.89,6,6,0,0,1,1.75-2.12,7.71,7.71,0,0,1,2.68-1.31,12.58,12.58,0,0,1,3.47-.44,11.78,11.78,0,0,1,4.18.69,9.84,9.84,0,0,1,3.34,2.13Z"/><path class="cls-1" d="M169,67.1a12.89,12.89,0,0,1,.77-4.33A12,12,0,0,1,172,58.91a11.51,11.51,0,0,1,3.59-2.77,10.68,10.68,0,0,1,4.85-1.07,9.82,9.82,0,0,1,5.5,1.48,9.23,9.23,0,0,1,3.4,3.79l-1.42.81a8,8,0,0,0-1.52-2.1,7.85,7.85,0,0,0-1.87-1.38,8.35,8.35,0,0,0-2.09-.77,10.53,10.53,0,0,0-2.14-.23,8.64,8.64,0,0,0-4.08.93,9.75,9.75,0,0,0-3,2.43,10.56,10.56,0,0,0-1.86,3.39,12.13,12.13,0,0,0-.62,3.79,11.35,11.35,0,0,0,2.78,7.49,10,10,0,0,0,3.06,2.37,8.4,8.4,0,0,0,3.81.88,9.87,9.87,0,0,0,2.25-.27,9,9,0,0,0,2.21-.85,9.16,9.16,0,0,0,2-1.48,7.94,7.94,0,0,0,1.53-2.13l1.49.72a7.86,7.86,0,0,1-1.66,2.41,10.36,10.36,0,0,1-2.35,1.77,11.07,11.07,0,0,1-2.73,1.07,11.76,11.76,0,0,1-2.84.36,9.49,9.49,0,0,1-4.54-1.09,12,12,0,0,1-3.56-2.84,13.17,13.17,0,0,1-2.32-4A12.72,12.72,0,0,1,169,67.1Z"/><path class="cls-1" d="M210.25,77.78v1.56H194.17V55.21h15.77v1.56h-14v9.48h12.28v1.5H195.9v10Z"/><path class="cls-1" d="M215,79.34V55.21h10a6.24,6.24,0,0,1,2.82.64,7.06,7.06,0,0,1,2.22,1.72A8.25,8.25,0,0,1,231.52,60a7.39,7.39,0,0,1,.52,2.7,8.22,8.22,0,0,1-.4,2.57,7.75,7.75,0,0,1-1.16,2.23,6.51,6.51,0,0,1-1.8,1.63,6.3,6.3,0,0,1-2.32.85l6,9.38h-2l-5.85-9.11h-7.82v9.11Zm1.73-10.71h8.47a4.38,4.38,0,0,0,2.1-.51,5,5,0,0,0,1.63-1.34,5.85,5.85,0,0,0,1-1.9,6.9,6.9,0,0,0,.36-2.2,5.81,5.81,0,0,0-.43-2.22,6,6,0,0,0-2.85-3.2,4.53,4.53,0,0,0-2.09-.49h-8.23Z"/><path class="cls-1" d="M235.37,67.1a12.89,12.89,0,0,1,.77-4.33,11.89,11.89,0,0,1,2.23-3.86A11.47,11.47,0,0,1,242,56.14a10.68,10.68,0,0,1,4.85-1.07,9.88,9.88,0,0,1,5.51,1.48,9.37,9.37,0,0,1,3.4,3.79l-1.43.81a8.26,8.26,0,0,0-1.51-2.1,8.06,8.06,0,0,0-1.87-1.38,8.42,8.42,0,0,0-2.1-.77,10.53,10.53,0,0,0-2.14-.23,8.64,8.64,0,0,0-4.08.93,9.87,9.87,0,0,0-3,2.43,10.54,10.54,0,0,0-1.85,3.39,11.86,11.86,0,0,0-.63,3.79,11.23,11.23,0,0,0,.75,4.08,10.94,10.94,0,0,0,2,3.41A9.85,9.85,0,0,0,243,77.07a8.33,8.33,0,0,0,3.8.88,9.87,9.87,0,0,0,2.25-.27,8.86,8.86,0,0,0,2.21-.85,9.16,9.16,0,0,0,2-1.48,7.94,7.94,0,0,0,1.53-2.13l1.5.72a8.07,8.07,0,0,1-1.67,2.41,10.14,10.14,0,0,1-2.35,1.77,11.07,11.07,0,0,1-2.73,1.07,11.76,11.76,0,0,1-2.84.36,9.49,9.49,0,0,1-4.54-1.09,11.81,11.81,0,0,1-3.55-2.84,13,13,0,0,1-2.33-4A12.72,12.72,0,0,1,235.37,67.1Z"/><path class="cls-1" d="M268.08,55.21h1.5l10.2,24.13h-1.84l-3.36-8H263.05l-3.37,8h-1.87Zm6,14.75-5.27-12.65L263.46,70Z"/><path class="cls-1" d="M292.19,79.34V55.21h8a12.29,12.29,0,0,1,5,.95,10,10,0,0,1,3.58,2.58A10.58,10.58,0,0,1,311,62.57a14.88,14.88,0,0,1,.72,4.67,14.7,14.7,0,0,1-.8,5,10.6,10.6,0,0,1-2.3,3.81A10.22,10.22,0,0,1,305,78.48a12.35,12.35,0,0,1-4.74.86Zm17.75-12.1a13.12,13.12,0,0,0-.65-4.2,9.39,9.39,0,0,0-1.89-3.31,8.6,8.6,0,0,0-3-2.18,10.38,10.38,0,0,0-4.15-.78h-6.29v21h6.29a10.38,10.38,0,0,0,4.2-.8,8.23,8.23,0,0,0,3-2.23,9.64,9.64,0,0,0,1.86-3.34A13.35,13.35,0,0,0,309.94,67.24Z"/><path class="cls-1" d="M332.51,77.78v1.56H316.43V55.21h15.78v1.56h-14v9.48h12.28v1.5H318.16v10Z"/><path class="cls-1" d="M337.24,79.34V55.21H339V77.78h14.42v1.56Z"/><path class="cls-1" d="M364.06,67.1a12.89,12.89,0,0,1,.77-4.33,12,12,0,0,1,2.22-3.86,11.51,11.51,0,0,1,3.59-2.77,10.68,10.68,0,0,1,4.85-1.07,9.82,9.82,0,0,1,5.5,1.48,9.23,9.23,0,0,1,3.4,3.79l-1.42.81a8.28,8.28,0,0,0-1.52-2.1,7.85,7.85,0,0,0-1.87-1.38,8.35,8.35,0,0,0-2.09-.77,10.53,10.53,0,0,0-2.14-.23,8.64,8.64,0,0,0-4.08.93,9.75,9.75,0,0,0-3,2.43,10.35,10.35,0,0,0-1.85,3.39,11.86,11.86,0,0,0-.63,3.79,11.35,11.35,0,0,0,2.78,7.49,10,10,0,0,0,3.06,2.37,8.4,8.4,0,0,0,3.81.88,9.87,9.87,0,0,0,2.25-.27,9,9,0,0,0,2.21-.85,9.16,9.16,0,0,0,2-1.48,7.94,7.94,0,0,0,1.53-2.13l1.49.72a7.86,7.86,0,0,1-1.66,2.41,10.58,10.58,0,0,1-2.35,1.77,11,11,0,0,1-2.74,1.07,11.68,11.68,0,0,1-2.83.36,9.49,9.49,0,0,1-4.54-1.09,11.85,11.85,0,0,1-3.56-2.84,13.17,13.17,0,0,1-2.32-4A12.72,12.72,0,0,1,364.06,67.1Z"/><path class="cls-1" d="M389.19,79.34V55.21h1.73V79.34Z"/><path class="cls-1" d="M413.33,77.78v1.56H397.25V55.21H413v1.56H399v9.48h12.27v1.5H399v10Z"/><path class="cls-1" d="M418.05,79.34V55.21h1.74V77.78H434.2v1.56Z"/><path class="cls-1" d="M447.43,79.51a10,10,0,0,1-4.59-1.05,11.93,11.93,0,0,1-3.57-2.75A12.3,12.3,0,0,1,437,71.8a12.86,12.86,0,0,1-.82-4.53,12.51,12.51,0,0,1,.87-4.62,12.94,12.94,0,0,1,2.38-3.91A11.4,11.4,0,0,1,443,56a10.11,10.11,0,0,1,4.48-1,9.87,9.87,0,0,1,4.61,1.07,11.53,11.53,0,0,1,3.57,2.8,13.11,13.11,0,0,1,2.3,3.93,12.7,12.7,0,0,1,.81,4.43,12.88,12.88,0,0,1-3.25,8.56,11.45,11.45,0,0,1-3.58,2.68A10.18,10.18,0,0,1,447.43,79.51Zm-9.55-12.24a11.72,11.72,0,0,0,.69,4,10.94,10.94,0,0,0,2,3.4,9.66,9.66,0,0,0,3,2.36,8.53,8.53,0,0,0,3.87.89,8.37,8.37,0,0,0,3.93-.92,9.53,9.53,0,0,0,3-2.43,11.68,11.68,0,0,0,2.6-7.3,11.49,11.49,0,0,0-.71-4,11.19,11.19,0,0,0-2-3.4,9.73,9.73,0,0,0-3-2.36,8.26,8.26,0,0,0-3.81-.89,8.44,8.44,0,0,0-3.94.92,9.68,9.68,0,0,0-3,2.43,11.08,11.08,0,0,0-1.93,3.42A11.27,11.27,0,0,0,437.88,67.27Z"/><rect class="cls-1" y="43.35" width="461.74" height="1"/><rect class="cls-1" y="90.85" width="461.74" height="1"/><rect class="cls-1" x="139.28" y="21.6" width="61.52" height="1" transform="translate(34.17 126.71) rotate(-45)"/><rect class="cls-1" x="53.71" y="110.35" width="55.15" height="1" transform="translate(-54.58 89.95) rotate(-45)"/></g></g></svg>