<svg xmlns="http://www.w3.org/2000/svg" viewBox="0 0 27.84 64.34"><defs><style>.cls-1{fill:#9c9b9b;}</style></defs><title>scroll-down</title><g id="Layer_2" data-name="Layer 2"><g id="Layer_1-2" data-name="Layer 1"><path class="cls-1" d="M13.92,43.37A13.9,13.9,0,0,1,0,29.51V13.87a13.92,13.92,0,0,1,27.84,0V29.51A13.91,13.91,0,0,1,13.92,43.37Zm0-40.66A11.2,11.2,0,0,0,2.71,13.87V29.51a11.21,11.21,0,0,0,22.42,0V13.87A11.2,11.2,0,0,0,13.92,2.71Z"/><ellipse class="cls-1" cx="13.92" cy="13.24" rx="3.83" ry="3.9"/><polygon class="cls-1" points="13.92 56.09 2.1 47.22 3.75 45.02 13.92 52.65 24.09 45.02 25.74 47.22 13.92 56.09"/><polygon class="cls-1" points="13.92 64.33 2.1 55.47 3.75 53.27 13.92 60.9 24.09 53.27 25.74 55.47 13.92 64.33"/></g></g></svg>