<svg xmlns="http://www.w3.org/2000/svg" xmlns:xlink="http://www.w3.org/1999/xlink" viewBox="0 0 189.48 243.41"><defs><style>.cls-1{fill:none;}.cls-2{opacity:0.45;}.cls-3{clip-path:url(#clip-path);}.cls-4{fill:#fff;}.cls-5{fill:#9c9b9b;}.cls-6{fill:#0a4986;}.cls-7{fill:#76b72a;}</style><clipPath id="clip-path" transform="translate(-1.09)"><rect class="cls-1" y="147.75" width="190.07" height="96.74"/></clipPath></defs><title>skypark-logo</title><g id="Layer_2" data-name="Layer 2"><g id="Layer_1-2" data-name="Layer 1"><g class="cls-2"><g class="cls-3"><polygon class="cls-4" points="187.89 148.84 0 148.84 93.94 243.41 187.89 148.84"/></g></g><rect class="cls-4" x="0.48" width="189" height="189"/><path class="cls-5" d="M28.9,101.82v17.34H25V94.54h3l14.08,17.75V94.58h3.92v24.58H42.83Z" transform="translate(-1.09)"/><path class="cls-5" d="M68.93,115.83a6.19,6.19,0,0,0,3.22-.76,6,6,0,0,0,2.06-2,8.52,8.52,0,0,0,1.11-2.81,15.93,15.93,0,0,0,.33-3.25V94.54h3.92V107a18.78,18.78,0,0,1-.59,4.77,11,11,0,0,1-1.87,3.92,8.93,8.93,0,0,1-3.31,2.65,11.16,11.16,0,0,1-4.87,1,11,11,0,0,1-5-1,9,9,0,0,1-3.27-2.74,11.07,11.07,0,0,1-1.81-3.93,19,19,0,0,1-.55-4.62V94.54H62.2V107a15.93,15.93,0,0,0,.33,3.28,8.43,8.43,0,0,0,1.11,2.81,5.9,5.9,0,0,0,2.08,2A6.46,6.46,0,0,0,68.93,115.83Z" transform="translate(-1.09)"/><path class="cls-5" d="M108.7,115.73v3.43H91.82V94.54h16.57V98H95.7v7h11v3.22h-11v7.53Z" transform="translate(-1.09)"/><path class="cls-5" d="M121.68,94.54l7.45,19.73,7.39-19.73h4.09l-9.81,24.62h-3.33l-9.92-24.62Z" transform="translate(-1.09)"/><path class="cls-5" d="M167.21,115.73v3.43H150.33V94.54H166.9V98H154.21v7h11v3.22h-11v7.53Z" transform="translate(-1.09)"/><path class="cls-6" d="M116.7,87.6V67.26l-7.92,15.15h-3.25L97.62,67.26V87.6h-6V56.88h6.41l9.08,17.48,9.18-17.48h6.36V87.6Z" transform="translate(-1.09)"/><path class="cls-6" d="M131.06,87.6V56.92h6V87.6Z" transform="translate(-1.09)"/><path class="cls-6" d="M145.44,87.6V56.88h6V82.37h15.66V87.6Z" transform="translate(-1.09)"/><path class="cls-6" d="M48.89,59.42a4.28,4.28,0,0,0-1.54-1.05,5.64,5.64,0,0,0-2.18-.4,4.13,4.13,0,0,0-2.65.68,2.26,2.26,0,0,0-.82,1.85,2,2,0,0,0,.22,1,1.88,1.88,0,0,0,.69.68,4.58,4.58,0,0,0,1.19.5c.48.14,1,.28,1.69.42s1.39.33,2,.51a5.65,5.65,0,0,1,1.48.71,3.07,3.07,0,0,1,.94,1.06,3.35,3.35,0,0,1,.32,1.54,3.5,3.5,0,0,1-.36,1.63,3.3,3.3,0,0,1-1,1.15,4.67,4.67,0,0,1-1.55.68,8.58,8.58,0,0,1-2,.22,8,8,0,0,1-5.46-2l.65-1.09a5.92,5.92,0,0,0,2,1.33,7,7,0,0,0,2.82.55,4.72,4.72,0,0,0,2.55-.58A2.22,2.22,0,0,0,48.53,66a2.22,2.22,0,0,0-.77-.75,5.9,5.9,0,0,0-1.3-.55c-.52-.15-1.11-.3-1.79-.46s-1.34-.33-1.88-.51a5.31,5.31,0,0,1-1.35-.67,2.62,2.62,0,0,1-.82-1,3.08,3.08,0,0,1-.28-1.39A3.91,3.91,0,0,1,40.69,59a3.42,3.42,0,0,1,1-1.23A4.74,4.74,0,0,1,43.22,57a6.81,6.81,0,0,1,2-.26,6.71,6.71,0,0,1,2.4.41,6.53,6.53,0,0,1,1.93,1.16Z" transform="translate(-1.09)"/><path class="cls-6" d="M56.8,70.48V56.89h1.33v7.9l7.49-7.92H67.1l-5.56,6,5.86,7.63H65.93l-5.22-6.84L58.13,66.3v4.18Z" transform="translate(-1.09)"/><path class="cls-6" d="M73.82,56.87l4.47,7.33,4.48-7.33h1.46l-5.29,8.55v5.06H77.62V65.39l-5.25-8.52Z" transform="translate(-1.09)"/><path class="cls-6" d="M25.06,87.59V74H30.7a3.58,3.58,0,0,1,1.62.38,4.2,4.2,0,0,1,1.27,1,4.52,4.52,0,0,1,1.13,2.92,4.68,4.68,0,0,1-.28,1.62,4.24,4.24,0,0,1-.79,1.37,4,4,0,0,1-1.24,1,3.52,3.52,0,0,1-1.6.36H26.38v5Zm1.32-6.21h4.35a2.22,2.22,0,0,0,1.09-.26,2.73,2.73,0,0,0,.83-.68,3.32,3.32,0,0,0,.54-1,3.6,3.6,0,0,0,.19-1.18,3.23,3.23,0,0,0-.22-1.2,3.4,3.4,0,0,0-.6-1,2.61,2.61,0,0,0-.88-.66,2.45,2.45,0,0,0-1.06-.24H26.38Z" transform="translate(-1.09)"/><path class="cls-6" d="M38.58,87.59,44.27,74h1.09l5.7,13.61H49.62l-1.77-4.25H41.74L40,87.59Zm6.25-12L42,82.28h5.52Z" transform="translate(-1.09)"/><path class="cls-6" d="M57.09,87.59V74h5.73a3.62,3.62,0,0,1,1.63.38,4.12,4.12,0,0,1,1.28,1,4.52,4.52,0,0,1,1.13,2.92,4.55,4.55,0,0,1-.22,1.43A4.25,4.25,0,0,1,66,80.91a3.64,3.64,0,0,1-1,.92,3.37,3.37,0,0,1-1.25.51l3.36,5.25H65.65l-3.22-5h-4v5Zm1.32-6.21h4.46A2.22,2.22,0,0,0,64,81.12a2.62,2.62,0,0,0,.83-.69,3.57,3.57,0,0,0,.54-1,3.5,3.5,0,0,0,.19-1.17,3.17,3.17,0,0,0-.22-1.18,3.28,3.28,0,0,0-.6-1,2.78,2.78,0,0,0-.88-.67,2.46,2.46,0,0,0-1.06-.25H58.41Z" transform="translate(-1.09)"/><path class="cls-6" d="M73.8,87.59V74h1.33v7.9L82.62,74H84.1l-5.56,6,5.86,7.62H82.93l-5.22-6.84-2.58,2.67v4.17Z" transform="translate(-1.09)"/><rect class="cls-5" x="158.47" y="56.81" width="7.38" height="7.38"/><path class="cls-5" d="M56.8,145l.06,2.2h-.2a2.27,2.27,0,0,0-.7-1.33,1.72,1.72,0,0,0-1.19-.51,1.11,1.11,0,0,0-.79.27.82.82,0,0,0-.29.61.81.81,0,0,0,.1.39,1.79,1.79,0,0,0,.46.45,8.8,8.8,0,0,0,1,.57,4.63,4.63,0,0,1,1.57,1.08,1.85,1.85,0,0,1,.39,1.16,1.87,1.87,0,0,1-.64,1.42,2.32,2.32,0,0,1-1.64.6,2.81,2.81,0,0,1-.59-.06q-.27-.08-.69-.24a1,1,0,0,0-.39-.1.48.48,0,0,0-.27.1.69.69,0,0,0-.23.29h-.17v-2.49h.17a2.85,2.85,0,0,0,.83,1.6,2,2,0,0,0,1.32.56,1.24,1.24,0,0,0,.87-.3.93.93,0,0,0,.32-.69.89.89,0,0,0-.12-.45,1.48,1.48,0,0,0-.38-.42,5.87,5.87,0,0,0-.9-.51,7.65,7.65,0,0,1-1.29-.76,2.22,2.22,0,0,1-.61-.7,1.69,1.69,0,0,1-.21-.84,1.79,1.79,0,0,1,.58-1.35,2,2,0,0,1,1.46-.55,2.57,2.57,0,0,1,.62.08,3.37,3.37,0,0,1,.56.21,1.23,1.23,0,0,0,.46.16.24.24,0,0,0,.2-.08.92.92,0,0,0,.14-.37Z" transform="translate(-1.09)"/><path class="cls-5" d="M63.2,149.82H60.87l-.28.65a1.44,1.44,0,0,0-.14.53.45.45,0,0,0,.23.41,1.77,1.77,0,0,0,.64.11v.18H59.13v-.18a1,1,0,0,0,.58-.29,4.06,4.06,0,0,0,.57-1L62.64,145h.09l2.38,5.42a3.7,3.7,0,0,0,.56,1,.74.74,0,0,0,.47.17v.18h-3.2v-.18h.14a1,1,0,0,0,.54-.11.25.25,0,0,0,.1-.22.57.57,0,0,0,0-.18,2.27,2.27,0,0,0-.14-.36Zm-.17-.36-1-2.27-1,2.27Z" transform="translate(-1.09)"/><path class="cls-5" d="M70.58,145.1l3.26,4.09v-2.83a1.39,1.39,0,0,0-.17-.81,1,1,0,0,0-.79-.27v-.18h2.18v.18a1.69,1.69,0,0,0-.56.14.58.58,0,0,0-.22.28,1.73,1.73,0,0,0-.08.66v5.49H74l-4.46-5.49v4.19a.81.81,0,0,0,.85,1h.16v.18H68.24v-.18a1,1,0,0,0,.76-.22,1.08,1.08,0,0,0,.21-.75v-4.66l-.14-.17a.88.88,0,0,0-.83-.44v-.18Z" transform="translate(-1.09)"/><path class="cls-5" d="M87.08,149.39l-.25,2.31H81v-.18h.22a.9.9,0,0,0,.46-.1.44.44,0,0,0,.19-.23,1.86,1.86,0,0,0,.06-.62v-4.34a1.9,1.9,0,0,0-.06-.63.44.44,0,0,0-.21-.22.82.82,0,0,0-.44-.1H81v-.18h3.52v.18H84.2a.87.87,0,0,0-.46.1.48.48,0,0,0-.2.24,1.75,1.75,0,0,0-.06.61v4.21a2.06,2.06,0,0,0,.06.64.43.43,0,0,0,.23.21,2.36,2.36,0,0,0,.59,0h.55a1.94,1.94,0,0,0,.88-.18,1.69,1.69,0,0,0,.6-.59,5,5,0,0,0,.49-1.17Z" transform="translate(-1.09)"/><path class="cls-5" d="M92.86,145a3.28,3.28,0,0,1,3.55,3.37,3.55,3.55,0,0,1-.74,2.21,3.27,3.27,0,0,1-2.75,1.26,3.33,3.33,0,0,1-2.75-1.2,3.47,3.47,0,0,1-.77-2.27,3.27,3.27,0,0,1,1-2.45A3.19,3.19,0,0,1,92.86,145Zm.06.31a1.48,1.48,0,0,0-1.38.93,4.87,4.87,0,0,0-.38,2.18,4.2,4.2,0,0,0,.59,2.49,1.35,1.35,0,0,0,1.16.57,1.37,1.37,0,0,0,.84-.25,2,2,0,0,0,.66-1,5.5,5.5,0,0,0,.24-1.78,6.08,6.08,0,0,0-.24-2,1.9,1.9,0,0,0-.62-.91A1.47,1.47,0,0,0,92.92,145.32Z" transform="translate(-1.09)"/><path class="cls-5" d="M100.88,148.69v1.85a1.86,1.86,0,0,0,.07.68.49.49,0,0,0,.23.22,1.69,1.69,0,0,0,.62.08v.18H98.42v-.18a1.69,1.69,0,0,0,.62-.08.49.49,0,0,0,.23-.22,2.3,2.3,0,0,0,.06-.68v-4.28a2.17,2.17,0,0,0-.06-.67.47.47,0,0,0-.23-.23,1.69,1.69,0,0,0-.62-.08v-.18h3.07a6.64,6.64,0,0,1,1.75.17,1.78,1.78,0,0,1,.91.61,1.63,1.63,0,0,1,.35,1,1.57,1.57,0,0,1-.53,1.21,2.17,2.17,0,0,1-.94.45l1.59,2.24a3.28,3.28,0,0,0,.44.54.82.82,0,0,0,.46.16v.18h-2.08l-2.12-3Zm0-3.23v2.89h.28a2.86,2.86,0,0,0,1-.13,1,1,0,0,0,.53-.44,1.65,1.65,0,0,0,.19-.85,1.51,1.51,0,0,0-.35-1.11,1.53,1.53,0,0,0-1.14-.36Z" transform="translate(-1.09)"/><path class="cls-5" d="M110.06,145.48v2.69h.13a1,1,0,0,0,.91-.4,2.37,2.37,0,0,0,.36-1.16h.19v3.46h-.19a2.52,2.52,0,0,0-.24-.93,1,1,0,0,0-.44-.48,1.52,1.52,0,0,0-.72-.13v1.86a2.63,2.63,0,0,0,0,.67.41.41,0,0,0,.17.2.84.84,0,0,0,.41.08h.4a2.35,2.35,0,0,0,1.48-.43,2.39,2.39,0,0,0,.8-1.31h.18l-.3,2.1h-5.7v-.18h.21a.91.91,0,0,0,.47-.1.44.44,0,0,0,.19-.23,1.86,1.86,0,0,0,.06-.62v-4.34a2.82,2.82,0,0,0,0-.55.44.44,0,0,0-.18-.26.84.84,0,0,0-.51-.14h-.21v-.18h5.52v2h-.18a2.42,2.42,0,0,0-.4-1,1.48,1.48,0,0,0-.72-.46,3.93,3.93,0,0,0-1-.09Z" transform="translate(-1.09)"/><path class="cls-5" d="M118.05,145.1l3.25,4.09v-2.83a1.31,1.31,0,0,0-.17-.81.94.94,0,0,0-.78-.27v-.18h2.18v.18a1.62,1.62,0,0,0-.56.14.53.53,0,0,0-.22.28,1.68,1.68,0,0,0-.09.66v5.49h-.16L117,146.36v4.19a.81.81,0,0,0,.86,1h.16v.18h-2.34v-.18a1,1,0,0,0,.75-.22,1,1,0,0,0,.22-.75v-4.66l-.14-.17a1.42,1.42,0,0,0-.37-.35,1.28,1.28,0,0,0-.46-.09v-.18Z" transform="translate(-1.09)"/><path class="cls-5" d="M130.31,145.1l-3.88,6.23h1.25a4.53,4.53,0,0,0,1.25-.11,2.18,2.18,0,0,0,1-.64,2.73,2.73,0,0,0,.58-1.26h.19l-.27,2.38h-6.05l3.89-6.24h-1a5.78,5.78,0,0,0-.75,0,1.88,1.88,0,0,0-.64.26,1.49,1.49,0,0,0-.5.5,2.7,2.7,0,0,0-.31.78h-.18l.18-1.93Z" transform="translate(-1.09)"/><path class="cls-5" d="M136.38,145a3.27,3.27,0,0,1,3.55,3.37,3.54,3.54,0,0,1-.73,2.21,3.28,3.28,0,0,1-2.75,1.26,3.35,3.35,0,0,1-2.76-1.2,3.52,3.52,0,0,1-.77-2.27,3.31,3.31,0,0,1,1-2.45A3.2,3.2,0,0,1,136.38,145Zm.06.31a1.5,1.5,0,0,0-1.38.93,5,5,0,0,0-.38,2.18,4.27,4.27,0,0,0,.59,2.49,1.37,1.37,0,0,0,1.16.57,1.33,1.33,0,0,0,.84-.25,1.91,1.91,0,0,0,.67-1,5.5,5.5,0,0,0,.24-1.78,6,6,0,0,0-.25-2,1.9,1.9,0,0,0-.62-.91A1.45,1.45,0,0,0,136.44,145.32Z" transform="translate(-1.09)"/><path class="cls-5" d="M61.91,165.29v-.18h.22a.88.88,0,0,0,.44-.09.56.56,0,0,0,.23-.25,2.29,2.29,0,0,0,0-.61v-4.34a2.56,2.56,0,0,0-.05-.64.58.58,0,0,0-.22-.22.9.9,0,0,0-.44-.09h-.22v-.18h3a4.61,4.61,0,0,1,1.9.32,2.83,2.83,0,0,1,1.34,1.19,3.63,3.63,0,0,1,.45,1.81,3.55,3.55,0,0,1-.22,1.28,2.76,2.76,0,0,1-1.4,1.58,4,4,0,0,1-1.14.36,5.2,5.2,0,0,1-.93.06Zm2.52-6.23v5.15a1.59,1.59,0,0,0,0,.5.27.27,0,0,0,.13.15.92.92,0,0,0,.38.07,1.47,1.47,0,0,0,1.24-.56,3.75,3.75,0,0,0,.59-2.32,4.43,4.43,0,0,0-.4-2,1.73,1.73,0,0,0-.82-.81A3.19,3.19,0,0,0,64.43,159.06Z" transform="translate(-1.09)"/><path class="cls-5" d="M73.13,159.07v2.68h.13a1,1,0,0,0,.91-.39,2.37,2.37,0,0,0,.36-1.16h.19v3.45h-.19a2.74,2.74,0,0,0-.24-.92,1.13,1.13,0,0,0-.44-.49,1.73,1.73,0,0,0-.72-.12V164a2.26,2.26,0,0,0,.05.67.4.4,0,0,0,.17.2.84.84,0,0,0,.41.07h.39a2.39,2.39,0,0,0,1.48-.42,2.44,2.44,0,0,0,.81-1.31h.18l-.3,2.1H70.61v-.18h.22a.87.87,0,0,0,.46-.1.48.48,0,0,0,.2-.24,2.21,2.21,0,0,0,.05-.61v-4.34a4.82,4.82,0,0,0,0-.55.47.47,0,0,0-.18-.27.86.86,0,0,0-.51-.13h-.22v-.18h5.53v1.95H76a2.35,2.35,0,0,0-.39-1,1.46,1.46,0,0,0-.73-.46,4.43,4.43,0,0,0-1-.08Z" transform="translate(-1.09)"/><path class="cls-5" d="M84.91,163l-.25,2.32H78.8v-.18H79a.9.9,0,0,0,.46-.1.47.47,0,0,0,.19-.24,1.75,1.75,0,0,0,.06-.61v-4.34a2,2,0,0,0-.06-.64.48.48,0,0,0-.21-.22.93.93,0,0,0-.44-.09H78.8v-.18h3.52v.18H82a.87.87,0,0,0-.46.1.42.42,0,0,0-.2.23,1.86,1.86,0,0,0-.06.62V164a2.1,2.1,0,0,0,.06.65.43.43,0,0,0,.23.21,3,3,0,0,0,.59,0h.55a1.82,1.82,0,0,0,.88-.19,1.58,1.58,0,0,0,.6-.58,4.7,4.7,0,0,0,.49-1.18Z" transform="translate(-1.09)"/><path class="cls-5" d="M97.85,158.69v.18a1.08,1.08,0,0,0-.65.38,6.4,6.4,0,0,0-.61,1.15l-2.27,5h-.16l-2.26-5.25a7.52,7.52,0,0,0-.55-1.11.8.8,0,0,0-.53-.21v-.18H94v.18h-.11a1.13,1.13,0,0,0-.58.1.23.23,0,0,0-.11.22.59.59,0,0,0,0,.21c0,.07.11.29.26.64l1.41,3.28,1.3-2.92a7.43,7.43,0,0,0,.29-.72,1.25,1.25,0,0,0,.05-.3.47.47,0,0,0-.08-.26.46.46,0,0,0-.23-.17,1.42,1.42,0,0,0-.55-.08v-.18Z" transform="translate(-1.09)"/><path class="cls-5" d="M102.59,163.41h-2.33l-.28.64a1.49,1.49,0,0,0-.14.53.45.45,0,0,0,.22.41,2.08,2.08,0,0,0,.65.12v.18H98.52v-.18a1,1,0,0,0,.58-.3,4.15,4.15,0,0,0,.57-1l2.36-5.27h.09L104.5,164a3.18,3.18,0,0,0,.56,1,.74.74,0,0,0,.47.18v.18h-3.2v-.18h.14A1,1,0,0,0,103,165a.25.25,0,0,0,.1-.22.57.57,0,0,0,0-.18,2.6,2.6,0,0,0-.14-.37Zm-.17-.36-1-2.27-1,2.27Z" transform="translate(-1.09)"/><path class="cls-5" d="M113.76,163l-.25,2.32h-5.86v-.18h.22a.87.87,0,0,0,.46-.1.48.48,0,0,0,.2-.24,2.21,2.21,0,0,0,0-.61v-4.34a2.56,2.56,0,0,0,0-.64.58.58,0,0,0-.22-.22.9.9,0,0,0-.44-.09h-.22v-.18h3.52v.18h-.29a.9.9,0,0,0-.46.1.46.46,0,0,0-.2.23,2.36,2.36,0,0,0,0,.62V164a2.1,2.1,0,0,0,.06.65.4.4,0,0,0,.23.21,2.94,2.94,0,0,0,.59,0h.54a1.77,1.77,0,0,0,.88-.19,1.6,1.6,0,0,0,.61-.58,4.74,4.74,0,0,0,.48-1.18Z" transform="translate(-1.09)"/><path class="cls-5" d="M122,163l-.25,2.32h-5.86v-.18h.22a.87.87,0,0,0,.46-.1.48.48,0,0,0,.2-.24,2.21,2.21,0,0,0,0-.61v-4.34a2.56,2.56,0,0,0,0-.64.58.58,0,0,0-.22-.22.93.93,0,0,0-.44-.09h-.22v-.18h3.52v.18h-.29a.9.9,0,0,0-.46.1.46.46,0,0,0-.2.23,2.36,2.36,0,0,0,0,.62V164a2.1,2.1,0,0,0,.06.65.37.37,0,0,0,.23.21,2.88,2.88,0,0,0,.58,0h.55a1.77,1.77,0,0,0,.88-.19,1.6,1.6,0,0,0,.61-.58,4.74,4.74,0,0,0,.48-1.18Z" transform="translate(-1.09)"/><path class="cls-5" d="M126.69,159.07v2.68h.14a1.06,1.06,0,0,0,.91-.39,2.6,2.6,0,0,0,.36-1.16h.18v3.45h-.18a2.73,2.73,0,0,0-.25-.92,1.13,1.13,0,0,0-.44-.49,1.67,1.67,0,0,0-.72-.12V164a2.69,2.69,0,0,0,0,.67.46.46,0,0,0,.17.2.86.86,0,0,0,.41.07h.4a2.11,2.11,0,0,0,2.28-1.73h.18l-.3,2.1h-5.7v-.18h.21a.91.91,0,0,0,.47-.1.47.47,0,0,0,.19-.24,1.75,1.75,0,0,0,.06-.61v-4.34a2.75,2.75,0,0,0,0-.55.47.47,0,0,0-.18-.27.84.84,0,0,0-.51-.13h-.21v-.18h5.52v1.95h-.18a2.47,2.47,0,0,0-.4-1,1.48,1.48,0,0,0-.72-.46,4.53,4.53,0,0,0-1-.08Z" transform="translate(-1.09)"/><rect class="cls-6" x="39.75" y="146.71" width="3.32" height="3.32"/><rect class="cls-6" x="146.88" y="146.71" width="3.32" height="3.32"/><rect class="cls-6" x="24.02" y="129.07" width="141.92" height="1.11"/><path class="cls-7" d="M112,29.51a12.7,12.7,0,0,0-7.57.8,12.87,12.87,0,0,0-1.89-5.07,14,14,0,0,0-1.24-1.63A12.64,12.64,0,0,0,96,27.52a12.68,12.68,0,0,0-5.29-3.91,13.05,13.05,0,0,0-1.25,1.63,12.87,12.87,0,0,0-1.89,5.07,12.67,12.67,0,0,0-7.56-.8,12.76,12.76,0,0,0,15.1,14.56h1.78A12.79,12.79,0,0,0,112,29.51Zm-11.22-4.38a.23.23,0,0,1,.29.07,11.58,11.58,0,0,1,2.24,5.67,12.42,12.42,0,0,0-2.68,2A12.67,12.67,0,0,0,98.78,35a13.39,13.39,0,0,0-.33-2.5,12.83,12.83,0,0,0-1.76-4A11.67,11.67,0,0,1,100.75,25.13ZM103,34.81A11.55,11.55,0,0,1,97.88,42a11.56,11.56,0,0,1,.38-2.83c.06-.21.11-.41.16-.62a11.58,11.58,0,0,1,3-4.82,12,12,0,0,1,1.93-1.5A12.33,12.33,0,0,1,103,34.81ZM88.6,32.19a12,12,0,0,1,1.92,1.5,11.58,11.58,0,0,1,3,4.82c0,.21.1.41.17.62A12.06,12.06,0,0,1,94.06,42a11.54,11.54,0,0,1-5.15-7.15A11.16,11.16,0,0,1,88.6,32.19Zm6.06,6a11.38,11.38,0,0,1,0-5.35A11.5,11.5,0,0,1,96,29.58a11.52,11.52,0,0,1,1.32,8.59c-.07.21-.11.42-.17.63A11.78,11.78,0,0,1,96,41.4a11.78,11.78,0,0,1-1.15-2.6C94.77,38.59,94.72,38.38,94.66,38.17Zm2.06,4.3h0Zm-1.49,0ZM90.9,25.2a.24.24,0,0,1,.3-.07,11.64,11.64,0,0,1,4,3.37A12.71,12.71,0,0,0,93.16,35a12.67,12.67,0,0,0-1.82-2.2,12.36,12.36,0,0,0-2.67-2A11.57,11.57,0,0,1,90.9,25.2ZM84.54,39.89A11.53,11.53,0,0,1,81,30.73a.25.25,0,0,1,.22-.22,11.59,11.59,0,0,1,6.19,1,12.71,12.71,0,0,0,6.22,11.53A11.54,11.54,0,0,1,84.54,39.89Zm22.87,0a11.57,11.57,0,0,1-9.12,3.19,12.7,12.7,0,0,0,6.23-11.53,11.56,11.56,0,0,1,6.19-1,.24.24,0,0,1,.21.22A11.52,11.52,0,0,1,107.41,39.89Z" transform="translate(-1.09)"/><rect class="cls-6" x="24.02" y="43.29" width="52.77" height="1.11"/><rect class="cls-6" x="112.91" y="43.29" width="53.03" height="1.11"/></g></g></svg>