<svg xmlns="http://www.w3.org/2000/svg" viewBox="0 0 310.83 111"><defs><style>.cls-1{fill:#76b72a;}.cls-2{fill:#0a4986;}</style></defs><title>skypark-green</title><g id="Layer_2" data-name="Layer 2"><g id="Layer_1-2" data-name="Layer 1"><path class="cls-1" d="M190.45,12.93a28,28,0,0,0-16.58,1.75A27.84,27.84,0,0,0,167,0a27.94,27.94,0,0,0-11.59,8.58A28,28,0,0,0,143.82,0,28.08,28.08,0,0,0,137,14.68a28,28,0,0,0-16.58-1.75,29.31,29.31,0,0,0-.36,4.48,28,28,0,0,0,33.45,27.42h3.9a28,28,0,0,0,33.08-31.9ZM165.87,3.34a.53.53,0,0,1,.66.16,25.37,25.37,0,0,1,4.89,12.41A27.51,27.51,0,0,0,161.58,25a28.33,28.33,0,0,0-.74-5.46A27.93,27.93,0,0,0,157,10.73,25.39,25.39,0,0,1,165.87,3.34Zm5,21.2a25.29,25.29,0,0,1-11.28,15.65,25.5,25.5,0,0,1,.81-6.19c.14-.45.26-.91.37-1.37a25.32,25.32,0,0,1,10.78-13.82A25.41,25.41,0,0,1,170.89,24.54Zm-31.63-5.73a25.92,25.92,0,0,1,4.22,3.27A25.12,25.12,0,0,1,150,32.63c.12.46.23.92.37,1.37a26,26,0,0,1,.82,6.19,25.34,25.34,0,0,1-12-21.38ZM152.54,31.9a25,25,0,0,1,2.88-18.81,25.36,25.36,0,0,1,2.89,7.09,25.09,25.09,0,0,1,0,11.72c-.14.45-.24.92-.36,1.38A25.72,25.72,0,0,1,155.42,39a25.27,25.27,0,0,1-2.52-5.69C152.78,32.82,152.68,32.35,152.54,31.9Zm4.51,9.43h0l0,0Zm-3.25,0h0v0ZM144.31,3.5a.51.51,0,0,1,.65-.16,25.3,25.3,0,0,1,8.87,7.39A27.91,27.91,0,0,0,150,19.58a28.33,28.33,0,0,0-.74,5.46,28.49,28.49,0,0,0-4-4.82,28,28,0,0,0-5.86-4.31A25.27,25.27,0,0,1,144.31,3.5ZM130.37,35.67a25.25,25.25,0,0,1-7.69-20.06.54.54,0,0,1,.47-.49,25.3,25.3,0,0,1,13.55,2.29,28.23,28.23,0,0,0,.72,7.73,27.92,27.92,0,0,0,12.91,17.51A25.27,25.27,0,0,1,130.37,35.67Zm50.09,0a25.25,25.25,0,0,1-20,7,27.88,27.88,0,0,0,12.91-17.51,28.23,28.23,0,0,0,.72-7.73,25.34,25.34,0,0,1,13.56-2.29.52.52,0,0,1,.46.49A25.25,25.25,0,0,1,180.46,35.67Z"/><rect class="cls-2" y="43.11" width="115.58" height="2.43"/><rect class="cls-2" x="194.69" y="43.11" width="116.15" height="2.43"/><rect class="cls-2" y="89.79" width="310.83" height="2.43"/><rect class="cls-2" x="91.03" y="102.46" width="6.35" height="6.35"/><rect class="cls-2" x="213.45" y="102.46" width="6.35" height="6.35"/><path class="cls-1" d="M110.84,109.64a4,4,0,0,1-3,1.36,4.15,4.15,0,0,1-1.9-.45,5.23,5.23,0,0,1-1.54-1.18,5.88,5.88,0,0,1-1-1.71,5.52,5.52,0,0,1,1-5.66,4.87,4.87,0,0,1,1.55-1.14,4.55,4.55,0,0,1,2-.42,4.5,4.5,0,0,1,2.46.63,3.94,3.94,0,0,1,1.51,1.65l-1.26.91a2.94,2.94,0,0,0-1.15-1.28,3.14,3.14,0,0,0-1.6-.43,2.73,2.73,0,0,0-1.31.32,3.12,3.12,0,0,0-1,.84,3.7,3.7,0,0,0-.65,1.21,4.51,4.51,0,0,0-.23,1.43,4.46,4.46,0,0,0,.25,1.48,3.75,3.75,0,0,0,.7,1.2,3.32,3.32,0,0,0,1,.82,2.86,2.86,0,0,0,1.3.3,3.64,3.64,0,0,0,2.85-1.54v-1.1h-2.19v-1.22h3.57v5.27h-1.38Z"/><path class="cls-1" d="M114.65,110.93V100.52h4.53a2.82,2.82,0,0,1,1.3.29,3.27,3.27,0,0,1,1,.77,3.76,3.76,0,0,1,.67,1.08,3.37,3.37,0,0,1,.24,1.24,3.45,3.45,0,0,1-.15,1,3.14,3.14,0,0,1-.41.89,2.89,2.89,0,0,1-.64.71,2.85,2.85,0,0,1-.84.45l2.48,4H121l-2.29-3.62h-2.4v3.62Zm1.65-5.08h2.87a1.37,1.37,0,0,0,.64-.15,1.43,1.43,0,0,0,.49-.43,2,2,0,0,0,.32-.62,2.27,2.27,0,0,0,.12-.75,2,2,0,0,0-.14-.74,2.13,2.13,0,0,0-.37-.62,1.64,1.64,0,0,0-.53-.42,1.35,1.35,0,0,0-.62-.15H116.3Z"/><path class="cls-1" d="M131.91,109.48v1.45h-7.14V100.52h7V102h-5.37v3h4.65v1.36h-4.65v3.19Z"/><path class="cls-1" d="M141.08,109.48v1.45h-7.14V100.52h7V102h-5.37v3h4.65v1.36h-4.65v3.19Z"/><path class="cls-1" d="M144.75,103.6v7.33h-1.64V100.52h1.29l5.95,7.5v-7.49H152v10.4h-1.36Z"/><path class="cls-1" d="M159.12,110.93V100.52h1.64v9h5.59v1.45Z"/><path class="cls-1" d="M168,110.93v-10.4h1.64v10.4Z"/><path class="cls-1" d="M172.87,100.52l3.15,8.34,3.12-8.34h1.73l-4.15,10.41h-1.4l-4.2-10.41Z"/><path class="cls-1" d="M182.41,110.93v-10.4h1.64v10.4Z"/><path class="cls-1" d="M188.43,103.6v7.33h-1.64V100.52h1.29l6,7.5v-7.49h1.65v10.4h-1.36Z"/><path class="cls-1" d="M205.66,109.64a4,4,0,0,1-3,1.36,4.15,4.15,0,0,1-1.9-.45,5.23,5.23,0,0,1-1.54-1.18,5.88,5.88,0,0,1-1-1.71,5.52,5.52,0,0,1,1-5.66,4.87,4.87,0,0,1,1.55-1.14,4.55,4.55,0,0,1,2-.42,4.5,4.5,0,0,1,2.46.63,3.94,3.94,0,0,1,1.51,1.65l-1.26.91a2.94,2.94,0,0,0-1.15-1.28,3.14,3.14,0,0,0-1.6-.43,2.73,2.73,0,0,0-1.31.32,3.12,3.12,0,0,0-1,.84,3.7,3.7,0,0,0-.65,1.21,4.51,4.51,0,0,0-.23,1.43,4.46,4.46,0,0,0,.25,1.48,3.75,3.75,0,0,0,.7,1.2,3.32,3.32,0,0,0,1,.82,2.86,2.86,0,0,0,1.3.3,3.64,3.64,0,0,0,2.85-1.54v-1.1h-2.19v-1.22H207v5.27h-1.37Z"/><path class="cls-2" d="M24.14,59a8.69,8.69,0,0,0-3.21-2.19A11.63,11.63,0,0,0,16.41,56c-2.52,0-4.36.48-5.5,1.42A4.71,4.71,0,0,0,9.2,61.21a4.17,4.17,0,0,0,.46,2.09,3.89,3.89,0,0,0,1.43,1.42,10.68,10.68,0,0,0,2.47,1c1,.29,2.17.59,3.53.88,1.51.32,2.86.67,4.06,1.05a11.53,11.53,0,0,1,3.07,1.48,6.16,6.16,0,0,1,2,2.19,6.86,6.86,0,0,1,.68,3.2,7.22,7.22,0,0,1-.76,3.39A6.81,6.81,0,0,1,24,80.33a9.32,9.32,0,0,1-3.23,1.41,16.82,16.82,0,0,1-4.06.46A16.62,16.62,0,0,1,5.34,78.1l1.35-2.27a12.64,12.64,0,0,0,4.18,2.77,14.79,14.79,0,0,0,5.86,1.13A9.88,9.88,0,0,0,22,78.52a4.08,4.08,0,0,0,1.91-3.69,4.23,4.23,0,0,0-.54-2.21,4.8,4.8,0,0,0-1.61-1.55,11.51,11.51,0,0,0-2.69-1.14c-1.08-.31-2.32-.63-3.73-1s-2.78-.7-3.9-1.08a10.1,10.1,0,0,1-2.81-1.39A5.55,5.55,0,0,1,7,64.5a6.47,6.47,0,0,1-.58-2.89,8,8,0,0,1,.74-3.49,6.84,6.84,0,0,1,2.07-2.54A9.6,9.6,0,0,1,12.37,54a14.49,14.49,0,0,1,4.08-.54,13.8,13.8,0,0,1,5,.86,13.39,13.39,0,0,1,4,2.41Z"/><path class="cls-2" d="M52.64,82V53.72h2.74V70.13L71,53.68H74L62.47,66.11,74.66,82H71.6L60.76,67.74l-5.38,5.54V82Z"/><path class="cls-2" d="M100.18,53.68l9.28,15.22,9.32-15.22h3l-11,17.77V82h-2.75V71.37L97.16,53.68Z"/><path class="cls-2" d="M146.28,82V53.68H158a7.33,7.33,0,0,1,3.37.78,9.13,9.13,0,0,1,2.65,2,9.42,9.42,0,0,1,1.73,2.85,8.91,8.91,0,0,1,.62,3.23,10,10,0,0,1-.58,3.36,9,9,0,0,1-1.65,2.85,8.5,8.5,0,0,1-2.57,2,7.22,7.22,0,0,1-3.33.76H149V82ZM149,69.06h9a4.68,4.68,0,0,0,2.25-.54,5.61,5.61,0,0,0,1.74-1.43A6.86,6.86,0,0,0,163.17,65a7.49,7.49,0,0,0,.4-2.45,6.68,6.68,0,0,0-.46-2.49A6.83,6.83,0,0,0,161.88,58,5.65,5.65,0,0,0,160,56.65a5.14,5.14,0,0,0-2.21-.5H149Z"/><path class="cls-2" d="M186.21,82,198,53.68h2.27L212.14,82h-3l-3.66-8.84H192.78L189.16,82Zm13-25-5.81,14h11.47Z"/><path class="cls-2" d="M236.7,82V53.68h11.91a7.4,7.4,0,0,1,3.38.78,8.83,8.83,0,0,1,2.67,2,9.23,9.23,0,0,1,1.73,2.85,8.7,8.7,0,0,1,.62,3.23,9.4,9.4,0,0,1-.46,3,8.5,8.5,0,0,1-1.29,2.55,7.85,7.85,0,0,1-2,1.91,7,7,0,0,1-2.59,1.06l7,10.91H254.5l-6.69-10.43h-8.36V82Zm2.75-12.9h9.28a4.73,4.73,0,0,0,2.25-.54,5.37,5.37,0,0,0,1.73-1.45A7.13,7.13,0,0,0,253.83,65a7.54,7.54,0,0,0,.39-2.43,6.78,6.78,0,0,0-.45-2.45,6.86,6.86,0,0,0-1.24-2.06,6.08,6.08,0,0,0-1.83-1.39,5,5,0,0,0-2.21-.52h-9Z"/><path class="cls-2" d="M283.47,82V53.72h2.75V70.13l15.57-16.45h3.07L293.31,66.11,305.5,82h-3.07L291.6,67.74l-5.38,5.54V82Z"/></g></g></svg>