<svg xmlns="http://www.w3.org/2000/svg" viewBox="0 0 50 50"><defs><style>.cls-1{fill:#0a4986;}.cls-2{fill:#fff;}</style></defs><title>Asset 19</title><g id="Layer_2" data-name="Layer 2"><g id="Layer_1-2" data-name="Layer 1"><rect class="cls-1" width="50" height="50"/><path class="cls-2" d="M17,10.1a2,2,0,0,1,1.14,1.15c1,2,2,4,3,6.05a1.78,1.78,0,0,1-.38,2.3,14.07,14.07,0,0,1-1.4,1.27c-.26.26-.45.58-.26.9a20.92,20.92,0,0,0,.89,2,22.7,22.7,0,0,0,6.89,7,6.43,6.43,0,0,0,1.4.63c.26.13.51,0,.77-.25l1.53-1.53a2,2,0,0,1,2.55-.26c1.84,1.22,3.76,2.36,5.54,3.51a2.48,2.48,0,0,1,.64.51,1.27,1.27,0,0,1,.06,1.72l-.32.32c-1.33,1.21-2.67,2.55-4,3.76a3,3,0,0,1-2.68.89,16.79,16.79,0,0,1-7.08-2.48,34.22,34.22,0,0,1-7.45-6.06,36.51,36.51,0,0,1-5.1-6.75,18,18,0,0,1-2.3-6.51c-.06-.32-.06-.57-.13-.89s.07-.83.07-1.21A4.2,4.2,0,0,1,11.72,14c1.21-1.09,2.35-2.23,3.57-3.44a2.86,2.86,0,0,1,1.08-.71C16.82,10,16.88,10.1,17,10.1Z"/></g></g></svg>