<svg xmlns="http://www.w3.org/2000/svg" viewBox="0 0 46 46"><defs><style>.cls-1{fill:#0a4986;}.cls-2{fill:#fff;}</style></defs><title>twitter</title><g id="Layer_2" data-name="Layer 2"><g id="Layer_1-2" data-name="Layer 1"><path class="cls-1" d="M11.5,0h23A11.5,11.5,0,0,1,46,11.5V46a0,0,0,0,1,0,0H0a0,0,0,0,1,0,0V11.5A11.5,11.5,0,0,1,11.5,0Z" transform="translate(0 46) rotate(-90)"/><path id="_Path_" data-name="&lt;Path&gt;" class="cls-2" d="M33.6,16.6a10.27,10.27,0,0,1-2.5.7A4.15,4.15,0,0,0,33,14.9a8.49,8.49,0,0,1-2.8,1A4.45,4.45,0,0,0,27,14.6a4.27,4.27,0,0,0-4.3,4.3,3.4,3.4,0,0,0,.1,1,12.29,12.29,0,0,1-8.9-4.5,3.94,3.94,0,0,0-.6,2.1A4.17,4.17,0,0,0,15.2,21a4.55,4.55,0,0,1-2-.5v.1a3.65,3.65,0,0,0,.3,1.5,4.29,4.29,0,0,0,3.2,2.6,4.1,4.1,0,0,1-1.1.1,2.2,2.2,0,0,1-.8-.1,4.54,4.54,0,0,0,4,3,9.21,9.21,0,0,1-5.4,1.8,3.08,3.08,0,0,1-1-.1A12.41,12.41,0,0,0,19,31.3a12,12,0,0,0,12-9.6,11.53,11.53,0,0,0,.3-2.6v-.6A5.25,5.25,0,0,0,33.6,16.6Z"/></g></g></svg>