<svg xmlns="http://www.w3.org/2000/svg" viewBox="0 0 72.53 72.53"><defs><style>.cls-1{fill:#0a4986;}.cls-2{fill:#fff;}</style></defs><title>Asset 18</title><g id="Layer_2" data-name="Layer 2"><g id="Layer_1-2" data-name="Layer 1"><rect class="cls-1" width="72.53" height="72.53" rx="15.87" ry="15.87"/><path id="_Path_" data-name="&lt;Path&gt;" class="cls-2" d="M55.66,25a18.7,18.7,0,0,1-4.58,1.28,7.57,7.57,0,0,0,3.48-4.39,15.82,15.82,0,0,1-5.13,1.83,8.13,8.13,0,0,0-5.86-2.38,7.82,7.82,0,0,0-7.88,7.87,6,6,0,0,0,.19,1.83,22.46,22.46,0,0,1-16.3-8.24,7.25,7.25,0,0,0-1.1,3.85A7.63,7.63,0,0,0,22,33.08a8.33,8.33,0,0,1-3.66-.92v.18a6.62,6.62,0,0,0,.55,2.75,7.84,7.84,0,0,0,5.86,4.76,7.32,7.32,0,0,1-2,.19,3.87,3.87,0,0,1-1.46-.19,8.33,8.33,0,0,0,7.32,5.5,16.89,16.89,0,0,1-9.89,3.29,5.74,5.74,0,0,1-1.83-.18,22.71,22.71,0,0,0,12.09,3.48c12.45,0,20-8.61,22-17.58a20.89,20.89,0,0,0,.55-4.76V28.5A9.67,9.67,0,0,0,55.66,25Z"/></g></g></svg>